# Blender v2.79 (sub 0) OBJ File: 'Dungeon.blend'
# www.blender.org
o Circle
v -3.711516 31.273378 13.335422
v -4.772176 31.273378 13.774761
v -5.211516 31.273378 14.835422
v -4.772176 31.273378 15.896082
v -3.711516 31.273378 16.335423
v -2.650856 31.273378 15.896082
v -2.211516 31.273378 14.835422
v -2.650856 31.273378 13.774761
v -3.711516 32.102196 13.034700
v -4.984818 32.102196 13.562119
v -5.512237 32.102196 14.835422
v -4.984818 32.102196 16.108723
v -3.711516 32.102196 16.636143
v -2.438214 32.102196 16.108723
v -1.910795 32.102196 14.835422
v -2.438214 32.102196 13.562119
v -3.711516 33.835690 12.847596
v -5.117121 33.835690 13.429817
v -5.699342 33.835690 14.835422
v -5.117121 33.835690 16.241026
v -3.711516 33.835690 16.823246
v -2.305911 33.835690 16.241026
v -1.723691 33.835690 14.835422
v -2.305911 33.835690 13.429817
v -3.711516 35.457348 13.133245
v -4.915137 35.457348 13.631801
v -5.413692 35.457348 14.835422
v -4.915137 35.457348 16.039042
v -3.711516 35.457348 16.537598
v -2.507895 35.457348 16.039042
v -2.009340 35.457348 14.835422
v -2.507895 35.457348 13.631802
v -3.711516 35.960617 13.284217
v -4.808383 35.960617 13.738554
v -5.262721 35.960617 14.835422
v -4.808383 35.960617 15.932289
v -3.711516 35.960617 16.386625
v -2.614649 35.960617 15.932288
v -2.160312 35.960617 14.835422
v -2.614649 35.960617 13.738555
v -4.958449 35.109604 13.588489
v -5.474946 35.109604 14.835422
v -1.948086 35.109604 14.835422
v -2.464583 35.109604 13.588489
v -3.711516 35.109604 16.598852
v -2.464583 35.109604 16.082355
v -4.958449 35.109604 16.082355
v -3.711516 35.109604 13.071992
v -1.765163 33.451454 14.835422
v -2.335237 33.451454 13.459143
v -3.711516 33.451454 16.781775
v -2.335237 33.451454 16.211700
v -5.657869 33.451454 14.835422
v -5.087795 33.451454 16.211700
v -3.711516 33.451454 12.889069
v -5.087795 33.451454 13.459143
v -4.878497 31.687786 16.002403
v -3.711516 31.687786 16.485783
v -4.878497 31.687786 13.668441
v -5.361876 31.687786 14.835422
v -2.061156 31.687786 14.835422
v -2.544535 31.687786 13.668441
v -2.544535 31.687786 16.002403
v -3.711516 31.687786 13.185061
v -5.069070 32.058964 13.477868
v -3.711516 32.058964 12.915550
v -5.631387 32.058964 14.835422
v -5.069070 32.058964 16.192976
v -3.711516 32.058964 16.755293
v -2.353962 32.058964 16.192974
v -1.791645 32.058964 14.835422
v -2.353962 32.058964 13.477868
v -3.711516 31.644554 16.604931
v -5.481027 31.644554 14.835422
v -2.460283 31.644554 13.584189
v -2.460283 31.644554 16.086655
v -5.206229 33.822090 13.340709
v -3.711516 33.822090 12.721578
v -5.825360 33.822090 14.835422
v -5.206229 33.822090 16.330135
v -3.711516 33.822090 16.949265
v -2.216803 33.822090 16.330135
v -1.597672 33.822090 14.835422
v -2.216803 33.822090 13.340709
v -2.246128 33.437851 13.370034
v -2.246128 33.437851 16.300810
v -5.176904 33.437851 16.300810
v -5.176904 33.437851 13.370034
v -5.003404 35.479336 13.543534
v -3.711516 35.479336 13.008416
v -5.538521 35.479336 14.835422
v -5.003404 35.479336 16.127310
v -3.711516 35.479336 16.662426
v -2.419628 35.479336 16.127310
v -1.884511 35.479336 14.835422
v -2.419628 35.479336 13.543534
v -5.599774 35.131592 14.835422
v -2.376316 35.131592 13.500221
v -2.376316 35.131592 16.170622
v -5.046717 35.131592 16.170622
v -5.046717 35.131592 13.500221
v -1.823258 35.131592 14.835422
v -3.711516 35.131592 16.723680
v -3.711516 35.131592 12.947163
v -1.639145 33.437851 14.835422
v -3.711516 33.437851 16.907793
v -5.783887 33.437851 14.835422
v -3.711516 33.437851 12.763050
v -4.962749 31.644554 16.086655
v -4.962749 31.644554 13.584188
v -1.942006 31.644554 14.835422
v -3.711516 31.644554 13.065911
v -4.714712 36.146873 13.832225
v -3.711516 36.146873 13.416688
v -5.130250 36.146873 14.835422
v -4.714712 36.146873 15.838618
v -3.711516 36.146873 16.254156
v -2.708320 36.146873 15.838617
v -2.292782 36.146873 14.835422
v -2.708320 36.146873 13.832226
v -4.808383 36.146873 13.738554
v -3.711516 36.146873 13.284217
v -5.262721 36.146873 14.835422
v -4.808383 36.146873 15.932289
v -3.711516 36.146873 16.386625
v -2.614649 36.146873 15.932288
v -2.160312 36.146873 14.835422
v -2.614649 36.146873 13.738555
v -4.714712 35.968010 13.832225
v -3.711516 35.968010 13.416688
v -5.130250 35.968010 14.835422
v -4.714712 35.968010 15.838618
v -3.711516 35.968010 16.254156
v -2.708320 35.968010 15.838617
v -2.292782 35.968010 14.835422
v -2.708320 35.968010 13.832226
v -4.682157 31.099133 13.864780
v -3.711516 31.099133 13.462729
v -5.084209 31.099133 14.835422
v -4.682157 31.099133 15.806063
v -3.711516 31.099133 16.208115
v -2.740875 31.099133 15.806063
v -2.338823 31.099133 14.835422
v -2.740875 31.099133 13.864780
v -4.772176 31.099133 13.774761
v -3.711516 31.099133 13.335422
v -5.211516 31.099133 14.835422
v -4.772176 31.099133 15.896082
v -3.711516 31.099133 16.335423
v -2.650856 31.099133 15.896082
v -2.211516 31.099133 14.835422
v -2.650856 31.099133 13.774761
v -4.682157 31.311394 13.864780
v -3.711516 31.311394 13.462729
v -5.084209 31.311394 14.835422
v -4.682157 31.311394 15.806063
v -3.711516 31.311394 16.208115
v -2.740875 31.311394 15.806063
v -2.338823 31.311394 14.835422
v -2.740875 31.311394 13.864780
vt 0.167583 0.222328
vt 0.137021 0.250663
vt 0.130429 0.235802
vt 0.152523 0.216382
vt 0.138520 0.152319
vt 0.168385 0.180865
vt 0.153819 0.187829
vt 0.133273 0.167641
vt 0.066299 0.180654
vt 0.096861 0.152319
vt 0.103454 0.167180
vt 0.081360 0.186601
vt 0.095362 0.250663
vt 0.065497 0.222117
vt 0.080064 0.215154
vt 0.100610 0.235341
vt 0.190992 0.092120
vt 0.231872 0.052352
vt 0.248318 0.087815
vt 0.227830 0.106048
vt 0.288068 0.052887
vt 0.325291 0.092933
vt 0.291269 0.108699
vt 0.274627 0.088667
vt 0.325978 0.149129
vt 0.286555 0.190290
vt 0.269459 0.155272
vt 0.288636 0.135937
vt 0.229618 0.190350
vt 0.243153 0.153769
vt 0.189877 0.149350
vt 0.225777 0.133350
vt 0.225840 0.251743
vt 0.224003 0.278016
vt 0.185607 0.296633
vt 0.186024 0.237035
vt 0.242086 0.297871
vt 0.269467 0.299334
vt 0.288129 0.338230
vt 0.228197 0.338539
vt 0.290187 0.281394
vt 0.292304 0.254654
vt 0.330699 0.236002
vt 0.330699 0.295916
vt 0.274765 0.235026
vt 0.247461 0.235255
vt 0.229233 0.196366
vt 0.287767 0.194759
vt 0.392372 0.128150
vt 0.413717 0.108657
vt 0.426264 0.113484
vt 0.397936 0.140455
vt 0.414484 0.080481
vt 0.393961 0.060863
vt 0.398252 0.048142
vt 0.426537 0.074615
vt 0.364615 0.060749
vt 0.359216 0.048442
vt 0.343134 0.079678
vt 0.342710 0.107901
vt 0.330600 0.113745
vt 0.330600 0.074863
vt 0.363132 0.128058
vt 0.358728 0.140826
vt 0.330942 0.243556
vt 0.330942 0.214971
vt 0.351154 0.194759
vt 0.379739 0.194759
vt 0.399952 0.214971
vt 0.399952 0.243556
vt 0.379739 0.263769
vt 0.351154 0.263769
vt 0.350498 0.264012
vt 0.378156 0.264012
vt 0.397712 0.283568
vt 0.397712 0.311226
vt 0.378156 0.330782
vt 0.350498 0.330782
vt 0.330942 0.311226
vt 0.330942 0.283568
vt 0.489176 0.909242
vt 0.443609 0.917421
vt 0.440999 0.913207
vt 0.488659 0.905192
vt 0.736181 0.865319
vt 0.695878 0.856580
vt 0.696584 0.852728
vt 0.737326 0.861570
vt 0.439663 0.894509
vt 0.486554 0.890007
vt 0.486918 0.893760
vt 0.438395 0.898747
vt 0.786049 0.715754
vt 0.767158 0.726564
vt 0.765952 0.725180
vt 0.785530 0.714035
vt 0.784603 0.917421
vt 0.739805 0.908352
vt 0.740415 0.904566
vt 0.787062 0.913716
vt 0.491453 0.866087
vt 0.448551 0.881098
vt 0.445409 0.877348
vt 0.490384 0.862103
vt 0.699415 0.884645
vt 0.742056 0.889225
vt 0.741529 0.893318
vt 0.699065 0.888533
vt 0.330357 0.150882
vt 0.288269 0.194516
vt 0.786205 0.815172
vt 0.809369 0.817420
vt 0.809990 0.819536
vt 0.785607 0.816976
vt 0.698170 0.904009
vt 0.698529 0.900154
vt 0.614124 0.881398
vt 0.656802 0.882105
vt 0.656629 0.885995
vt 0.614118 0.885291
vt 0.329600 0.091096
vt 0.754432 0.786765
vt 0.767289 0.804313
vt 0.766045 0.805662
vt 0.752748 0.787492
vt 0.656367 0.901514
vt 0.656559 0.897647
vt 0.528893 0.885444
vt 0.571464 0.882514
vt 0.571624 0.886402
vt 0.529210 0.889319
vt 0.289917 0.048858
vt 0.329174 0.091492
vt 0.754349 0.744186
vt 0.749849 0.765490
vt 0.748014 0.765466
vt 0.752682 0.743415
vt 0.614516 0.900804
vt 0.614542 0.896933
vt 0.699161 0.834652
vt 0.741503 0.844078
vt 0.740447 0.848113
vt 0.698479 0.838520
vt 0.230265 0.048142
vt 0.572685 0.901879
vt 0.572547 0.898012
vt 0.788269 0.856986
vt 0.788708 0.862172
vt 0.789304 0.894971
vt 0.790585 0.899942
vt 0.572393 0.847811
vt 0.531263 0.853299
vt 0.528231 0.839273
vt 0.570619 0.833552
vt 0.655356 0.847512
vt 0.613861 0.845868
vt 0.613329 0.831502
vt 0.656064 0.833150
vt 0.780708 0.877778
vt 0.486399 0.848220
vt 0.438395 0.860062
vt 0.809990 0.711907
vt 0.783435 0.708076
vt 0.809617 0.705057
vt 0.783895 0.822660
vt 0.762119 0.810374
vt 0.747228 0.790191
vt 0.741870 0.765677
vt 0.746984 0.741100
vt 0.761686 0.720737
vt 0.809520 0.825682
vt 0.530655 0.900860
vt 0.654988 0.851408
vt 0.530952 0.904726
vt 0.613829 0.849779
vt 0.572699 0.851710
vt 0.656392 0.829250
vt 0.531900 0.857169
vt 0.613317 0.827589
vt 0.809388 0.713806
vt 0.777731 0.881098
vt 0.570270 0.829656
vt 0.227768 0.194516
vt 0.527562 0.835424
vt 0.185607 0.150943
vt 0.485567 0.844546
vt 0.186854 0.090239
vt 0.438980 0.855695
vt 0.536522 0.782929
vt 0.565888 0.757552
vt 0.569462 0.762849
vt 0.541091 0.786882
vt 0.675578 0.751155
vt 0.708462 0.765911
vt 0.705470 0.770627
vt 0.674036 0.756512
vt 0.743764 0.782239
vt 0.765758 0.814932
vt 0.759968 0.818701
vt 0.739047 0.786633
vt 0.678440 0.741079
vt 0.714021 0.757031
vt 0.710725 0.762529
vt 0.676808 0.747277
vt 0.601295 0.741361
vt 0.639838 0.735717
vt 0.640004 0.742121
vt 0.603245 0.747460
vt 0.514827 0.815480
vt 0.519934 0.818884
vt 0.604289 0.751387
vt 0.571561 0.766330
vt 0.639907 0.746186
vt 0.736142 0.789129
vt 0.756125 0.819403
vt 0.544247 0.789793
vt 0.524727 0.819800
vt 0.639925 0.751757
vt 0.605863 0.756729
vt 0.548447 0.793506
vt 0.529071 0.822630
vt 0.731666 0.793050
vt 0.574565 0.771022
vt 0.751252 0.822630
vt 0.631559 0.763270
vt 0.660602 0.787536
vt 0.656197 0.791698
vt 0.628489 0.768454
vt 0.466743 0.794977
vt 0.493279 0.772323
vt 0.496819 0.777900
vt 0.471691 0.799414
vt 0.438395 0.819827
vt 0.459457 0.788453
vt 0.463719 0.792168
vt 0.443157 0.823024
vt 0.487928 0.763996
vt 0.522211 0.748359
vt 0.524036 0.754079
vt 0.491265 0.768967
vt 0.559537 0.742858
vt 0.596970 0.747954
vt 0.595456 0.753780
vt 0.559700 0.748868
vt 0.682201 0.819109
vt 0.676787 0.822696
vt 0.626322 0.771734
vt 0.594282 0.757528
vt 0.559615 0.752789
vt 0.525041 0.757864
vt 0.447759 0.823920
vt 0.673082 0.823406
vt 0.653410 0.794131
vt 0.559633 0.759405
vt 0.526896 0.764206
vt 0.622776 0.777355
vt 0.592459 0.763896
vt 0.648112 0.798830
vt 0.452879 0.827289
vt 0.667332 0.827289
vn 0.3688 0.2671 -0.8903
vn 0.8903 0.2671 0.3688
vn -0.3688 0.2671 0.8903
vn -0.8903 0.2671 -0.3688
vn 0.8903 0.2671 -0.3688
vn 0.3688 0.2671 0.8903
vn -0.8903 0.2671 0.3688
vn -0.3688 0.2671 -0.8903
vn -0.3777 0.1606 0.9119
vn 0.9119 0.1606 0.3777
vn 0.3777 0.1606 -0.9119
vn -0.3777 0.1606 -0.9119
vn -0.9119 0.1606 0.3777
vn 0.3777 0.1606 0.9119
vn 0.9119 0.1606 -0.3777
vn -0.9119 0.1606 -0.3777
vn -0.9193 -0.0992 -0.3808
vn -0.3808 -0.0992 0.9193
vn 0.9193 -0.0992 0.3808
vn 0.3808 -0.0992 -0.9193
vn -0.3808 -0.0992 -0.9193
vn -0.9193 -0.0992 0.3808
vn 0.3808 -0.0992 0.9193
vn 0.9193 -0.0992 -0.3808
vn 0.8760 -0.3178 0.3628
vn 0.3628 -0.3178 -0.8760
vn -0.3628 -0.3178 -0.8760
vn -0.8760 -0.3178 0.3628
vn 0.3628 -0.3178 0.8760
vn 0.8760 -0.3178 -0.3628
vn -0.8760 -0.3178 -0.3628
vn -0.3628 -0.3178 0.8760
vn 0.0000 1.0000 -0.0000
vn 0.0000 -1.0000 -0.0000
vn -0.1730 0.9823 0.0717
vn -0.1399 -0.9308 0.3377
vn 0.1730 -0.9823 -0.0717
vn -0.0444 -0.9932 0.1072
vn -0.1730 0.9823 -0.0717
vn -0.3377 -0.9308 -0.1399
vn 0.0717 -0.9823 0.1730
vn 0.0444 0.9932 -0.1072
vn -0.1072 -0.9932 -0.0444
vn -0.0717 0.9823 -0.1730
vn -0.1730 -0.9823 0.0717
vn 0.1072 0.9932 -0.0444
vn 0.0444 -0.9932 -0.1072
vn 0.0717 0.9823 -0.1730
vn -0.0717 -0.9823 -0.1730
vn 0.1072 0.9932 0.0444
vn 0.1072 -0.9932 0.0444
vn 0.1730 0.9823 -0.0717
vn 0.1399 0.9308 -0.3377
vn 0.0717 -0.9823 -0.1730
vn 0.0444 0.9932 0.1072
vn 0.1730 0.9823 0.0717
vn 0.3377 0.9308 -0.1399
vn 0.1730 -0.9823 0.0717
vn 0.0444 -0.9932 0.1072
vn -0.1730 -0.9823 -0.0717
vn 0.1399 -0.9308 0.3377
vn -0.0717 0.9823 0.1730
vn 0.1072 -0.9932 -0.0444
vn 0.3377 -0.9308 -0.1399
vn -0.1399 0.9308 -0.3377
vn -0.0444 -0.9932 -0.1072
vn -0.1399 -0.9308 -0.3377
vn -0.3377 0.9308 -0.1399
vn -0.1072 -0.9932 0.0444
vn -0.3377 -0.9308 0.1399
vn -0.3377 0.9308 0.1399
vn -0.0444 0.9932 -0.1072
vn 0.3377 -0.9308 0.1399
vn -0.1399 0.9308 0.3377
vn -0.1072 0.9932 -0.0444
vn 0.1399 -0.9308 -0.3377
vn 0.1399 0.9308 0.3377
vn -0.1072 0.9932 0.0444
vn -0.0717 -0.9823 0.1730
vn 0.3377 0.9308 0.1399
vn 0.0717 0.9823 0.1730
vn -0.0444 0.9932 0.1072
vn 0.3827 0.0000 -0.9239
vn 0.9239 0.0000 0.3827
vn -0.3827 0.0000 0.9239
vn -0.9239 0.0000 -0.3827
vn 0.9239 0.0000 -0.3827
vn 0.3827 0.0000 0.9239
vn -0.9239 0.0000 0.3827
vn -0.3827 0.0000 -0.9239
s off
f 32/1/1 25/2/1 33/3/1 40/4/1
f 30/5/2 31/6/2 39/7/2 38/8/2
f 28/9/3 29/10/3 37/11/3 36/12/3
f 26/13/4 27/14/4 35/15/4 34/16/4
f 31/6/5 32/1/5 40/4/5 39/7/5
f 29/10/6 30/5/6 38/8/6 37/11/6
f 27/14/7 28/9/7 36/12/7 35/15/7
f 25/2/8 26/13/8 34/16/8 33/3/8
f 20/17/9 21/18/9 45/19/9 47/20/9
f 22/21/10 23/22/10 43/23/10 46/24/10
f 24/25/11 17/26/11 48/27/11 44/28/11
f 17/26/12 18/29/12 41/30/12 48/27/12
f 19/31/13 20/17/13 47/20/13 42/32/13
f 21/18/14 22/21/14 46/24/14 45/19/14
f 23/22/15 24/25/15 44/28/15 43/23/15
f 18/29/16 19/31/16 42/32/16 41/30/16
f 10/33/17 11/34/17 53/35/17 56/36/17
f 12/37/18 13/38/18 51/39/18 54/40/18
f 14/41/19 15/42/19 49/43/19 52/44/19
f 16/45/20 9/46/20 55/47/20 50/48/20
f 9/46/21 10/33/21 56/36/21 55/47/21
f 11/34/22 12/37/22 54/40/22 53/35/22
f 13/38/23 14/41/23 52/44/23 51/39/23
f 15/42/24 16/45/24 50/48/24 49/43/24
f 6/49/25 7/50/25 61/51/25 63/52/25
f 8/53/26 1/54/26 64/55/26 62/56/26
f 1/54/27 2/57/27 59/58/27 64/55/27
f 3/59/28 4/60/28 57/61/28 60/62/28
f 5/63/29 6/49/29 63/52/29 58/64/29
f 7/50/30 8/53/30 62/56/30 61/51/30
f 2/57/31 3/59/31 60/62/31 59/58/31
f 4/60/32 5/63/32 58/64/32 57/61/32
f 129/65/33 131/66/33 132/67/33 133/68/33 134/69/33 135/70/33 136/71/33 130/72/33
f 153/73/34 154/74/34 160/75/34 159/76/34 158/77/34 157/78/34 156/79/34 155/80/34
f 32/81/35 31/82/35 95/83/35 96/84/35
f 62/85/36 64/86/36 112/87/36 75/88/36
f 43/89/37 44/90/37 98/91/37 102/92/37
f 50/93/38 55/94/38 108/95/38 85/96/38
f 31/97/39 30/98/39 94/99/39 95/100/39
f 63/101/40 61/102/40 111/103/40 76/104/40
f 45/105/41 46/106/41 99/107/41 103/108/41
f 17/26/42 24/25/42 84/109/42 78/110/42
f 52/111/43 49/112/43 105/113/43 86/114/43
f 30/98/44 29/115/44 93/116/44 94/99/44
f 42/117/45 47/118/45 100/119/45 97/120/45
f 24/25/46 23/22/46 83/121/46 84/109/46
f 54/122/47 51/123/47 106/124/47 87/125/47
f 29/115/48 28/126/48 92/127/48 93/116/48
f 48/128/49 41/129/49 101/130/49 104/131/49
f 23/22/50 22/21/50 82/132/50 83/133/50
f 56/134/51 53/135/51 107/136/51 88/137/51
f 28/126/52 27/138/52 91/139/52 92/127/52
f 9/140/53 16/141/53 72/142/53 66/143/53
f 44/90/54 48/128/54 104/131/54 98/91/54
f 22/21/55 21/18/55 81/144/55 82/132/55
f 27/138/56 26/145/56 89/146/56 91/139/56
f 16/141/57 15/147/57 71/148/57 72/142/57
f 46/106/58 43/149/58 102/150/58 99/107/58
f 109/151/32 73/152/32 69/153/32 68/154/32
f 110/155/31 74/156/31 67/157/31 65/158/31
f 111/159/30 75/88/30 72/142/30 71/148/30
f 73/152/29 76/104/29 70/160/29 69/153/29
f 74/156/28 109/151/28 68/154/28 67/157/28
f 112/87/27 110/155/27 65/158/27 66/143/27
f 75/88/26 112/87/26 66/143/26 72/142/26
f 76/104/25 111/103/25 71/161/25 70/160/25
f 105/162/24 85/96/24 84/163/24 83/164/24
f 106/124/23 86/114/23 82/165/23 81/166/23
f 107/136/22 87/125/22 80/167/22 79/168/22
f 108/95/21 88/137/21 77/169/21 78/170/21
f 85/96/20 108/95/20 78/170/20 84/163/20
f 86/114/19 105/113/19 83/171/19 82/165/19
f 87/125/18 106/124/18 81/166/18 80/167/18
f 88/137/17 107/136/17 79/168/17 77/169/17
f 101/130/16 97/120/16 91/139/16 89/146/16
f 102/92/15 98/91/15 96/84/15 95/83/15
f 103/108/14 99/107/14 94/99/14 93/116/14
f 97/120/13 100/119/13 92/127/13 91/139/13
f 104/131/12 101/130/12 89/146/12 90/172/12
f 98/91/11 104/131/11 90/172/11 96/84/11
f 99/107/10 102/150/10 95/100/10 94/99/10
f 100/119/9 103/108/9 93/116/9 92/127/9
f 55/94/59 56/134/59 88/137/59 108/95/59
f 41/129/60 42/117/60 97/120/60 101/130/60
f 64/86/61 59/173/61 110/155/61 112/87/61
f 25/174/62 32/81/62 96/84/62 90/172/62
f 53/135/63 54/122/63 87/125/63 107/136/63
f 60/175/64 57/176/64 109/151/64 74/156/64
f 10/177/65 9/140/65 66/143/65 65/158/65
f 51/123/66 52/111/66 86/114/66 106/124/66
f 58/178/67 63/101/67 76/104/67 73/152/67
f 11/179/68 10/177/68 65/158/68 67/157/68
f 49/180/69 50/93/69 85/96/69 105/162/69
f 61/181/70 62/85/70 75/88/70 111/159/70
f 12/182/71 11/179/71 67/157/71 68/154/71
f 18/29/72 17/26/72 78/110/72 77/183/72
f 59/173/73 60/175/73 74/156/73 110/155/73
f 13/184/74 12/182/74 68/154/74 69/153/74
f 19/31/75 18/29/75 77/183/75 79/185/75
f 57/176/76 58/178/76 73/152/76 109/151/76
f 14/186/77 13/184/77 69/153/77 70/160/77
f 20/17/78 19/31/78 79/185/78 80/187/78
f 47/118/79 45/105/79 103/108/79 100/119/79
f 15/188/80 14/186/80 70/160/80 71/161/80
f 26/145/81 25/174/81 90/172/81 89/146/81
f 21/18/82 20/17/82 80/187/82 81/144/82
f 40/189/83 33/190/83 122/191/83 128/192/83
f 116/193/83 117/194/83 133/195/83 132/196/83
f 38/197/84 39/198/84 127/199/84 126/200/84
f 36/201/85 37/202/85 125/203/85 124/204/85
f 34/205/86 35/206/86 123/207/86 121/208/86
f 39/209/87 40/189/87 128/192/87 127/210/87
f 37/202/88 38/197/88 126/200/88 125/203/88
f 35/206/89 36/201/89 124/204/89 123/207/89
f 33/190/90 34/205/90 121/208/90 122/191/90
f 113/211/33 114/212/33 122/191/33 121/208/33
f 115/213/33 113/211/33 121/208/33 123/207/33
f 116/193/33 115/213/33 123/207/33 124/204/33
f 117/194/33 116/193/33 124/204/33 125/203/33
f 118/214/33 117/194/33 125/203/33 126/200/33
f 119/215/33 118/214/33 126/200/33 127/199/33
f 120/216/33 119/217/33 127/210/33 128/192/33
f 114/212/33 120/216/33 128/192/33 122/191/33
f 113/211/84 115/213/84 131/218/84 129/219/84
f 119/217/89 120/216/89 136/220/89 135/221/89
f 117/194/90 118/214/90 134/222/90 133/195/90
f 115/213/87 116/193/87 132/196/87 131/218/87
f 114/212/88 113/211/88 129/219/88 130/223/88
f 120/216/85 114/212/85 130/223/85 136/220/85
f 118/214/86 119/215/86 135/224/86 134/222/86
f 1/225/83 8/226/83 152/227/83 146/228/83
f 142/229/90 141/230/90 157/231/90 158/232/90
f 7/233/84 6/234/84 150/235/84 151/236/84
f 5/237/85 4/238/85 148/239/85 149/240/85
f 3/241/86 2/242/86 145/243/86 147/244/86
f 8/226/87 7/245/87 151/246/87 152/227/87
f 6/234/88 5/237/88 149/240/88 150/235/88
f 4/238/89 3/241/89 147/244/89 148/239/89
f 2/242/90 1/225/90 146/228/90 145/243/90
f 138/247/34 137/248/34 145/243/34 146/228/34
f 137/248/34 139/249/34 147/244/34 145/243/34
f 139/249/34 140/250/34 148/239/34 147/244/34
f 140/250/34 141/230/34 149/240/34 148/239/34
f 141/230/34 142/229/34 150/235/34 149/240/34
f 142/229/34 143/251/34 151/236/34 150/235/34
f 143/252/34 144/253/34 152/227/34 151/246/34
f 144/253/34 138/247/34 146/228/34 152/227/34
f 140/250/87 139/249/87 155/254/87 156/255/87
f 137/248/88 138/247/88 154/256/88 153/257/88
f 138/247/85 144/253/85 160/258/85 154/256/85
f 143/251/86 142/229/86 158/232/86 159/259/86
f 141/230/83 140/250/83 156/255/83 157/231/83
f 139/249/84 137/248/84 153/257/84 155/254/84
f 144/253/89 143/252/89 159/260/89 160/258/89
