# Blender v2.79 (sub 0) OBJ File: 'Dungeon.blend'
# www.blender.org
o Plane.002_Plane.004
v -5.545187 46.644283 62.344398
v -5.545187 47.108837 62.344398
v -5.545187 46.644283 61.739815
v -5.545187 47.108837 61.739815
v -18.659235 45.000000 62.701344
v -17.340765 45.000000 62.701344
v -18.659235 45.000000 61.382870
v -17.340765 45.000000 61.382870
v -18.659235 48.828064 61.382870
v -18.659235 48.828064 62.701344
v -17.340765 48.828064 62.701344
v -17.340765 48.828064 61.382870
v -17.195915 45.025169 62.253708
v -16.772713 45.025169 62.253708
v -17.195915 45.025169 61.830505
v -16.772713 45.025169 61.830505
v -17.195915 47.524349 61.830505
v -17.195915 47.524349 62.253708
v -16.772713 47.524349 62.253708
v -16.772713 47.524349 61.830505
v -17.033087 48.744881 61.993336
v -17.033087 48.744881 62.090878
v -16.935541 48.744881 62.090878
v -16.935541 48.744881 61.993336
v -16.180229 45.025169 62.253708
v -15.757027 45.025169 62.253708
v -16.180229 45.025169 61.830505
v -15.757027 45.025169 61.830505
v -16.180229 47.524349 61.830505
v -16.180229 47.524349 62.253708
v -15.757027 47.524349 62.253708
v -15.757027 47.524349 61.830505
v -16.017401 48.744881 61.993336
v -16.017401 48.744881 62.090878
v -15.919855 48.744881 62.090878
v -15.919855 48.744881 61.993336
v -15.164543 45.025169 62.253708
v -14.741341 45.025169 62.253708
v -15.164543 45.025169 61.830505
v -14.741341 45.025169 61.830505
v -15.164543 47.524349 61.830505
v -15.164543 47.524349 62.253708
v -14.741341 47.524349 62.253708
v -14.741341 47.524349 61.830505
v -15.001715 48.744881 61.993336
v -15.001715 48.744881 62.090878
v -14.904169 48.744881 62.090878
v -14.904169 48.744881 61.993336
v -14.148857 45.025169 62.253708
v -13.725655 45.025169 62.253708
v -14.148857 45.025169 61.830505
v -13.725655 45.025169 61.830505
v -14.148857 47.524349 61.830505
v -14.148857 47.524349 62.253708
v -13.725655 47.524349 62.253708
v -13.725655 47.524349 61.830505
v -13.986029 48.744881 61.993336
v -13.986029 48.744881 62.090878
v -13.888483 48.744881 62.090878
v -13.888483 48.744881 61.993336
v -13.133171 45.025169 62.253708
v -12.709969 45.025169 62.253708
v -13.133171 45.025169 61.830505
v -12.709969 45.025169 61.830505
v -13.133171 47.524349 61.830505
v -13.133171 47.524349 62.253708
v -12.709969 47.524349 62.253708
v -12.709969 47.524349 61.830505
v -12.970343 48.744881 61.993336
v -12.970343 48.744881 62.090878
v -12.872797 48.744881 62.090878
v -12.872797 48.744881 61.993336
v -12.117485 45.025169 62.253708
v -11.694283 45.025169 62.253708
v -12.117485 45.025169 61.830505
v -11.694283 45.025169 61.830505
v -12.117485 47.524349 61.830505
v -12.117485 47.524349 62.253708
v -11.694283 47.524349 62.253708
v -11.694283 47.524349 61.830505
v -11.954657 48.744881 61.993336
v -11.954657 48.744881 62.090878
v -11.857111 48.744881 62.090878
v -11.857111 48.744881 61.993336
v -11.101799 45.025169 62.253708
v -10.678596 45.025169 62.253708
v -11.101799 45.025169 61.830505
v -10.678596 45.025169 61.830505
v -11.101799 47.524349 61.830505
v -11.101799 47.524349 62.253708
v -10.678596 47.524349 62.253708
v -10.678596 47.524349 61.830505
v -10.938971 48.744881 61.993336
v -10.938971 48.744881 62.090878
v -10.841425 48.744881 62.090878
v -10.841425 48.744881 61.993336
v -10.086113 45.025169 62.253708
v -9.662910 45.025169 62.253708
v -10.086113 45.025169 61.830505
v -9.662910 45.025169 61.830505
v -10.086113 47.524349 61.830505
v -10.086113 47.524349 62.253708
v -9.662910 47.524349 62.253708
v -9.662910 47.524349 61.830505
v -9.923285 48.744881 61.993336
v -9.923285 48.744881 62.090878
v -9.825739 48.744881 62.090878
v -9.825739 48.744881 61.993336
v -9.070427 45.025169 62.253708
v -8.647224 45.025169 62.253708
v -9.070427 45.025169 61.830505
v -8.647224 45.025169 61.830505
v -9.070427 47.524349 61.830505
v -9.070427 47.524349 62.253708
v -8.647224 47.524349 62.253708
v -8.647224 47.524349 61.830505
v -8.907598 48.744881 61.993336
v -8.907598 48.744881 62.090878
v -8.810053 48.744881 62.090878
v -8.810053 48.744881 61.993336
v -8.054741 45.025169 62.253708
v -7.631538 45.025169 62.253708
v -8.054741 45.025169 61.830505
v -7.631538 45.025169 61.830505
v -8.054741 47.524349 61.830505
v -8.054741 47.524349 62.253708
v -7.631538 47.524349 62.253708
v -7.631538 47.524349 61.830505
v -7.891912 48.744881 61.993336
v -7.891912 48.744881 62.090878
v -7.794367 48.744881 62.090878
v -7.794367 48.744881 61.993336
v -7.039055 45.025169 62.253708
v -6.615852 45.025169 62.253708
v -7.039055 45.025169 61.830505
v -6.615852 45.025169 61.830505
v -7.039055 47.524349 61.830505
v -7.039055 47.524349 62.253708
v -6.615852 47.524349 62.253708
v -6.615852 47.524349 61.830505
v -6.876226 48.744881 61.993336
v -6.876226 48.744881 62.090878
v -6.778681 48.744881 62.090878
v -6.778681 48.744881 61.993336
v -6.023369 45.025169 62.253708
v -5.600166 45.025169 62.253708
v -6.023369 45.025169 61.830505
v -5.600166 45.025169 61.830505
v -6.023369 47.524349 61.830505
v -6.023369 47.524349 62.253708
v -5.600166 47.524349 62.253708
v -5.600166 47.524349 61.830505
v -5.860540 48.744881 61.993336
v -5.860540 48.744881 62.090878
v -5.762995 48.744881 62.090878
v -5.762995 48.744881 61.993336
v -5.600166 46.644283 61.830505
v -6.023369 46.644283 61.830505
v -5.600166 46.644283 62.253708
v -6.023369 46.644283 62.253708
v -7.039055 46.644283 61.830505
v -7.039055 46.644283 62.253708
v -6.615852 46.644283 61.830505
v -6.615852 46.644283 62.253708
v -8.054741 46.644283 62.253708
v -7.631538 46.644283 62.253708
v -9.070427 46.644283 62.253708
v -9.662910 46.644283 62.253708
v -10.678596 46.644283 62.253708
v -11.101799 46.644283 62.003155
v -11.101799 46.644283 62.253708
v -11.694283 46.644283 62.253708
v -8.647224 46.644283 62.253708
v -10.086113 46.644283 61.955017
v -10.086113 46.644283 62.253708
v -10.678596 46.644283 61.983097
v -12.117485 46.644283 62.253708
v -12.117485 46.644283 62.051289
v -12.709969 46.644283 62.253708
v -13.725655 46.644283 62.253708
v -14.148858 46.644283 62.147560
v -14.148857 46.644283 62.253708
v -15.164543 46.644283 62.253708
v -14.741341 46.644283 62.253708
v -12.709969 46.644283 62.079369
v -13.133171 46.644283 62.099422
v -13.133171 46.644283 62.253708
v -11.694283 46.644283 62.031231
v -14.741341 46.644283 62.175636
v -15.757027 46.644283 62.253708
v -16.180229 46.644283 62.253708
v -16.180229 46.644283 62.243828
v -17.340765 46.644283 62.344398
v -7.631538 46.644283 61.830505
v -8.054741 46.644283 61.830505
v -9.662910 46.644283 61.830505
v -9.070427 46.644283 61.830505
v -11.101799 46.644283 61.830505
v -10.086113 46.644283 61.830505
v -8.647224 46.644283 61.830505
v -10.678596 46.644283 61.830505
v -12.117485 46.644283 61.830505
v -14.148857 46.644283 61.830505
v -15.164543 46.644283 61.830505
v -12.709969 46.644283 61.830505
v -13.725655 46.644283 62.104679
v -13.133171 46.644283 61.830505
v -13.725655 46.644283 61.830505
v -11.694283 46.644283 61.830505
v -14.741341 46.644283 61.830505
v -16.180229 46.644283 61.830505
v -15.757027 46.644283 61.830505
v -16.772713 46.644283 61.830505
v -16.772713 46.644283 62.253708
v -17.195915 46.644283 61.830505
v -17.195915 46.644283 62.253708
v -17.340765 46.644283 61.739815
v -17.340765 47.108837 62.344398
v -5.600166 47.108837 61.830505
v -6.023369 47.108837 61.830505
v -5.600166 47.108837 62.253708
v -6.023369 47.108837 62.253708
v -7.039055 47.108837 61.830505
v -7.039055 47.108837 62.253708
v -6.615852 47.108837 61.830505
v -6.615852 47.108837 62.253708
v -7.631538 47.108837 61.830505
v -8.054741 47.108837 61.830505
v -9.662910 47.108837 61.830505
v -9.070427 47.108837 61.830505
v -11.101799 47.108837 61.830505
v -10.086113 47.108837 61.830505
v -8.647224 47.108837 61.830505
v -10.678596 47.108837 61.830505
v -12.117485 47.108837 61.830505
v -14.148857 47.108837 61.830505
v -15.164543 47.108837 61.830505
v -12.709969 47.108837 61.830505
v -13.133171 47.108837 61.830505
v -13.725655 47.108837 61.830505
v -11.694283 47.108837 61.830505
v -14.741341 47.108837 61.830505
v -16.180229 47.108837 61.830505
v -15.757027 47.108837 61.830505
v -17.340765 47.108837 61.739815
v -8.054741 47.108837 62.253708
v -7.631538 47.108837 62.253708
v -9.070427 47.108837 62.253708
v -9.662910 47.108837 62.253708
v -10.678596 47.108837 62.253708
v -11.101799 47.108837 62.253708
v -11.694283 47.108837 62.253708
v -8.647224 47.108837 62.253708
v -10.086113 47.108837 62.253708
v -12.117485 47.108837 62.253708
v -12.709969 47.108837 62.253708
v -13.725655 47.108837 62.253708
v -14.148857 47.108837 62.253708
v -15.164543 47.108837 62.253708
v -14.741341 47.108837 62.253708
v -13.133171 47.108837 62.253708
v -15.757027 47.108837 62.253708
v -16.180229 47.108837 62.253708
v -16.772713 47.108837 61.830505
v -16.772713 47.108837 62.253708
v -17.195915 47.108837 61.830505
v -17.195915 47.108837 62.253708
vn 1.0000 0.0000 0.0000
vn 0.0000 0.0000 1.0000
vn 0.0000 1.0000 0.0008
vn 0.0000 -1.0000 0.0000
vn 0.0000 1.0000 0.0000
vn -1.0000 0.0000 0.0000
vn 0.0000 0.0000 -1.0000
vn 0.0000 0.1322 -0.9912
vn 0.0000 0.1322 0.9912
vn 0.9912 0.1322 0.0000
vn -0.9912 0.1322 0.0000
vn 0.0000 1.0000 -0.0011
vn 0.0000 -1.0000 0.0001
vn 0.0000 -1.0000 -0.0011
vn 0.0000 1.0000 0.0001
vn 0.0000 1.0000 -0.0001
vn 0.0000 1.0000 -0.0016
vn 0.0000 1.0000 -0.0003
vn 0.0000 1.0000 0.0011
vn 0.0000 1.0000 0.0002
vn 0.0000 1.0000 -0.0008
vn 0.0000 1.0000 0.0016
vn 0.0000 1.0000 -0.0005
vn 0.0000 -1.0000 -0.0001
vn 0.0000 -1.0000 -0.0002
vn 0.0000 -1.0000 -0.0004
vn 0.0000 -1.0000 0.0008
vn 0.0000 -1.0000 -0.0006
vn 0.0000 -1.0000 0.0004
vn 0.0000 -1.0000 -0.0016
vn 0.0000 -1.0000 0.0011
vn 0.0000 -1.0000 -0.0008
vn 0.0000 -1.0000 0.0006
vn 0.0000 -1.0000 0.0002
vn 0.0000 -1.0000 0.0010
s off
f 4//1 1//1 3//1
f 2//2 193//2 1//2
f 249//3 254//3 2//3
f 7//4 6//4 5//4
f 11//5 9//5 10//5
f 218//1 12//1 11//1
f 5//6 9//6 7//6
f 7//7 12//7 8//7
f 6//2 10//2 5//2
f 15//4 14//4 13//4
f 17//8 24//8 20//8
f 16//1 214//1 14//1
f 13//6 215//6 15//6
f 15//7 213//7 16//7
f 14//2 216//2 13//2
f 23//5 21//5 22//5
f 19//9 22//9 18//9
f 20//10 23//10 19//10
f 18//11 21//11 17//11
f 27//4 26//4 25//4
f 32//8 33//8 36//8
f 28//1 190//1 26//1
f 25//6 191//6 192//6
f 27//7 212//7 28//7
f 26//2 191//2 25//2
f 35//5 33//5 34//5
f 31//9 34//9 30//9
f 32//10 35//10 31//10
f 30//11 33//11 29//11
f 39//4 38//4 37//4
f 41//8 48//8 44//8
f 40//1 210//1 189//1
f 39//6 183//6 204//6
f 39//7 210//7 40//7
f 38//2 183//2 37//2
f 47//5 45//5 46//5
f 43//9 46//9 42//9
f 44//10 47//10 43//10
f 42//11 45//11 41//11
f 51//4 50//4 49//4
f 53//8 60//8 56//8
f 52//1 208//1 206//1
f 49//6 182//6 181//6
f 51//7 208//7 52//7
f 50//2 182//2 49//2
f 59//5 57//5 58//5
f 55//9 58//9 54//9
f 56//10 59//10 55//10
f 54//11 57//11 53//11
f 63//4 62//4 61//4
f 65//8 72//8 68//8
f 64//1 205//1 185//1
f 61//6 187//6 186//6
f 63//7 205//7 64//7
f 62//2 187//2 61//2
f 71//5 69//5 70//5
f 67//9 70//9 66//9
f 68//10 71//10 67//10
f 66//11 69//11 65//11
f 75//4 74//4 73//4
f 77//8 84//8 80//8
f 76//1 209//1 188//1
f 73//6 177//6 178//6
f 75//7 209//7 76//7
f 74//2 177//2 73//2
f 83//5 81//5 82//5
f 79//9 82//9 78//9
f 80//10 83//10 79//10
f 78//11 81//11 77//11
f 87//4 86//4 85//4
f 89//8 96//8 92//8
f 88//1 201//1 176//1
f 85//6 171//6 170//6
f 87//7 201//7 88//7
f 86//2 171//2 85//2
f 95//5 93//5 94//5
f 91//9 94//9 90//9
f 92//10 95//10 91//10
f 90//11 93//11 89//11
f 99//4 98//4 97//4
f 101//8 108//8 104//8
f 100//1 168//1 98//1
f 97//6 175//6 174//6
f 99//7 196//7 100//7
f 98//2 175//2 97//2
f 107//5 105//5 106//5
f 103//9 106//9 102//9
f 104//10 107//10 103//10
f 102//11 105//11 101//11
f 111//4 110//4 109//4
f 113//8 120//8 116//8
f 112//1 173//1 110//1
f 111//6 167//6 197//6
f 111//7 200//7 112//7
f 110//2 167//2 109//2
f 119//5 117//5 118//5
f 115//9 118//9 114//9
f 116//10 119//10 115//10
f 114//11 117//11 113//11
f 123//4 122//4 121//4
f 125//8 132//8 128//8
f 124//1 166//1 122//1
f 123//6 165//6 195//6
f 123//7 194//7 124//7
f 122//2 165//2 121//2
f 131//5 129//5 130//5
f 127//9 130//9 126//9
f 128//10 131//10 127//10
f 126//11 129//11 125//11
f 135//4 134//4 133//4
f 137//8 144//8 140//8
f 136//1 164//1 134//1
f 133//6 161//6 135//6
f 135//7 163//7 136//7
f 134//2 162//2 133//2
f 143//5 141//5 142//5
f 139//9 142//9 138//9
f 140//10 143//10 139//10
f 138//11 141//11 137//11
f 147//4 146//4 145//4
f 149//8 156//8 152//8
f 148//1 159//1 146//1
f 145//6 158//6 147//6
f 147//7 157//7 148//7
f 146//2 160//2 145//2
f 155//5 153//5 154//5
f 151//9 154//9 150//9
f 152//10 155//10 151//10
f 150//11 153//11 149//11
f 234//1 91//1 250//1
f 250//2 90//2 251//2
f 260//2 42//2 259//2
f 241//12 231//12 4//12
f 264//1 19//1 265//1
f 262//2 30//2 263//2
f 236//7 56//7 240//7
f 225//1 139//1 226//1
f 247//2 126//2 246//2
f 231//6 90//6 89//6
f 232//6 102//6 101//6
f 265//2 18//2 267//2
f 266//7 20//7 264//7
f 226//2 138//2 224//2
f 267//6 17//6 266//6
f 242//1 43//1 260//1
f 230//6 114//6 113//6
f 236//6 54//6 53//6
f 256//2 66//2 261//2
f 230//7 116//7 233//7
f 224//6 137//6 223//6
f 249//2 102//2 254//2
f 220//7 152//7 219//7
f 227//1 127//1 247//1
f 232//7 104//7 229//7
f 239//6 66//6 65//6
f 252//2 78//2 255//2
f 222//6 149//6 220//6
f 235//6 78//6 77//6
f 223//7 140//7 225//7
f 238//1 67//1 256//1
f 237//7 44//7 242//7
f 243//6 30//6 29//6
f 245//7 3//7 217//7
f 240//1 55//1 257//1
f 253//2 114//2 248//2
f 221//2 150//2 222//2
f 193//13 179//13 177//13
f 198//14 209//14 3//14
f 233//1 115//1 253//1
f 237//6 42//6 41//6
f 244//1 31//1 262//1
f 217//1 6//1 8//1
f 243//7 32//7 244//7
f 235//7 80//7 241//7
f 231//7 92//7 234//7
f 241//1 79//1 252//1
f 228//7 128//7 227//7
f 219//1 151//1 221//1
f 228//6 126//6 125//6
f 257//2 54//2 258//2
f 239//7 68//7 238//7
f 229//1 103//1 249//1
f 4//1 2//1 1//1
f 2//2 218//2 193//2
f 2//5 4//5 219//5
f 2//5 219//5 221//5
f 267//15 218//15 265//15
f 218//5 2//5 252//5
f 265//5 218//5 263//5
f 243//5 264//5 265//5
f 263//5 218//5 262//5
f 2//5 221//5 222//5
f 222//5 220//5 225//5
f 222//5 225//5 226//5
f 263//5 243//5 265//5
f 237//5 244//5 262//5
f 262//5 218//5 259//5
f 259//5 237//5 262//5
f 259//5 218//5 260//5
f 2//16 222//16 226//16
f 224//5 223//5 227//5
f 2//16 226//16 224//16
f 260//5 218//5 258//5
f 236//5 242//5 260//5
f 258//5 218//5 257//5
f 224//5 227//5 247//5
f 258//5 236//5 260//5
f 239//5 240//5 257//5
f 257//5 218//5 261//5
f 261//5 239//5 257//5
f 261//3 218//3 256//3
f 2//5 224//5 247//5
f 246//5 228//5 233//5
f 2//15 247//15 246//15
f 256//5 218//5 255//5
f 235//5 238//5 256//5
f 255//17 218//17 252//17
f 246//5 233//5 253//5
f 255//5 235//5 256//5
f 231//5 241//5 252//5
f 251//5 231//5 252//5
f 2//5 246//5 253//5
f 248//5 230//5 229//5
f 2//18 253//18 248//18
f 251//19 252//19 2//19
f 232//5 234//5 250//5
f 250//5 251//5 2//5
f 248//5 229//5 249//5
f 254//5 232//5 250//5
f 2//5 248//5 249//5
f 254//5 250//5 2//5
f 7//4 8//4 6//4
f 11//5 12//5 9//5
f 11//1 6//1 218//1
f 6//1 193//1 218//1
f 218//1 245//1 12//1
f 5//6 10//6 9//6
f 7//7 9//7 12//7
f 6//2 11//2 10//2
f 15//4 16//4 14//4
f 17//8 21//8 24//8
f 16//1 213//1 214//1
f 13//6 216//6 215//6
f 15//7 215//7 213//7
f 14//2 214//2 216//2
f 23//5 24//5 21//5
f 19//9 23//9 22//9
f 20//10 24//10 23//10
f 18//11 22//11 21//11
f 27//4 28//4 26//4
f 32//8 29//8 33//8
f 28//1 212//1 190//1
f 211//6 27//6 192//6
f 27//6 25//6 192//6
f 27//7 211//7 212//7
f 26//2 190//2 191//2
f 35//5 36//5 33//5
f 31//9 35//9 34//9
f 32//10 36//10 35//10
f 30//11 34//11 33//11
f 39//4 40//4 38//4
f 41//8 45//8 48//8
f 184//1 38//1 189//1
f 38//1 40//1 189//1
f 39//6 37//6 183//6
f 39//7 204//7 210//7
f 38//2 184//2 183//2
f 47//5 48//5 45//5
f 43//9 47//9 46//9
f 44//10 48//10 47//10
f 42//11 46//11 45//11
f 51//4 52//4 50//4
f 53//8 57//8 60//8
f 180//1 50//1 206//1
f 50//1 52//1 206//1
f 203//6 51//6 181//6
f 51//6 49//6 181//6
f 51//7 203//7 208//7
f 50//2 180//2 182//2
f 59//5 60//5 57//5
f 55//9 59//9 58//9
f 56//10 60//10 59//10
f 54//11 58//11 57//11
f 63//4 64//4 62//4
f 65//8 69//8 72//8
f 179//1 62//1 185//1
f 62//1 64//1 185//1
f 207//6 63//6 186//6
f 63//6 61//6 186//6
f 63//7 207//7 205//7
f 62//2 179//2 187//2
f 71//5 72//5 69//5
f 67//9 71//9 70//9
f 68//10 72//10 71//10
f 66//11 70//11 69//11
f 75//4 76//4 74//4
f 77//8 81//8 84//8
f 172//1 74//1 188//1
f 74//1 76//1 188//1
f 202//6 75//6 178//6
f 75//6 73//6 178//6
f 75//7 202//7 209//7
f 74//2 172//2 177//2
f 83//5 84//5 81//5
f 79//9 83//9 82//9
f 80//10 84//10 83//10
f 78//11 82//11 81//11
f 87//4 88//4 86//4
f 89//8 93//8 96//8
f 169//1 86//1 176//1
f 86//1 88//1 176//1
f 198//6 87//6 170//6
f 87//6 85//6 170//6
f 87//7 198//7 201//7
f 86//2 169//2 171//2
f 95//5 96//5 93//5
f 91//9 95//9 94//9
f 92//10 96//10 95//10
f 90//11 94//11 93//11
f 99//4 100//4 98//4
f 101//8 105//8 108//8
f 100//1 196//1 168//1
f 199//6 99//6 174//6
f 99//6 97//6 174//6
f 99//7 199//7 196//7
f 98//2 168//2 175//2
f 107//5 108//5 105//5
f 103//9 107//9 106//9
f 104//10 108//10 107//10
f 102//11 106//11 105//11
f 111//4 112//4 110//4
f 113//8 117//8 120//8
f 112//1 200//1 173//1
f 111//6 109//6 167//6
f 111//7 197//7 200//7
f 110//2 173//2 167//2
f 119//5 120//5 117//5
f 115//9 119//9 118//9
f 116//10 120//10 119//10
f 114//11 118//11 117//11
f 123//4 124//4 122//4
f 125//8 129//8 132//8
f 124//1 194//1 166//1
f 123//6 121//6 165//6
f 123//7 195//7 194//7
f 122//2 166//2 165//2
f 131//5 132//5 129//5
f 127//9 131//9 130//9
f 128//10 132//10 131//10
f 126//11 130//11 129//11
f 135//4 136//4 134//4
f 137//8 141//8 144//8
f 136//1 163//1 164//1
f 133//6 162//6 161//6
f 135//7 161//7 163//7
f 134//2 164//2 162//2
f 143//5 144//5 141//5
f 139//9 143//9 142//9
f 140//10 144//10 143//10
f 138//11 142//11 141//11
f 147//4 148//4 146//4
f 149//8 153//8 156//8
f 148//1 157//1 159//1
f 145//6 160//6 158//6
f 147//7 158//7 157//7
f 146//2 159//2 160//2
f 155//5 156//5 153//5
f 151//9 155//9 154//9
f 152//10 156//10 155//10
f 150//11 154//11 153//11
f 234//1 92//1 91//1
f 250//2 91//2 90//2
f 260//2 43//2 42//2
f 245//5 218//5 267//5
f 266//16 264//16 245//16
f 264//5 243//5 245//5
f 245//5 267//5 266//5
f 219//5 4//5 220//5
f 4//5 245//5 241//5
f 220//15 4//15 225//15
f 223//20 225//20 4//20
f 223//5 4//5 227//5
f 244//5 237//5 245//5
f 237//5 242//5 245//5
f 245//16 243//16 244//16
f 227//5 4//5 228//5
f 233//5 228//5 4//5
f 233//5 4//5 230//5
f 236//5 240//5 245//5
f 240//5 239//5 245//5
f 245//5 242//5 236//5
f 230//5 4//5 229//5
f 232//21 229//21 4//21
f 232//5 4//5 234//5
f 238//5 235//5 245//5
f 235//22 241//22 245//22
f 245//23 239//23 238//23
f 234//5 4//5 231//5
f 264//1 20//1 19//1
f 262//2 31//2 30//2
f 236//7 53//7 56//7
f 225//1 140//1 139//1
f 247//2 127//2 126//2
f 231//6 251//6 90//6
f 232//6 254//6 102//6
f 265//2 19//2 18//2
f 266//7 17//7 20//7
f 226//2 139//2 138//2
f 267//6 18//6 17//6
f 242//1 44//1 43//1
f 230//6 248//6 114//6
f 236//6 258//6 54//6
f 256//2 67//2 66//2
f 230//7 113//7 116//7
f 224//6 138//6 137//6
f 249//2 103//2 102//2
f 220//7 149//7 152//7
f 227//1 128//1 127//1
f 232//7 101//7 104//7
f 239//6 261//6 66//6
f 252//2 79//2 78//2
f 222//6 150//6 149//6
f 235//6 255//6 78//6
f 223//7 137//7 140//7
f 238//1 68//1 67//1
f 237//7 41//7 44//7
f 243//6 263//6 30//6
f 245//7 4//7 3//7
f 240//1 56//1 55//1
f 253//2 115//2 114//2
f 221//2 151//2 150//2
f 193//4 217//4 215//4
f 193//4 215//4 216//4
f 159//24 1//24 160//24
f 1//4 193//4 172//4
f 160//4 1//4 164//4
f 163//4 158//4 160//4
f 164//4 1//4 162//4
f 193//24 216//24 214//24
f 214//4 192//4 191//4
f 190//4 212//4 204//4
f 193//13 214//13 191//13
f 190//4 204//4 183//4
f 193//25 191//25 190//25
f 164//4 163//4 160//4
f 194//4 161//4 162//4
f 162//4 1//4 166//4
f 166//4 194//4 162//4
f 166//26 1//26 165//26
f 193//13 190//13 183//13
f 184//4 189//4 182//4
f 189//4 181//4 182//4
f 193//25 183//25 184//25
f 165//4 1//4 173//4
f 200//4 195//4 165//4
f 173//27 1//27 167//27
f 173//4 200//4 165//4
f 196//4 197//4 167//4
f 167//28 1//28 168//28
f 168//4 196//4 167//4
f 168//27 1//27 175//27
f 193//29 184//29 182//29
f 180//4 206//4 187//4
f 206//4 186//4 187//4
f 193//25 182//25 180//25
f 175//4 1//4 169//4
f 176//4 174//4 175//4
f 169//30 1//30 171//30
f 169//4 176//4 175//4
f 188//4 170//4 171//4
f 171//31 1//31 172//31
f 172//4 188//4 171//4
f 193//13 180//13 187//13
f 179//4 185//4 177//4
f 185//4 178//4 177//4
f 193//25 187//25 179//25
f 177//4 172//4 193//4
f 3//4 1//4 159//4
f 157//13 158//13 3//13
f 158//4 163//4 3//4
f 3//4 159//4 157//4
f 215//13 217//13 213//13
f 217//4 3//4 209//4
f 213//4 217//4 211//4
f 192//4 214//4 213//4
f 211//29 217//29 212//29
f 161//4 194//4 3//4
f 194//29 195//29 3//29
f 3//4 163//4 161//4
f 211//4 192//4 213//4
f 210//29 204//29 217//29
f 204//4 212//4 217//4
f 210//28 217//28 203//28
f 200//32 197//32 3//32
f 197//33 196//33 3//33
f 3//34 195//34 200//34
f 203//4 217//4 208//4
f 181//4 189//4 210//4
f 203//4 181//4 210//4
f 199//4 174//4 201//4
f 174//4 176//4 201//4
f 3//28 196//28 199//28
f 208//4 217//4 207//4
f 186//4 206//4 208//4
f 207//4 217//4 205//4
f 207//4 186//4 208//4
f 178//4 185//4 205//4
f 205//4 217//4 202//4
f 202//4 178//4 205//4
f 202//4 217//4 209//4
f 3//24 199//24 201//24
f 198//4 170//4 209//4
f 170//4 188//4 209//4
f 3//35 201//35 198//35
f 233//1 116//1 115//1
f 237//6 259//6 42//6
f 244//1 32//1 31//1
f 8//1 12//1 245//1
f 217//1 193//1 6//1
f 8//1 245//1 217//1
f 243//7 29//7 32//7
f 235//7 77//7 80//7
f 231//7 89//7 92//7
f 241//1 80//1 79//1
f 228//7 125//7 128//7
f 219//1 152//1 151//1
f 228//6 246//6 126//6
f 257//2 55//2 54//2
f 239//7 65//7 68//7
f 229//1 104//1 103//1
