# Blender v2.79 (sub 0) OBJ File: 'Ship.blend'
# www.blender.org
o Plane
v -4.000000 0.308956 4.000000
v 4.000000 0.308956 4.000000
v -4.000000 0.308956 -5.000000
v 4.000000 0.308956 -5.000000
v -8.000000 2.000000 4.000000
v 8.000000 2.000000 4.000000
v -8.000000 2.000000 -4.000000
v 8.000000 2.000000 -4.000000
v -17.600000 -1.000000 1.600000
v 17.600000 -1.000000 1.600000
v -17.600000 -1.000000 -1.600000
v 17.600000 -1.000000 -1.600000
v -2.000000 0.308956 6.000000
v 2.000000 0.308956 6.000000
v 2.000000 0.308956 -4.000000
v -2.000000 0.308956 -4.000000
v -1.600000 0.308956 10.000000
v 1.600000 0.308956 10.000000
v -0.640000 0.308956 11.000000
v 0.640000 0.308956 11.000000
v -4.000000 0.941916 -5.000000
v -4.000000 0.941916 4.000000
v 2.000000 0.941916 6.000000
v 4.000000 0.941916 4.000000
v 4.000000 0.941916 -5.000000
v -2.000000 0.941916 -4.000000
v -8.000000 2.281912 -4.000000
v -8.000000 2.281912 4.000000
v 8.000000 2.281912 4.000000
v 8.000000 2.281912 -4.000000
v -17.600000 -0.718088 -1.600000
v -17.600000 -0.718088 1.600000
v 17.600000 -0.718088 1.600000
v 17.600000 -0.718088 -1.600000
v -2.000000 0.941916 6.000000
v 2.000000 0.941916 -4.000000
v -1.600000 0.941916 10.000000
v 1.600000 0.941916 10.000000
v -0.640000 0.941916 12.000000
v 0.640000 0.941916 12.000000
v -4.000000 2.587759 -5.000000
v -4.000000 2.587759 4.000000
v 1.200000 4.130243 6.000000
v 4.000000 2.587759 4.000000
v 4.000000 2.587759 -5.000000
v -2.000000 2.587759 -4.000000
v -1.200000 4.130243 6.000000
v 2.000000 2.587759 -4.000000
v -0.960000 3.130243 10.000000
v 0.960000 3.130243 10.000000
v -0.640000 1.738086 12.000000
v 0.640000 1.738086 12.000000
v 2.100000 0.308956 5.900000
v 2.100000 0.308956 -5.000000
v 2.100000 0.941916 5.900000
v 2.100000 0.941916 -5.000000
v 2.100000 2.587759 5.900000
v 2.100000 2.587759 -5.000000
v -2.100000 0.308956 -5.000000
v -2.100000 0.308956 5.900000
v -2.100000 0.941916 -5.000000
v -2.100000 0.941916 5.900000
v -2.100000 2.587759 -5.000000
v -2.100000 2.587759 5.900000
v 2.000000 2.536079 6.000000
v 4.000000 1.764838 4.000000
v 4.000000 1.764838 -5.000000
v 2.000000 1.764838 -4.000000
v 0.640000 1.340001 12.000000
v -0.640000 1.340001 12.000000
v -2.000000 1.764838 -4.000000
v 1.600000 2.036079 10.000000
v -2.000000 2.536079 6.000000
v -4.000000 1.764838 4.000000
v -4.000000 1.764838 -5.000000
v -1.600000 2.036079 10.000000
v 2.100000 1.764838 -5.000000
v 2.100000 1.764838 5.900000
v -2.100000 1.764838 -5.000000
v -2.100000 1.764838 5.900000
v -4.000000 0.308956 0.610742
v 4.000000 0.308956 0.610742
v -8.000000 2.000000 0.610742
v 8.000000 2.000000 0.610742
v -17.600000 -1.000000 0.244297
v 17.600000 -1.000000 0.244297
v -2.000000 0.308956 1.763428
v 2.000000 0.308956 1.763428
v -4.000000 0.941916 0.610742
v 4.000000 0.941916 0.610742
v -8.000000 2.281912 0.610742
v 8.000000 2.281912 0.610742
v -17.600000 -0.718088 0.244297
v 17.600000 -0.718088 0.244297
v -4.000000 2.587759 0.610742
v 4.000000 2.587759 0.610742
v -1.538926 3.476759 1.763428
v 1.538926 3.476759 1.763428
v 2.100000 2.587759 1.705794
v 2.100000 0.308956 1.705793
v -2.100000 2.587759 1.705794
v -2.100000 0.308956 1.705793
v -4.000000 1.764838 0.610742
v 4.000000 1.764838 0.610742
v 3.525000 3.587759 -1.389258
v 3.525000 3.587759 -5.000000
v -2.575000 3.587759 -5.000000
v -3.525000 3.587759 -5.000000
v 2.575000 3.587759 -5.000000
v 2.575000 3.587759 -0.294206
v -2.575000 3.587759 -0.294206
v -3.525000 3.587759 -1.389258
v -1.625000 0.100927 -6.040945
v -4.475000 0.100927 -6.040945
v -1.625000 0.833591 -6.040945
v -4.475000 0.833591 -6.040945
v 4.475000 1.786141 -6.040945
v 4.475000 0.833591 -6.040945
v 4.475000 0.100927 -6.040945
v -1.625000 2.738689 -6.040945
v -4.475000 2.738689 -6.040945
v -4.475000 1.786141 -6.040945
v 1.625000 0.100927 -6.040945
v 1.625000 0.833591 -6.040945
v 4.475000 2.738690 -6.040945
v 1.625000 2.738690 -6.040945
v 1.625000 1.786141 -6.040945
v -1.625000 1.786141 -6.040945
v -1.625000 3.896211 -6.040945
v -4.475000 3.896211 -6.040945
v 4.475000 3.896211 -6.040945
v 1.625000 3.896211 -6.040945
v -1.625000 0.100927 -6.384820
v -4.475000 0.100927 -6.384820
v -1.625000 0.833591 -6.384820
v -4.475000 0.833591 -6.384820
v 4.475000 1.786141 -6.384820
v 4.475000 0.833591 -6.384820
v 4.475000 0.100927 -6.384820
v -1.625000 2.738689 -6.384820
v -4.475000 2.738689 -6.384820
v -4.475000 1.786141 -6.384820
v 1.625000 0.100927 -6.384820
v 1.625000 0.833591 -6.384820
v 4.475000 2.738690 -6.384820
v 1.625000 2.738690 -6.384820
v 1.625000 1.786141 -6.384820
v -1.625000 1.786141 -6.384820
v -1.625000 3.896211 -6.384820
v -4.475000 3.896211 -6.384820
v 4.475000 3.896211 -6.384820
v 1.625000 3.896211 -6.384820
vt 0.279213 0.423413
vt 0.279529 0.413187
vt 0.280209 0.413076
vt 0.281213 0.416364
vt 0.281585 0.413199
vt 0.281721 0.413079
vt 0.294970 0.418532
vt 0.269838 0.418270
vt 0.268569 0.414912
vt 0.268820 0.414506
vt 0.270129 0.414292
vt 0.281572 0.413043
vt 0.281575 0.413044
vt 0.268541 0.414649
vt 0.268547 0.414647
vt 0.273488 0.424879
vt 0.270951 0.414178
vt 0.271414 0.415351
vt 0.274125 0.426927
vt 0.279304 0.414540
vt 0.279018 0.425584
vt 0.365044 0.484324
vt 0.379314 0.686266
vt 0.196182 0.685850
vt 0.201689 0.495580
vt 0.326425 0.750177
vt 0.247375 0.747806
vt 0.278342 0.412355
vt 0.271801 0.412932
vt 0.270549 0.411554
vt 0.279250 0.410712
vt 0.282311 0.411227
vt 0.295635 0.415865
vt 0.281722 0.413074
vt 0.281665 0.412907
vt 0.267393 0.412819
vt 0.270108 0.414072
vt 0.268816 0.414495
vt 0.268364 0.414468
vt 0.281575 0.413043
vt 0.281572 0.413042
vt 0.268547 0.414646
vt 0.268541 0.414648
vt 0.282217 0.410775
vt 0.280105 0.412564
vt 0.279987 0.412278
vt 0.282002 0.410213
vt 0.780138 0.200328
vt 0.801022 0.173957
vt 0.807310 0.182985
vt 0.789529 0.203630
vt 0.413011 0.417834
vt 0.296682 0.411318
vt 0.296003 0.407041
vt 0.447585 0.342286
vt 0.279329 0.412636
vt 0.279417 0.412277
vt 0.268191 0.414806
vt 0.256309 0.422872
vt 0.255101 0.420451
vt 0.268186 0.414793
vt 0.395139 0.466741
vt 0.418641 0.702359
vt 0.362785 0.479367
vt 0.388872 0.460771
vt 0.203098 0.490575
vt 0.173490 0.482726
vt 0.178626 0.477471
vt 0.158661 0.701383
vt 0.268538 0.414651
vt 0.268538 0.414650
vt 0.330171 0.826000
vt 0.244441 0.821898
vt 0.278560 0.413587
vt 0.279414 0.413017
vt 0.281567 0.413042
vt 0.281567 0.413041
vt 0.271948 0.414188
vt 0.281386 0.412988
vt 0.281387 0.412981
vt 0.280174 0.412879
vt 0.268265 0.400344
vt 0.270099 0.398274
vt 0.270650 0.413207
vt 0.277654 0.398102
vt 0.855041 0.207180
vt 0.825368 0.242984
vt 0.860055 0.173957
vt 0.155781 0.438669
vt 0.110871 0.383964
vt 0.141152 0.218490
vt 0.124980 0.378536
vt 0.794296 0.255898
vt 0.267380 0.412253
vt 0.253308 0.416151
vt 0.252973 0.411848
vt 0.267480 0.411592
vt 0.279620 0.399646
vt 0.466263 0.347244
vt 0.394154 0.143852
vt 0.270907 0.413512
vt 0.280383 0.411139
vt 0.280095 0.410285
vt 0.270988 0.413935
vt 0.075518 0.723336
vt 0.229352 0.856148
vt 0.507226 0.724366
vt 0.345391 0.856148
vt 0.270085 0.413721
vt 0.270112 0.413385
vt 0.279890 0.412090
vt 0.279733 0.412076
vt 0.269443 0.412252
vt 0.269578 0.411280
vt 0.270318 0.413100
vt 0.270164 0.413154
vt 0.946704 0.263732
vt 0.904183 0.318797
vt 0.963973 0.215248
vt 0.860657 0.347844
vt 0.932712 0.685381
vt 0.950154 0.698845
vt 0.934447 0.704220
vt 0.928289 0.700974
vt 0.891179 0.873727
vt 0.877524 0.860136
vt 0.905602 0.857344
vt 0.909137 0.867582
vt 0.892294 0.704632
vt 0.900807 0.691762
vt 0.914511 0.705111
vt 0.912106 0.709592
vt 0.929346 0.889122
vt 0.911121 0.889122
vt 0.916178 0.871293
vt 0.924639 0.870935
vt 0.929257 0.829063
vt 0.940429 0.836761
vt 0.929803 0.847985
vt 0.924277 0.845776
vt 0.962096 0.710732
vt 0.937539 0.713174
vt 0.957334 0.867110
vt 0.934681 0.861439
vt 0.931725 0.737996
vt 0.916850 0.737908
vt 0.921206 0.723291
vt 0.928605 0.722868
vt 0.936000 0.713072
vt 0.933547 0.705323
vt 0.934837 0.719084
vt 0.927864 0.720307
vt 0.933033 0.717383
vt 0.928618 0.849710
vt 0.923734 0.848707
vt 0.916795 0.868441
vt 0.923785 0.867972
vt 0.916409 0.706938
vt 0.914064 0.709746
vt 0.908691 0.850586
vt 0.910754 0.852532
vt 0.907361 0.857461
vt 0.931932 0.866563
vt 0.929761 0.864474
vt 0.932443 0.861263
vt 0.921680 0.720728
vt 0.946805 0.732234
vt 0.895007 0.835552
vt 0.912249 0.828962
vt 0.915816 0.846260
vt 0.916772 0.685381
vt 0.920889 0.701287
vt 0.907079 0.731176
vt 0.916373 0.721359
vt 0.947601 0.881825
vt 0.917408 0.719851
vt 0.927750 0.703468
vt 0.921636 0.703878
vt 0.916663 0.849188
vt 0.910166 0.866320
vn 0.0000 -1.0000 0.0000
vn 0.3894 -0.9211 0.0000
vn -0.3894 -0.9211 0.0000
vn -0.2983 -0.9545 0.0000
vn 0.2983 -0.9545 0.0000
vn 0.0000 0.0000 -1.0000
vn -0.3176 0.9482 0.0000
vn 0.3176 0.9482 0.0000
vn 0.2983 0.9545 0.0000
vn -0.2983 0.9545 0.0000
vn 1.0000 0.0000 0.0000
vn 0.0000 0.0000 1.0000
vn 0.7071 0.0000 0.7071
vn -0.9950 0.0000 -0.0995
vn -0.2425 0.0000 -0.9701
vn 0.9950 0.0000 0.0995
vn -0.7071 0.0000 0.7071
vn -0.9950 0.0000 0.0995
vn -1.0000 0.0000 0.0000
vn 0.0000 -0.8450 0.5348
vn 0.7749 -0.3918 0.4960
vn 0.2425 0.0000 -0.9701
vn -0.7749 -0.3918 0.4960
vn 0.2425 0.0000 0.9701
vn -0.2425 0.0000 0.9701
vn -0.7944 0.6073 -0.0139
vn 0.0000 0.9883 -0.1524
vn 0.0000 0.8207 0.5713
vn 0.8221 0.3526 0.4471
vn -0.6349 0.2101 0.7435
vn -0.8221 0.3526 0.4471
vn 0.7944 0.6073 -0.0139
vn 0.6349 0.2101 0.7435
vn 0.9950 0.0000 -0.0995
vn 0.3250 0.8459 0.4229
vn -0.9015 0.0000 0.4327
vn 0.9015 0.0000 0.4327
vn 0.0000 1.0000 0.0000
vn -0.3250 0.8459 0.4229
vn -0.9033 0.4291 0.0000
vn 0.9033 0.4291 0.0000
vn 0.0000 0.9701 0.2425
vn 0.8706 0.4663 0.1571
vn -0.8706 0.4663 0.1571
vn 0.8570 0.5153 -0.0055
vn -0.8570 0.5153 -0.0055
vn -0.7941 0.1748 0.5821
vn 0.0000 0.9588 0.2841
vn -0.9098 0.0000 0.4151
vn 0.9098 0.0000 0.4151
vn 0.0000 -0.9806 0.1960
vn 0.7941 0.1748 0.5821
s off
f 100/1/1 54/2/1 4/3/1 82/4/1
f 82/4/2 84/5/2 6/6/2 2/7/2
f 81/8/3 83/9/3 7/10/3 3/11/3
f 84/5/4 86/12/4 10/13/4 6/6/4
f 83/9/5 85/14/5 11/15/5 7/10/5
f 102/16/1 59/17/1 16/18/1 87/19/1
f 87/19/1 16/18/1 15/20/1 88/21/1
f 14/22/1 18/23/1 17/24/1 13/25/1
f 18/23/1 20/26/1 19/27/1 17/24/1
f 68/28/6 71/29/6 46/30/6 48/31/6
f 90/32/7 24/33/7 29/34/7 92/35/7
f 89/36/8 21/37/8 27/38/8 91/39/8
f 92/35/9 29/34/9 33/40/9 94/41/9
f 91/39/10 27/38/10 31/42/10 93/43/10
f 104/44/11 67/45/11 45/46/11 96/47/11
f 70/48/12 69/49/12 52/50/12 51/51/12
f 78/52/13 66/53/13 44/54/13 57/55/13
f 77/56/14 68/28/14 48/31/14 58/57/14
f 2/7/12 6/6/12 29/34/12 24/33/12
f 7/10/15 11/15/15 31/42/15 27/38/15
f 5/58/12 1/59/12 22/60/12 28/61/12
f 18/23/16 14/22/16 23/62/16 38/63/16
f 53/64/13 2/7/13 24/33/13 55/65/13
f 60/66/17 13/25/17 35/67/17 62/68/17
f 3/11/15 7/10/15 27/38/15 21/37/15
f 13/25/18 17/24/18 37/69/18 35/67/18
f 85/14/19 9/70/19 32/71/19 93/43/19
f 19/27/20 20/26/20 40/72/20 39/73/20
f 54/2/14 15/20/14 36/74/14 56/75/14
f 86/12/11 12/76/11 34/77/11 94/41/11
f 20/26/21 18/23/21 38/63/21 40/72/21
f 15/20/6 16/18/6 26/78/6 36/74/6
f 12/76/22 8/79/22 30/80/22 34/77/22
f 17/24/23 19/27/23 39/73/23 37/69/23
f 6/6/24 10/13/24 33/40/24 29/34/24
f 8/79/22 4/3/22 25/81/22 30/80/22
f 9/70/25 5/58/25 28/61/25 32/71/25
f 101/82/26 97/83/26 46/30/26 63/84/26
f 97/83/27 98/85/27 48/31/27 46/30/27
f 50/86/28 49/87/28 51/51/28 52/50/28
f 69/49/29 72/88/29 50/86/29 52/50/29
f 80/89/30 73/90/30 47/91/30 64/92/30
f 76/93/31 70/48/31 51/51/31 49/87/31
f 103/94/19 74/95/19 42/96/19 95/97/19
f 98/85/32 99/98/32 58/57/32 48/31/32
f 14/22/13 53/64/13 55/65/13 23/62/13
f 65/99/33 78/52/33 57/55/33 43/100/33
f 88/21/1 15/20/1 54/2/1 100/1/1
f 71/29/34 79/101/34 63/84/34 46/30/34
f 74/95/17 80/89/17 64/92/17 42/96/17
f 99/98/35 96/47/35 105/102/35 110/103/35
f 16/18/34 59/17/34 61/104/34 26/78/34
f 1/59/17 60/66/17 62/68/17 22/60/17
f 81/8/1 3/11/1 59/17/1 102/16/1
f 22/60/17 62/68/17 80/89/17 74/95/17
f 26/78/34 61/104/34 79/101/34 71/29/34
f 23/62/13 55/65/13 78/52/13 65/99/13
f 35/67/18 37/69/18 76/105/18 73/90/18
f 89/36/19 22/60/19 74/95/19 103/94/19
f 37/69/36 39/73/36 70/106/36 76/105/36
f 38/63/16 23/62/16 65/99/16 72/107/16
f 62/68/17 35/67/17 73/90/17 80/89/17
f 40/72/37 38/63/37 72/107/37 69/108/37
f 56/75/14 36/74/14 68/28/14 77/56/14
f 55/65/13 24/33/13 66/53/13 78/52/13
f 39/73/12 40/72/12 69/108/12 70/106/12
f 90/32/11 25/81/11 67/45/11 104/44/11
f 36/74/6 26/78/6 71/29/6 68/28/6
f 24/33/11 90/32/11 104/44/11 66/53/11
f 21/37/19 89/36/19 103/94/19 75/109/19
f 1/59/1 81/8/1 102/16/1 60/66/1
f 42/96/38 64/92/38 101/82/38 95/97/38
f 14/22/1 88/21/1 100/1/1 53/64/1
f 75/109/19 103/94/19 95/97/19 41/110/19
f 47/91/27 43/100/27 98/85/27 97/83/27
f 57/55/38 44/54/38 96/47/38 99/98/38
f 10/13/11 86/12/11 94/41/11 33/40/11
f 11/15/19 85/14/19 93/43/19 31/42/19
f 66/53/11 104/44/11 96/47/11 44/54/11
f 28/61/10 91/39/10 93/43/10 32/71/10
f 30/80/9 92/35/9 94/41/9 34/77/9
f 22/60/8 89/36/8 91/39/8 28/61/8
f 25/81/7 90/32/7 92/35/7 30/80/7
f 13/25/1 87/19/1 88/21/1 14/22/1
f 60/66/1 102/16/1 87/19/1 13/25/1
f 5/58/5 9/70/5 85/14/5 83/9/5
f 8/79/4 12/76/4 86/12/4 84/5/4
f 1/59/3 5/58/3 83/9/3 81/8/3
f 4/3/2 8/79/2 84/5/2 82/4/2
f 53/64/1 100/1/1 82/4/1 2/7/1
f 110/103/38 105/102/38 106/111/38 109/112/38
f 112/113/38 111/114/38 107/115/38 108/116/38
f 95/97/39 101/82/39 111/114/39 112/113/39
f 58/57/40 99/98/40 110/103/40 109/112/40
f 41/110/40 95/97/40 112/113/40 108/116/40
f 96/47/41 45/46/41 106/111/41 105/102/41
f 101/82/41 63/84/41 107/115/41 111/114/41
f 43/117/42 47/118/42 49/87/42 50/86/42
f 72/88/43 65/119/43 43/117/43 50/86/43
f 73/120/44 76/93/44 49/87/44 47/118/44
f 43/100/45 57/55/45 99/98/45 98/85/45
f 64/92/46 47/91/46 97/83/46 101/82/46
f 41/121/47 108/122/47 130/123/47 121/124/47
f 109/125/48 106/126/48 131/127/48 132/128/48
f 3/129/49 21/130/49 116/131/49 114/132/49
f 77/133/49 58/134/49 126/135/49 127/136/49
f 25/137/50 4/138/50 119/139/50 118/140/50
f 108/122/48 107/141/48 129/142/48 130/123/48
f 4/138/51 54/143/51 123/144/51 119/139/51
f 79/145/50 61/146/50 115/147/50 128/148/50
f 130/123/38 129/142/38 149/149/38 150/150/38
f 120/151/11 128/148/11 148/152/11 140/153/11
f 118/140/11 119/139/11 139/154/11 138/155/11
f 127/136/19 126/135/19 146/156/19 147/157/19
f 114/132/19 116/131/19 136/158/19 134/159/19
f 131/127/11 125/160/11 145/161/11 151/162/11
f 123/144/19 124/163/19 144/164/19 143/165/19
f 128/148/11 115/147/11 135/166/11 148/152/11
f 63/167/50 79/145/50 128/148/50 120/151/50
f 45/168/50 67/169/50 117/170/50 125/160/50
f 107/141/52 63/167/52 120/151/52 129/142/52
f 21/130/49 75/171/49 122/172/49 116/131/49
f 75/171/49 41/121/49 121/124/49 122/172/49
f 61/146/50 59/173/50 113/174/50 115/147/50
f 56/175/49 77/133/49 127/136/49 124/163/49
f 59/173/51 3/129/51 114/132/51 113/174/51
f 58/134/47 109/125/47 132/128/47 126/135/47
f 54/143/49 56/175/49 124/163/49 123/144/49
f 106/126/52 45/168/52 125/160/52 131/127/52
f 67/169/50 25/137/50 118/140/50 117/170/50
f 133/176/6 134/159/6 136/158/6 135/166/6
f 140/153/6 141/177/6 150/150/6 149/149/6
f 148/152/6 142/178/6 141/177/6 140/153/6
f 139/154/6 143/165/6 144/164/6 138/155/6
f 137/179/6 147/157/6 146/156/6 145/161/6
f 138/155/6 144/164/6 147/157/6 137/179/6
f 135/166/6 136/158/6 142/178/6 148/152/6
f 145/161/6 146/156/6 152/180/6 151/162/6
f 115/147/11 113/174/11 133/176/11 135/166/11
f 122/172/19 121/124/19 141/177/19 142/178/19
f 132/128/38 131/127/38 151/162/38 152/180/38
f 125/160/11 117/170/11 137/179/11 145/161/11
f 119/139/1 123/144/1 143/165/1 139/154/1
f 121/124/19 130/123/19 150/150/19 141/177/19
f 113/174/1 114/132/1 134/159/1 133/176/1
f 116/131/19 122/172/19 142/178/19 136/158/19
f 129/142/11 120/151/11 140/153/11 149/149/11
f 124/163/19 127/136/19 147/157/19 144/164/19
f 126/135/19 132/128/19 152/180/19 146/156/19
f 117/170/11 118/140/11 138/155/11 137/179/11
