# Blender v2.79 (sub 0) OBJ File: 'PillarsNWalls.blend'
# www.blender.org
mtllib Wall_3.mtl
o Cube.128_Cube.148
v -33.524876 -0.000001 -73.513550
v -33.524876 12.499999 -73.513550
v -33.524876 -0.000001 -75.013550
v -33.524876 12.499999 -75.013550
v -23.489590 -0.000001 -73.513550
v -23.489590 12.499999 -73.513550
v -23.489590 -0.000001 -75.013550
v -23.489590 12.499999 -75.013550
v -33.524876 2.972221 -73.513550
v -33.524876 2.972221 -75.013550
v -23.489590 2.972221 -75.013550
v -23.489590 2.972221 -73.513550
v -33.524876 2.972221 -75.313553
v -33.524876 -0.000001 -75.313553
v -23.489590 -0.000001 -75.313553
v -23.489590 2.972221 -75.313553
v -23.489590 2.972221 -73.213547
v -23.489590 -0.000001 -73.213547
v -33.524876 -0.000001 -73.213547
v -33.524876 2.972221 -73.213547
v -33.524876 11.456225 -73.513550
v -33.524876 11.456225 -75.013550
v -23.489590 11.456225 -75.013550
v -23.489590 11.456225 -73.513550
v -33.524876 11.456225 -73.363548
v -33.524876 12.499999 -73.363548
v -33.524876 12.499999 -75.163551
v -23.489590 12.499999 -75.163551
v -23.489590 12.499999 -73.363548
v -33.524876 11.456225 -75.163551
v -23.489590 11.456225 -75.163551
v -23.489590 11.456225 -73.363548
vn -1.0000 0.0000 0.0000
vn 0.0000 -1.0000 0.0000
vn 1.0000 0.0000 0.0000
vn 0.0000 1.0000 0.0000
vn 0.0000 0.0000 1.0000
vn 0.0000 0.0000 -1.0000
usemtl Material
s off
f 21//1 2//1 4//1 22//1
f 23//2 22//2 30//2 31//2
f 23//3 8//3 6//3 24//3
f 6//4 2//4 26//4 29//4
f 3//2 7//2 5//2 1//2
f 8//4 4//4 2//4 6//4
f 7//2 3//2 14//2 15//2
f 7//3 11//3 12//3 5//3
f 11//3 7//3 15//3 16//3
f 1//1 9//1 10//1 3//1
f 18//5 17//5 20//5 19//5
f 14//6 13//6 16//6 15//6
f 5//3 12//3 17//3 18//3
f 10//4 11//4 16//4 13//4
f 12//4 9//4 20//4 17//4
f 3//1 10//1 13//1 14//1
f 9//1 1//1 19//1 20//1
f 1//2 5//2 18//2 19//2
f 12//5 24//5 21//5 9//5
f 11//3 23//3 24//3 12//3
f 10//6 22//6 23//6 11//6
f 9//1 21//1 22//1 10//1
f 30//6 27//6 28//6 31//6
f 32//5 29//5 26//5 25//5
f 21//2 24//2 32//2 25//2
f 8//3 23//3 31//3 28//3
f 4//4 8//4 28//4 27//4
f 2//1 21//1 25//1 26//1
f 24//3 6//3 29//3 32//3
f 22//1 4//1 27//1 30//1
