# Blender v2.79 (sub 0) OBJ File: 'Dungeon.blend'
# www.blender.org
o Circle
v -3.711516 6.120564 13.335422
v -4.772176 6.120564 13.774761
v -5.211516 6.120564 14.835422
v -4.772176 6.120564 15.896082
v -3.711516 6.120564 16.335423
v -2.650856 6.120564 15.896082
v -2.211516 6.120564 14.835422
v -2.650856 6.120564 13.774761
v -3.711516 6.949379 13.034700
v -4.984818 6.949379 13.562119
v -5.512237 6.949379 14.835422
v -4.984818 6.949379 16.108723
v -3.711516 6.949379 16.636143
v -2.438214 6.949379 16.108723
v -1.910795 6.949379 14.835422
v -2.438214 6.949379 13.562119
v -3.711516 8.682876 12.847596
v -5.117121 8.682876 13.429817
v -5.699342 8.682876 14.835422
v -5.117121 8.682876 16.241026
v -3.711516 8.682876 16.823246
v -2.305911 8.682876 16.241026
v -1.723691 8.682876 14.835422
v -2.305911 8.682876 13.429817
v -3.711516 10.304532 13.133245
v -4.915137 10.304532 13.631801
v -5.413692 10.304532 14.835422
v -4.915137 10.304532 16.039042
v -3.711516 10.304532 16.537598
v -2.507895 10.304532 16.039042
v -2.009340 10.304532 14.835422
v -2.507895 10.304532 13.631802
v -3.711516 10.807803 13.284217
v -4.808383 10.807803 13.738554
v -5.262721 10.807803 14.835422
v -4.808383 10.807803 15.932289
v -3.711516 10.807803 16.386625
v -2.614649 10.807803 15.932288
v -2.160312 10.807803 14.835422
v -2.614649 10.807803 13.738555
v -4.958449 9.956790 13.588489
v -5.474946 9.956790 14.835422
v -1.948086 9.956790 14.835422
v -2.464583 9.956790 13.588489
v -3.711516 9.956790 16.598852
v -2.464583 9.956790 16.082355
v -4.958449 9.956790 16.082355
v -3.711516 9.956790 13.071992
v -1.765163 8.298639 14.835422
v -2.335237 8.298639 13.459143
v -3.711516 8.298639 16.781775
v -2.335237 8.298639 16.211700
v -5.657869 8.298639 14.835422
v -5.087795 8.298639 16.211700
v -3.711516 8.298639 12.889069
v -5.087795 8.298639 13.459143
v -4.878497 6.534971 16.002403
v -3.711516 6.534971 16.485783
v -4.878497 6.534971 13.668441
v -5.361876 6.534971 14.835422
v -2.061156 6.534971 14.835422
v -2.544535 6.534971 13.668441
v -2.544535 6.534971 16.002403
v -3.711516 6.534971 13.185061
v -5.069070 6.906147 13.477868
v -3.711516 6.906147 12.915550
v -5.631387 6.906147 14.835422
v -5.069070 6.906147 16.192976
v -3.711516 6.906147 16.755293
v -2.353962 6.906147 16.192974
v -1.791645 6.906147 14.835422
v -2.353962 6.906147 13.477868
v -3.711516 6.491740 16.604931
v -5.481027 6.491740 14.835422
v -2.460283 6.491740 13.584189
v -2.460283 6.491740 16.086655
v -5.206229 8.669273 13.340709
v -3.711516 8.669273 12.721578
v -5.825360 8.669273 14.835422
v -5.206229 8.669273 16.330135
v -3.711516 8.669273 16.949265
v -2.216803 8.669273 16.330135
v -1.597672 8.669273 14.835422
v -2.216803 8.669273 13.340709
v -2.246128 8.285037 13.370034
v -2.246128 8.285037 16.300810
v -5.176904 8.285037 16.300810
v -5.176904 8.285037 13.370034
v -5.003404 10.326520 13.543534
v -3.711516 10.326520 13.008416
v -5.538521 10.326520 14.835422
v -5.003404 10.326520 16.127310
v -3.711516 10.326520 16.662426
v -2.419628 10.326520 16.127310
v -1.884511 10.326520 14.835422
v -2.419628 10.326520 13.543534
v -5.599774 9.978778 14.835422
v -2.376316 9.978778 13.500221
v -2.376316 9.978778 16.170622
v -5.046717 9.978778 16.170622
v -5.046717 9.978778 13.500221
v -1.823258 9.978778 14.835422
v -3.711516 9.978778 16.723680
v -3.711516 9.978778 12.947163
v -1.639145 8.285037 14.835422
v -3.711516 8.285037 16.907793
v -5.783887 8.285037 14.835422
v -3.711516 8.285037 12.763050
v -4.962749 6.491740 16.086655
v -4.962749 6.491740 13.584188
v -1.942006 6.491740 14.835422
v -3.711516 6.491740 13.065911
v -4.714712 10.994060 13.832225
v -3.711516 10.994060 13.416688
v -5.130250 10.994060 14.835422
v -4.714712 10.994060 15.838618
v -3.711516 10.994060 16.254156
v -2.708320 10.994060 15.838617
v -2.292782 10.994060 14.835422
v -2.708320 10.994060 13.832226
v -4.808383 10.994060 13.738554
v -3.711516 10.994060 13.284217
v -5.262721 10.994060 14.835422
v -4.808383 10.994060 15.932289
v -3.711516 10.994060 16.386625
v -2.614649 10.994060 15.932288
v -2.160312 10.994060 14.835422
v -2.614649 10.994060 13.738555
v -4.714712 10.815196 13.832225
v -3.711516 10.815196 13.416688
v -5.130250 10.815196 14.835422
v -4.714712 10.815196 15.838618
v -3.711516 10.815196 16.254156
v -2.708320 10.815196 15.838617
v -2.292782 10.815196 14.835422
v -2.708320 10.815196 13.832226
v -4.682157 5.946318 13.864780
v -3.711516 5.946318 13.462729
v -5.084209 5.946318 14.835422
v -4.682157 5.946318 15.806063
v -3.711516 5.946318 16.208115
v -2.740875 5.946318 15.806063
v -2.338823 5.946318 14.835422
v -2.740875 5.946318 13.864780
v -4.772176 5.946318 13.774761
v -3.711516 5.946318 13.335422
v -5.211516 5.946318 14.835422
v -4.772176 5.946318 15.896082
v -3.711516 5.946318 16.335423
v -2.650856 5.946318 15.896082
v -2.211516 5.946318 14.835422
v -2.650856 5.946318 13.774761
v -4.682157 6.158579 13.864780
v -3.711516 6.158579 13.462729
v -5.084209 6.158579 14.835422
v -4.682157 6.158579 15.806063
v -3.711516 6.158579 16.208115
v -2.740875 6.158579 15.806063
v -2.338823 6.158579 14.835422
v -2.740875 6.158579 13.864780
vn 0.3688 0.2671 -0.8903
vn 0.8903 0.2671 0.3688
vn -0.3688 0.2671 0.8903
vn -0.8903 0.2671 -0.3688
vn 0.8903 0.2671 -0.3688
vn 0.3688 0.2671 0.8903
vn -0.8903 0.2671 0.3688
vn -0.3688 0.2671 -0.8903
vn -0.3777 0.1606 0.9119
vn 0.9119 0.1606 0.3777
vn 0.3777 0.1606 -0.9119
vn -0.3777 0.1606 -0.9119
vn -0.9119 0.1606 0.3777
vn 0.3777 0.1606 0.9119
vn 0.9119 0.1606 -0.3777
vn -0.9119 0.1606 -0.3777
vn -0.9193 -0.0992 -0.3808
vn -0.3808 -0.0992 0.9193
vn 0.9193 -0.0992 0.3808
vn 0.3808 -0.0992 -0.9193
vn -0.3808 -0.0992 -0.9193
vn -0.9193 -0.0992 0.3808
vn 0.3808 -0.0992 0.9193
vn 0.9193 -0.0992 -0.3808
vn 0.8760 -0.3178 0.3628
vn 0.3628 -0.3178 -0.8760
vn -0.3628 -0.3178 -0.8760
vn -0.8760 -0.3178 0.3628
vn 0.3628 -0.3178 0.8760
vn 0.8760 -0.3178 -0.3628
vn -0.8760 -0.3178 -0.3628
vn -0.3628 -0.3178 0.8760
vn 0.0000 1.0000 -0.0000
vn 0.0000 -1.0000 -0.0000
vn -0.1730 0.9823 0.0717
vn -0.1399 -0.9308 0.3377
vn 0.1730 -0.9823 -0.0717
vn -0.0444 -0.9932 0.1072
vn -0.1730 0.9823 -0.0717
vn -0.3377 -0.9308 -0.1399
vn 0.0717 -0.9823 0.1730
vn 0.0444 0.9932 -0.1072
vn -0.1072 -0.9932 -0.0444
vn -0.0717 0.9823 -0.1730
vn -0.1730 -0.9823 0.0717
vn 0.1072 0.9932 -0.0444
vn 0.0444 -0.9932 -0.1072
vn 0.0717 0.9823 -0.1730
vn -0.0717 -0.9823 -0.1730
vn 0.1072 0.9932 0.0444
vn 0.1072 -0.9932 0.0444
vn 0.1730 0.9823 -0.0717
vn 0.1399 0.9308 -0.3377
vn 0.0717 -0.9823 -0.1730
vn 0.0444 0.9932 0.1072
vn 0.1730 0.9823 0.0717
vn 0.3377 0.9308 -0.1399
vn 0.1730 -0.9823 0.0717
vn 0.0444 -0.9932 0.1072
vn -0.1730 -0.9823 -0.0717
vn 0.1399 -0.9308 0.3377
vn -0.0717 0.9823 0.1730
vn 0.1072 -0.9932 -0.0444
vn 0.3377 -0.9308 -0.1399
vn -0.1399 0.9308 -0.3377
vn -0.0444 -0.9932 -0.1072
vn -0.1399 -0.9308 -0.3377
vn -0.3377 0.9308 -0.1399
vn -0.1072 -0.9932 0.0444
vn -0.3377 -0.9308 0.1399
vn -0.3377 0.9308 0.1399
vn -0.0444 0.9932 -0.1072
vn 0.3377 -0.9308 0.1399
vn -0.1399 0.9308 0.3377
vn -0.1072 0.9932 -0.0444
vn 0.1399 -0.9308 -0.3377
vn 0.1399 0.9308 0.3377
vn -0.1072 0.9932 0.0444
vn -0.0717 -0.9823 0.1730
vn 0.3377 0.9308 0.1399
vn 0.0717 0.9823 0.1730
vn -0.0444 0.9932 0.1072
vn 0.3827 0.0000 -0.9239
vn 0.9239 0.0000 0.3827
vn -0.3827 0.0000 0.9239
vn -0.9239 0.0000 -0.3827
vn 0.9239 0.0000 -0.3827
vn 0.3827 0.0000 0.9239
vn -0.9239 0.0000 0.3827
vn -0.3827 0.0000 -0.9239
s off
f 32//1 25//1 33//1 40//1
f 30//2 31//2 39//2 38//2
f 28//3 29//3 37//3 36//3
f 26//4 27//4 35//4 34//4
f 31//5 32//5 40//5 39//5
f 29//6 30//6 38//6 37//6
f 27//7 28//7 36//7 35//7
f 25//8 26//8 34//8 33//8
f 20//9 21//9 45//9 47//9
f 22//10 23//10 43//10 46//10
f 24//11 17//11 48//11 44//11
f 17//12 18//12 41//12 48//12
f 19//13 20//13 47//13 42//13
f 21//14 22//14 46//14 45//14
f 23//15 24//15 44//15 43//15
f 18//16 19//16 42//16 41//16
f 10//17 11//17 53//17 56//17
f 12//18 13//18 51//18 54//18
f 14//19 15//19 49//19 52//19
f 16//20 9//20 55//20 50//20
f 9//21 10//21 56//21 55//21
f 11//22 12//22 54//22 53//22
f 13//23 14//23 52//23 51//23
f 15//24 16//24 50//24 49//24
f 6//25 7//25 61//25 63//25
f 8//26 1//26 64//26 62//26
f 1//27 2//27 59//27 64//27
f 3//28 4//28 57//28 60//28
f 5//29 6//29 63//29 58//29
f 7//30 8//30 62//30 61//30
f 2//31 3//31 60//31 59//31
f 4//32 5//32 58//32 57//32
f 129//33 131//33 132//33 133//33 134//33 135//33 136//33 130//33
f 153//34 154//34 160//34 159//34 158//34 157//34 156//34 155//34
f 32//35 31//35 95//35 96//35
f 62//36 64//36 112//36 75//36
f 43//37 44//37 98//37 102//37
f 50//38 55//38 108//38 85//38
f 31//39 30//39 94//39 95//39
f 63//40 61//40 111//40 76//40
f 45//41 46//41 99//41 103//41
f 17//42 24//42 84//42 78//42
f 52//43 49//43 105//43 86//43
f 30//44 29//44 93//44 94//44
f 42//45 47//45 100//45 97//45
f 24//46 23//46 83//46 84//46
f 54//47 51//47 106//47 87//47
f 29//48 28//48 92//48 93//48
f 48//49 41//49 101//49 104//49
f 23//50 22//50 82//50 83//50
f 56//51 53//51 107//51 88//51
f 28//52 27//52 91//52 92//52
f 9//53 16//53 72//53 66//53
f 44//54 48//54 104//54 98//54
f 22//55 21//55 81//55 82//55
f 27//56 26//56 89//56 91//56
f 16//57 15//57 71//57 72//57
f 46//58 43//58 102//58 99//58
f 109//32 73//32 69//32 68//32
f 110//31 74//31 67//31 65//31
f 111//30 75//30 72//30 71//30
f 73//29 76//29 70//29 69//29
f 74//28 109//28 68//28 67//28
f 112//27 110//27 65//27 66//27
f 75//26 112//26 66//26 72//26
f 76//25 111//25 71//25 70//25
f 105//24 85//24 84//24 83//24
f 106//23 86//23 82//23 81//23
f 107//22 87//22 80//22 79//22
f 108//21 88//21 77//21 78//21
f 85//20 108//20 78//20 84//20
f 86//19 105//19 83//19 82//19
f 87//18 106//18 81//18 80//18
f 88//17 107//17 79//17 77//17
f 101//16 97//16 91//16 89//16
f 102//15 98//15 96//15 95//15
f 103//14 99//14 94//14 93//14
f 97//13 100//13 92//13 91//13
f 104//12 101//12 89//12 90//12
f 98//11 104//11 90//11 96//11
f 99//10 102//10 95//10 94//10
f 100//9 103//9 93//9 92//9
f 55//59 56//59 88//59 108//59
f 41//60 42//60 97//60 101//60
f 64//61 59//61 110//61 112//61
f 25//62 32//62 96//62 90//62
f 53//63 54//63 87//63 107//63
f 60//64 57//64 109//64 74//64
f 10//65 9//65 66//65 65//65
f 51//66 52//66 86//66 106//66
f 58//67 63//67 76//67 73//67
f 11//68 10//68 65//68 67//68
f 49//69 50//69 85//69 105//69
f 61//70 62//70 75//70 111//70
f 12//71 11//71 67//71 68//71
f 18//72 17//72 78//72 77//72
f 59//73 60//73 74//73 110//73
f 13//74 12//74 68//74 69//74
f 19//75 18//75 77//75 79//75
f 57//76 58//76 73//76 109//76
f 14//77 13//77 69//77 70//77
f 20//78 19//78 79//78 80//78
f 47//79 45//79 103//79 100//79
f 15//80 14//80 70//80 71//80
f 26//81 25//81 90//81 89//81
f 21//82 20//82 80//82 81//82
f 40//83 33//83 122//83 128//83
f 116//83 117//83 133//83 132//83
f 38//84 39//84 127//84 126//84
f 36//85 37//85 125//85 124//85
f 34//86 35//86 123//86 121//86
f 39//87 40//87 128//87 127//87
f 37//88 38//88 126//88 125//88
f 35//89 36//89 124//89 123//89
f 33//90 34//90 121//90 122//90
f 113//33 114//33 122//33 121//33
f 115//33 113//33 121//33 123//33
f 116//33 115//33 123//33 124//33
f 117//33 116//33 124//33 125//33
f 118//33 117//33 125//33 126//33
f 119//33 118//33 126//33 127//33
f 120//33 119//33 127//33 128//33
f 114//33 120//33 128//33 122//33
f 113//84 115//84 131//84 129//84
f 119//89 120//89 136//89 135//89
f 117//90 118//90 134//90 133//90
f 115//87 116//87 132//87 131//87
f 114//88 113//88 129//88 130//88
f 120//85 114//85 130//85 136//85
f 118//86 119//86 135//86 134//86
f 1//83 8//83 152//83 146//83
f 142//90 141//90 157//90 158//90
f 7//84 6//84 150//84 151//84
f 5//85 4//85 148//85 149//85
f 3//86 2//86 145//86 147//86
f 8//87 7//87 151//87 152//87
f 6//88 5//88 149//88 150//88
f 4//89 3//89 147//89 148//89
f 2//90 1//90 146//90 145//90
f 138//34 137//34 145//34 146//34
f 137//34 139//34 147//34 145//34
f 139//34 140//34 148//34 147//34
f 140//34 141//34 149//34 148//34
f 141//34 142//34 150//34 149//34
f 142//34 143//34 151//34 150//34
f 143//34 144//34 152//34 151//34
f 144//34 138//34 146//34 152//34
f 140//87 139//87 155//87 156//87
f 137//88 138//88 154//88 153//88
f 138//85 144//85 160//85 154//85
f 143//86 142//86 158//86 159//86
f 141//83 140//83 156//83 157//83
f 139//84 137//84 153//84 155//84
f 144//89 143//89 159//89 160//89
