# Blender v2.79 (sub 0) OBJ File: 'Dungeon.blend'
# www.blender.org
o Cube.040_Cube
v 8.579978 31.042561 51.101074
v 8.707238 35.092743 50.973816
v 8.579978 31.042561 47.101074
v 8.707238 35.092743 47.228333
v 14.579978 31.042561 51.101074
v 14.452718 35.092743 50.973816
v 14.579978 31.042561 47.101074
v 14.452718 35.092743 47.228333
v 8.579978 32.798531 51.101074
v 8.579978 33.286591 51.101074
v 8.579978 33.286591 47.101074
v 8.579978 32.798531 47.101074
v 14.579978 33.286591 47.101074
v 14.579978 32.798531 47.101074
v 14.579978 33.286591 51.101074
v 14.579978 32.798531 51.101074
v 8.579978 34.653492 51.101074
v 8.579978 34.653492 47.101074
v 14.579978 34.653492 47.101074
v 14.579978 34.653492 51.101074
v 8.579978 31.454538 47.101074
v 14.579978 31.454538 47.101074
v 14.579978 31.454538 51.101074
v 8.579978 31.454538 51.101074
v 8.579978 31.042561 47.489017
v 8.579978 31.042561 50.713131
v 8.707238 35.092743 50.713131
v 8.707238 35.092743 47.489017
v 14.579978 31.042561 50.713131
v 14.579978 31.042561 47.489017
v 14.452718 35.092743 47.489017
v 14.452718 35.092743 50.713131
v 14.536021 32.767319 47.520229
v 14.536021 32.767319 50.681919
v 14.536021 33.317802 47.520229
v 14.536021 33.317802 50.681919
v 8.623935 32.767319 50.681919
v 8.623935 32.767319 47.520229
v 8.623935 33.317802 50.681919
v 8.623935 33.317802 47.520229
v 14.536021 34.622280 47.520229
v 14.536021 34.622280 50.681919
v 8.623935 34.622280 50.681919
v 8.623935 34.622280 47.520229
v 8.623935 31.485752 50.681919
v 8.623935 31.485752 47.520229
v 14.536021 31.485752 47.520229
v 14.536021 31.485752 50.681919
v 14.165493 31.042561 47.101074
v 8.994463 31.042561 47.101074
v 8.994463 35.092743 47.228333
v 14.165493 35.092743 47.228333
v 8.994463 31.042561 51.101074
v 14.165493 31.042561 51.101074
v 14.165493 35.092743 50.973816
v 8.994463 35.092743 50.973816
v 14.134279 32.767319 51.057117
v 9.025677 32.767319 51.057117
v 14.134279 33.317802 51.057117
v 9.025677 33.317802 51.057117
v 9.025677 32.767319 47.145031
v 14.134279 32.767319 47.145031
v 9.025677 33.317802 47.145031
v 14.134279 33.317802 47.145031
v 14.134279 34.622280 51.057117
v 9.025677 34.622280 51.057117
v 9.025677 34.622280 47.145031
v 14.134279 34.622280 47.145031
v 9.025677 31.485752 47.145031
v 14.134279 31.485752 47.145031
v 14.134279 31.485752 51.057117
v 9.025677 31.485752 51.057117
v 14.165493 35.201130 50.713131
v 8.994463 35.201130 50.713131
v 14.165493 35.201130 47.489017
v 8.994463 35.201130 47.489017
v 14.165493 31.042561 47.489017
v 8.994463 31.042561 47.489017
v 14.165493 31.042561 50.713131
v 8.994463 31.042561 50.713131
v 8.579978 35.042561 47.489017
v 8.579978 35.042561 47.101074
v 14.165493 35.042561 47.101074
v 14.579978 35.042561 47.101074
v 14.579978 35.042561 50.713131
v 14.579978 35.042561 51.101074
v 8.994463 35.042561 51.101074
v 8.579978 35.042561 51.101074
v 8.579978 35.042561 50.713131
v 14.579978 35.042561 47.489017
v 8.994463 35.042561 47.101074
v 14.165493 35.042561 51.101074
v 14.165493 35.273968 47.489017
v 14.452718 35.273968 47.489017
v 14.165493 35.273968 50.713131
v 14.452718 35.273968 50.713131
v 8.707238 35.273968 47.489017
v 8.994463 35.273968 47.489017
v 8.707238 35.273968 50.713131
v 8.994463 35.273968 50.713131
v 14.165493 35.273968 47.228333
v 8.994463 35.273968 47.228333
v 14.165493 35.273968 50.973816
v 8.994463 35.273968 50.973816
v 8.707238 35.273968 47.228333
v 14.452718 35.273968 47.228333
v 14.452718 35.273968 50.973816
v 8.707238 35.273968 50.973816
v 14.579978 32.798531 47.489017
v 14.579978 32.798531 50.713131
v 14.579978 33.286591 47.489017
v 14.579978 33.286591 50.713131
v 8.579978 32.798531 50.713131
v 8.579978 32.798531 47.489017
v 8.579978 33.286591 50.713131
v 8.579978 33.286591 47.489017
v 14.579978 34.653492 47.489017
v 14.579978 34.653492 50.713131
v 8.579978 34.653492 50.713131
v 8.579978 34.653492 47.489017
v 8.579978 31.454538 50.713131
v 8.579978 31.454538 47.489017
v 14.579978 31.454538 47.489017
v 14.579978 31.454538 50.713131
v 14.165493 32.798531 51.101074
v 8.994463 32.798531 51.101074
v 14.165493 33.286591 51.101074
v 8.994463 33.286591 51.101074
v 8.994463 32.798531 47.101074
v 14.165493 32.798531 47.101074
v 8.994463 33.286591 47.101074
v 14.165493 33.286591 47.101074
v 14.165493 34.653492 51.101074
v 8.994463 34.653492 51.101074
v 8.994463 34.653492 47.101074
v 14.165493 34.653492 47.101074
v 8.994463 31.454538 47.101074
v 14.165493 31.454538 47.101074
v 14.165493 31.454538 51.101074
v 8.994463 31.454538 51.101074
vn -1.0000 0.0000 0.0000
vn 0.0000 0.0000 -1.0000
vn 1.0000 0.0000 0.0000
vn 0.0000 0.0000 1.0000
vn 0.0000 -1.0000 0.0000
vn -0.3668 0.9303 0.0000
vn 0.0000 0.9303 -0.3668
vn 0.3668 0.9303 0.0000
vn 0.0000 0.9303 0.3668
vn 0.0000 1.0000 0.0000
vn 0.5790 -0.8154 0.0000
vn 0.5790 0.8154 0.0000
vn -0.5790 -0.8154 0.0000
vn -0.5790 0.8154 0.0000
vn -0.5790 0.8153 0.0000
vn 0.5790 0.8153 0.0000
vn -0.5789 0.0000 -0.8154
vn -0.5789 0.0000 0.8154
vn 0.5789 0.0000 0.8154
vn 0.5789 0.0000 -0.8154
vn -0.5790 0.0000 0.8153
vn 0.5790 0.0000 0.8153
vn 0.0000 -0.8154 0.5789
vn 0.0000 0.8153 0.5790
vn 0.0000 -0.8154 -0.5789
vn 0.0000 0.8153 -0.5790
vn 0.8154 0.0000 -0.5790
vn -0.8154 0.0000 -0.5790
vn -0.8153 0.0000 0.5790
vn 0.8153 0.0000 0.5790
vn 0.8153 0.0000 -0.5790
vn -0.8153 0.0000 -0.5790
s off
f 120//1 81//1 82//1 18//1
f 136//2 83//2 84//2 19//2
f 118//3 85//3 86//3 20//3
f 134//4 87//4 88//4 17//4
f 79//5 29//5 5//5 54//5
f 28//1 27//1 99//1 97//1
f 140//4 126//4 9//4 24//4
f 126//4 128//4 10//4 9//4
f 124//3 110//3 16//3 23//3
f 110//3 112//3 15//3 16//3
f 138//2 130//2 14//2 22//2
f 130//2 132//2 13//2 14//2
f 122//1 114//1 12//1 21//1
f 114//1 116//1 11//1 12//1
f 128//4 134//4 17//4 10//4
f 112//3 118//3 20//3 15//3
f 132//2 136//2 19//2 13//2
f 116//1 120//1 18//1 11//1
f 25//1 122//1 21//1 3//1
f 49//2 138//2 22//2 7//2
f 29//3 124//3 23//3 5//3
f 53//4 140//4 24//4 1//4
f 7//3 22//3 123//3 30//3
f 30//3 123//3 124//3 29//3
f 1//1 24//1 121//1 26//1
f 26//1 121//1 122//1 25//1
f 10//1 17//1 119//1 115//1
f 13//3 19//3 117//3 111//3
f 9//1 10//1 115//1 113//1
f 113//1 115//1 116//1 114//1
f 24//1 9//1 113//1 121//1
f 14//3 13//3 111//3 109//3
f 109//3 111//3 112//3 110//3
f 22//3 14//3 109//3 123//3
f 51//2 4//2 105//2 102//2
f 8//2 52//2 101//2 106//2
f 49//5 7//5 30//5 77//5
f 77//5 30//5 29//5 79//5
f 19//3 84//3 90//3 117//3
f 117//3 90//3 85//3 118//3
f 17//1 88//1 89//1 119//1
f 119//1 89//1 81//1 120//1
f 25//5 78//5 80//5 26//5
f 78//5 77//5 79//5 80//5
f 3//5 50//5 78//5 25//5
f 50//5 49//5 77//5 78//5
f 56//4 55//4 103//4 104//4
f 27//1 2//1 108//1 99//1
f 32//3 31//3 94//3 96//3
f 4//1 28//1 97//1 105//1
f 5//4 23//4 139//4 54//4
f 54//4 139//4 140//4 53//4
f 3//2 21//2 137//2 50//2
f 50//2 137//2 138//2 49//2
f 11//2 18//2 135//2 131//2
f 15//4 20//4 133//4 127//4
f 12//2 11//2 131//2 129//2
f 129//2 131//2 132//2 130//2
f 21//2 12//2 129//2 137//2
f 16//4 15//4 127//4 125//4
f 125//4 127//4 128//4 126//4
f 23//4 16//4 125//4 139//4
f 55//4 6//4 107//4 103//4
f 2//4 56//4 104//4 108//4
f 26//5 80//5 53//5 1//5
f 80//5 79//5 54//5 53//5
f 20//4 86//4 92//4 133//4
f 133//4 92//4 87//4 134//4
f 18//2 82//2 91//2 135//2
f 135//2 91//2 83//2 136//2
f 28//6 4//6 82//6 81//6
f 52//7 8//7 84//7 83//7
f 32//8 6//8 86//8 85//8
f 56//9 2//9 88//9 87//9
f 2//6 27//6 89//6 88//6
f 27//6 28//6 81//6 89//6
f 8//8 31//8 90//8 84//8
f 31//8 32//8 85//8 90//8
f 4//7 51//7 91//7 82//7
f 51//7 52//7 83//7 91//7
f 6//9 55//9 92//9 86//9
f 55//9 56//9 87//9 92//9
f 100//10 99//10 108//10 104//10
f 102//10 105//10 97//10 98//10
f 98//10 97//10 99//10 100//10
f 94//10 93//10 95//10 96//10
f 95//1 93//1 75//1 73//1
f 106//10 101//10 93//10 94//10
f 101//10 102//10 98//10 93//10
f 96//10 95//10 103//10 107//10
f 95//10 100//10 104//10 103//10
f 6//3 32//3 96//3 107//3
f 52//2 51//2 102//2 101//2
f 31//3 8//3 106//3 94//3
f 98//3 100//3 74//3 76//3
f 100//2 95//2 73//2 74//2
f 93//4 98//4 76//4 75//4
f 34//11 33//11 109//11 110//11
f 35//12 36//12 112//12 111//12
f 38//13 37//13 113//13 114//13
f 39//14 40//14 116//14 115//14
f 42//11 41//11 117//11 118//11
f 44//13 43//13 119//13 120//13
f 45//15 46//15 122//15 121//15
f 47//16 48//16 124//16 123//16
f 43//17 39//17 115//17 119//17
f 40//18 44//18 120//18 116//18
f 41//19 35//19 111//19 117//19
f 36//20 42//20 118//20 112//20
f 37//17 45//17 121//17 113//17
f 46//21 38//21 114//21 122//21
f 33//22 47//22 123//22 109//22
f 48//20 34//20 110//20 124//20
f 58//23 57//23 125//23 126//23
f 59//24 60//24 128//24 127//24
f 62//25 61//25 129//25 130//25
f 63//26 64//26 132//26 131//26
f 66//23 65//23 133//23 134//23
f 68//25 67//25 135//25 136//25
f 69//26 70//26 138//26 137//26
f 71//24 72//24 140//24 139//24
f 67//27 63//27 131//27 135//27
f 64//28 68//28 136//28 132//28
f 65//29 59//29 127//29 133//29
f 60//30 66//30 134//30 128//30
f 61//31 69//31 137//31 129//31
f 70//32 62//32 130//32 138//32
f 57//29 71//29 139//29 125//29
f 72//30 58//30 126//30 140//30
f 39//1 43//1 44//1 40//1
f 35//3 41//3 42//3 36//3
f 45//1 37//1 38//1 46//1
f 47//3 33//3 34//3 48//3
f 63//2 67//2 68//2 64//2
f 59//4 65//4 66//4 60//4
f 69//2 61//2 62//2 70//2
f 71//4 57//4 58//4 72//4
f 75//10 76//10 74//10 73//10
