# Blender v2.79 (sub 0) OBJ File: 'Dungeon.blend'
# www.blender.org
o Cube.023_Cube.101
v -27.855003 2.041873 26.153635
v -27.445004 2.041873 26.153635
v -25.445004 2.041873 26.153635
v -25.035004 2.041873 26.153635
v -23.035004 2.041873 26.153635
v -22.625004 2.041873 26.153635
v -20.625004 2.041873 26.153635
v -20.215004 2.041873 26.153635
v -18.215004 2.041873 26.153635
v -29.265003 2.041873 28.563635
v -29.265003 2.041873 26.563635
v -28.855003 2.041873 28.563635
v -28.855003 2.041873 26.563635
v -26.855003 2.041873 28.563635
v -26.855003 2.041873 26.563635
v -26.445004 2.041873 28.563635
v -26.445004 2.041873 26.563635
v -24.445004 2.041873 28.563635
v -24.445004 2.041873 26.563635
v -24.035004 2.041873 28.563635
v -24.035004 2.041873 26.563635
v -22.035004 2.041873 28.563635
v -22.035004 2.041873 26.563635
v -21.625004 2.041873 28.563635
v -21.625004 2.041873 26.563635
v -19.625004 2.041873 28.563635
v -19.625004 2.041873 26.563635
v -19.215004 2.041873 28.563635
v -19.215004 2.041873 26.563635
v -28.265003 2.041873 30.973635
v -28.265003 2.041873 28.973635
v -27.855003 2.041873 30.973635
v -27.855003 2.041873 28.973635
v -25.855003 2.041873 30.973635
v -25.855003 2.041873 28.973635
v -25.445004 2.041873 30.973635
v -25.445004 2.041873 28.973635
v -23.445004 2.041873 30.973635
v -23.445004 2.041873 28.973635
v -23.035004 2.041873 30.973635
v -23.035004 2.041873 28.973635
v -21.035004 2.041873 30.973635
v -21.035004 2.041873 28.973635
v -20.625004 2.041873 30.973635
v -20.625004 2.041873 28.973635
v -18.625004 2.041873 30.973635
v -18.625004 2.041873 28.973635
v -18.215004 2.041873 30.973635
v -18.215004 2.041873 28.973635
v -29.675003 2.041873 33.383636
v -29.675003 2.041873 31.383635
v -29.265003 2.041873 33.383636
v -29.265003 2.041873 31.383635
v -27.265003 2.041873 33.383636
v -27.265003 2.041873 31.383635
v -26.855003 2.041873 33.383636
v -26.855003 2.041873 31.383635
v -24.855003 2.041873 33.383636
v -24.855003 2.041873 31.383635
v -24.445004 2.041873 33.383636
v -24.445004 2.041873 31.383635
v -22.445004 2.041873 33.383636
v -22.445004 2.041873 31.383635
v -22.035004 2.041873 33.383636
v -22.035004 2.041873 31.383635
v -20.035004 2.041873 33.383636
v -20.035004 2.041873 31.383635
v -19.625004 2.041873 33.383636
v -19.625004 2.041873 31.383635
v -28.675003 2.041873 35.793636
v -28.675003 2.041873 33.793636
v -28.265003 2.041873 35.793636
v -28.265003 2.041873 33.793636
v -26.265003 2.041873 35.793636
v -26.265003 2.041873 33.793636
v -25.855003 2.041873 35.793636
v -25.855003 2.041873 33.793636
v -23.855003 2.041873 35.793636
v -23.855003 2.041873 33.793636
v -23.445004 2.041873 35.793636
v -23.445004 2.041873 33.793636
v -21.445004 2.041873 35.793636
v -21.445004 2.041873 33.793636
v -21.035004 2.041873 35.793636
v -21.035004 2.041873 33.793636
v -19.035004 2.041873 35.793636
v -19.035004 2.041873 33.793636
v -18.625004 2.041873 35.793636
v -18.625004 2.041873 33.793636
v -29.843510 2.041873 26.563635
v -29.843510 2.041873 28.563635
v -29.843510 2.041873 31.383635
v -29.843510 2.041873 33.383636
v -29.843510 2.041873 33.793636
v -29.843510 2.041873 35.793636
v -27.445004 2.041873 24.156490
v -27.855003 2.041873 24.156490
v -29.843510 2.041873 24.156490
v -29.843510 2.041873 26.153635
v -29.843510 2.041873 28.973635
v -29.843510 2.041873 30.973635
v -25.035004 2.041873 24.156490
v -25.445004 2.041873 24.156490
v -22.625004 2.041873 24.156490
v -23.035004 2.041873 24.156490
v -20.625004 2.041873 24.156490
v -18.215004 2.041873 24.156490
v -20.215004 2.041873 24.156490
v -18.156490 2.041873 26.563635
v -18.156490 2.041873 28.563635
v -18.156490 2.041873 28.973635
v -18.156490 2.041873 30.973635
v -18.156490 2.041873 31.383635
v -18.156490 2.041873 33.383636
v -18.156490 2.041873 33.793636
v -18.156490 2.041873 35.793636
v -30.000000 0.000000 36.000000
v -30.000000 1.585011 36.000000
v -30.000000 0.000000 24.000000
v -30.000000 1.585011 24.000000
v -18.000000 0.000000 36.000000
v -18.000000 1.585011 36.000000
v -18.000000 0.000000 24.000000
v -18.000000 1.585011 24.000000
v -29.843510 1.942603 35.843510
v -29.843510 1.942603 24.156490
v -18.156490 1.942603 24.156490
v -18.156490 1.942603 35.843510
v -28.273855 1.942603 24.156490
v -29.843510 1.942603 25.732964
v -27.855003 1.942603 24.156490
v -29.843510 1.942603 26.153635
v -27.855003 1.942603 26.153635
v -29.843510 1.942603 26.563635
v -29.265003 1.942603 26.563635
v -29.843510 1.942603 28.563635
v -28.855003 1.942603 26.563635
v -28.855003 1.942603 28.563635
v -29.265003 1.942603 28.563635
v -28.265003 1.942603 28.973635
v -28.265003 1.942603 30.973635
v -29.843510 1.942603 28.973635
v -29.843510 1.942603 30.973635
v -29.843510 1.942603 31.383635
v -29.265003 1.942603 33.383636
v -29.675003 1.942603 31.383635
v -29.675003 1.942603 33.383636
v -29.265003 1.942603 31.383635
v -29.843510 1.942603 33.383636
v -29.843510 1.942603 33.793636
v -28.265003 1.942603 33.793636
v -28.265003 1.942603 35.793636
v -28.675003 1.942603 33.793636
v -29.843510 1.942603 35.793636
v -28.675003 1.942603 35.793636
v -27.445004 1.942603 24.156490
v -25.445004 1.942603 24.156490
v -27.445004 1.942603 26.153635
v -25.445004 1.942603 26.153635
v -26.445004 1.942603 28.563635
v -26.445004 1.942603 26.563635
v -26.855003 1.942603 26.563635
v -26.855003 1.942603 28.563635
v -25.445004 1.942603 28.973635
v -25.445004 1.942603 30.973635
v -27.855003 1.942603 28.973635
v -25.855003 1.942603 28.973635
v -25.855003 1.942603 30.973635
v -27.855003 1.942603 30.973635
v -26.855003 1.942603 33.383636
v -26.855003 1.942603 31.383635
v -27.265003 1.942603 31.383635
v -27.265003 1.942603 33.383636
v -25.855003 1.942603 35.793636
v -25.855003 1.942603 33.793636
v -26.265003 1.942603 33.793636
v -26.265003 1.942603 35.793636
v -23.035004 1.942603 26.153635
v -23.035004 1.942603 24.156490
v -25.035004 1.942603 26.153635
v -25.035004 1.942603 24.156490
v -22.625004 1.942603 24.156490
v -22.625004 1.942603 26.153635
v -24.035004 1.942603 26.563635
v -24.035004 1.942603 28.563635
v -24.445004 1.942603 28.563635
v -24.445004 1.942603 26.563635
v -23.035004 1.942603 28.973635
v -23.035004 1.942603 30.552362
v -23.445004 1.942603 30.554996
v -23.445004 1.942603 30.973635
v -23.445004 1.942603 28.973635
v -23.035004 1.942603 30.973635
v -24.445004 1.942603 33.383636
v -24.855003 1.942603 33.383636
v -24.445004 1.942603 31.383635
v -24.855003 1.942603 31.383635
v -22.445004 1.942603 33.383636
v -23.445004 1.942603 35.793636
v -23.445004 1.942603 33.793636
v -23.855003 1.942603 33.793636
v -23.855003 1.942603 35.793636
v -20.215004 1.942603 26.153635
v -20.215004 1.942603 24.156490
v -20.625004 1.942603 26.153635
v -20.625004 1.942603 24.156490
v -22.035004 1.942603 26.563635
v -21.625004 1.942603 26.563635
v -21.625004 1.942603 28.563635
v -22.035004 1.942603 28.563635
v -20.625004 1.942603 28.973635
v -21.035004 1.942603 28.973635
v -20.625004 1.942603 30.973635
v -21.035004 1.942603 30.973635
v -22.445004 1.942603 31.383635
v -22.445004 1.942603 31.554996
v -20.035004 1.942603 31.383635
v -22.035004 1.942603 31.383635
v -22.035004 1.942603 33.383636
v -21.035004 1.942603 33.793636
v -21.035004 1.942603 35.793636
v -21.445004 1.942603 35.793636
v -21.445004 1.942603 33.793636
v -18.215004 1.942603 24.156490
v -18.215004 1.942603 26.153635
v -19.215004 1.942603 26.563635
v -19.625004 1.942603 28.563635
v -19.625004 1.942603 26.563635
v -18.215004 1.942603 28.973635
v -18.156490 1.942603 28.973635
v -19.215004 1.942603 28.563635
v -18.215004 1.942603 30.973635
v -18.625004 1.942603 30.973635
v -18.625004 1.942603 28.973635
v -18.156490 1.942603 30.973635
v -19.625004 1.942603 31.383635
v -20.035004 1.942603 33.383636
v -19.625004 1.942603 33.383636
v -18.156490 1.942603 33.383636
v -18.625004 1.942603 35.372360
v -18.625004 1.942603 35.793636
v -18.625004 1.942603 33.793636
v -18.156490 1.942603 33.793636
v -19.035004 1.942603 33.793636
v -19.035004 1.942603 35.793636
v -19.035004 1.942603 34.964996
v -18.156490 1.942603 26.563635
v -18.156490 1.942603 28.563635
v -18.156490 1.942603 31.383635
v -18.156490 1.942603 35.793636
v -29.843510 1.942603 34.214909
v -28.273855 1.942603 24.156490
v -18.156490 1.942603 26.984907
vn 0.0000 1.0000 0.0000
vn -1.0000 0.0000 0.0000
vn 0.0000 0.0000 -1.0000
vn 1.0000 0.0000 0.0000
vn 0.0000 0.0000 1.0000
vn 0.0000 -1.0000 0.0000
vn 0.0000 0.4009 -0.9161
vn 0.9161 0.4009 0.0000
vn -0.9161 0.4009 0.0000
vn 0.0000 0.4009 0.9161
s off
f 90//1 10//1 11//1
f 13//1 14//1 15//1
f 17//1 18//1 19//1
f 21//1 22//1 23//1
f 25//1 26//1 27//1
f 100//1 30//1 31//1
f 33//1 34//1 35//1
f 37//1 38//1 39//1
f 41//1 42//1 43//1
f 45//1 46//1 47//1
f 92//1 50//1 51//1
f 53//1 54//1 55//1
f 57//1 58//1 59//1
f 61//1 62//1 63//1
f 65//1 66//1 67//1
f 94//1 70//1 71//1
f 73//1 74//1 75//1
f 77//1 78//1 79//1
f 81//1 82//1 83//1
f 85//1 86//1 87//1
f 115//1 88//1 116//1
f 102//1 5//1 105//1
f 97//1 99//1 1//1
f 111//1 48//1 112//1
f 109//1 28//1 110//1
f 113//1 68//1 114//1
f 108//1 9//1 107//1
f 94//2 154//2 95//2
f 92//2 149//2 93//2
f 104//1 7//1 106//1
f 97//3 131//3 129//3
f 103//3 156//3 96//3
f 105//3 181//3 102//3
f 106//3 182//3 104//3
f 96//1 3//1 103//1
f 118//2 119//2 117//2
f 120//3 123//3 119//3
f 124//4 121//4 123//4
f 122//5 117//5 121//5
f 123//6 117//6 119//6
f 120//7 129//7 131//7
f 156//5 182//5 224//5
f 124//8 230//8 235//8
f 118//9 149//9 144//9
f 122//10 125//10 118//10
f 197//4 58//4 195//4
f 222//5 80//5 199//5
f 180//2 102//2 181//2
f 224//4 9//4 225//4
f 136//2 90//2 134//2
f 166//3 35//3 167//3
f 171//3 59//3 197//3
f 209//2 25//2 208//2
f 185//2 21//2 184//2
f 144//3 51//3 146//3
f 194//2 61//2 196//2
f 184//3 23//3 207//3
f 146//4 50//4 147//4
f 162//4 14//4 163//4
f 134//3 11//3 135//3
f 186//5 16//5 160//5
f 183//2 104//2 182//2
f 190//4 39//4 38//4
f 207//4 22//4 210//4
f 141//5 101//5 143//5
f 243//4 116//4 250//4
f 245//5 84//5 221//5
f 239//5 68//5 238//5
f 191//5 36//5 165//5
f 213//2 45//2 211//2
f 148//3 55//3 172//3
f 198//5 60//5 194//5
f 220//3 87//3 244//3
f 235//5 249//5 128//5
f 239//5 243//5 128//5
f 243//1 127//1 253//1
f 164//3 39//3 192//3
f 178//5 4//5 180//5
f 218//3 67//3 217//3
f 151//3 75//3 176//3
f 217//4 66//4 237//4
f 159//5 2//5 158//5
f 132//1 125//1 251//1
f 132//5 144//5 125//5
f 237//5 64//5 219//5
f 158//2 96//2 156//2
f 130//2 99//2 98//2
f 157//4 3//4 159//4
f 200//3 83//3 223//3
f 167//4 34//4 168//4
f 231//2 29//2 226//2
f 153//4 70//4 155//4
f 214//5 40//5 193//5
f 205//5 6//5 183//5
f 236//3 113//3 249//3
f 163//5 12//5 138//5
f 235//5 48//5 232//5
f 195//5 56//5 170//5
f 240//2 88//2 89//2
f 168//5 32//5 169//5
f 227//5 24//5 209//5
f 189//2 40//2 41//2
f 202//5 76//5 174//5
f 188//3 43//3 212//3
f 210//5 20//5 185//5
f 216//4 63//4 62//4
f 145//2 53//2 148//2
f 173//5 52//5 145//5
f 161//3 19//3 187//3
f 250//5 88//5 241//5
f 219//2 65//2 218//2
f 206//4 7//4 205//4
f 238//2 69//2 236//2
f 212//4 42//4 214//4
f 131//4 1//4 133//4
f 175//3 79//3 201//3
f 223//4 82//4 222//4
f 147//5 93//5 149//5
f 203//2 108//2 204//2
f 165//2 37//2 164//2
f 160//2 17//2 161//2
f 137//3 15//3 162//3
f 152//2 73//2 151//2
f 208//3 27//3 228//3
f 221//2 85//2 220//2
f 247//4 110//4 248//4
f 143//2 100//2 142//2
f 179//4 5//4 178//4
f 135//4 10//4 139//4
f 170//2 57//2 171//2
f 174//2 77//2 175//2
f 248//5 28//5 231//5
f 169//2 33//2 166//2
f 140//4 30//4 141//4
f 150//3 71//3 153//3
f 229//3 111//3 230//3
f 139//5 91//5 136//5
f 249//4 114//4 239//4
f 242//3 115//3 243//3
f 201//4 78//4 202//4
f 234//4 46//4 233//4
f 204//3 107//3 224//3
f 226//3 109//3 247//3
f 228//4 26//4 227//4
f 177//5 72//5 152//5
f 133//5 99//5 132//5
f 138//2 13//2 137//2
f 155//5 95//5 154//5
f 230//4 112//4 235//4
f 187//4 18//4 186//4
f 142//3 31//3 140//3
f 211//3 47//3 234//3
f 225//5 8//5 203//5
f 232//2 49//2 229//2
f 158//1 131//1 133//1
f 160//1 161//1 163//1
f 176//4 74//4 177//4
f 246//4 87//4 86//4
f 172//4 54//4 173//4
f 233//5 44//5 213//5
f 131//5 156//5 127//5
f 157//5 181//5 127//5
f 179//5 182//5 127//5
f 206//5 204//5 127//5
f 127//3 204//3 252//3
f 199//2 81//2 200//2
f 196//3 63//3 215//3
f 90//1 91//1 10//1
f 13//1 12//1 14//1
f 17//1 16//1 18//1
f 21//1 20//1 22//1
f 25//1 24//1 26//1
f 100//1 101//1 30//1
f 33//1 32//1 34//1
f 37//1 36//1 38//1
f 41//1 40//1 42//1
f 45//1 44//1 46//1
f 92//1 93//1 50//1
f 53//1 52//1 54//1
f 57//1 56//1 58//1
f 61//1 60//1 62//1
f 65//1 64//1 66//1
f 94//1 95//1 70//1
f 73//1 72//1 74//1
f 77//1 76//1 78//1
f 81//1 80//1 82//1
f 85//1 84//1 86//1
f 115//1 89//1 88//1
f 102//1 4//1 5//1
f 97//1 98//1 99//1
f 111//1 49//1 48//1
f 109//1 29//1 28//1
f 113//1 69//1 68//1
f 108//1 8//1 9//1
f 94//2 150//2 154//2
f 92//2 144//2 149//2
f 104//1 6//1 7//1
f 126//3 98//3 129//3
f 98//3 97//3 129//3
f 103//3 157//3 156//3
f 105//3 179//3 181//3
f 106//3 206//3 182//3
f 96//1 2//1 3//1
f 118//2 120//2 119//2
f 120//3 124//3 123//3
f 124//4 122//4 121//4
f 122//5 118//5 117//5
f 123//6 121//6 117//6
f 127//7 124//7 131//7
f 124//7 120//7 131//7
f 120//7 126//7 129//7
f 126//5 251//5 132//5
f 132//1 133//1 252//1
f 133//1 131//1 252//1
f 156//5 157//5 181//5
f 126//1 132//1 252//1
f 156//5 181//5 179//5
f 156//3 179//3 182//3
f 252//5 131//5 156//5
f 182//5 206//5 204//5
f 127//5 252//5 156//5
f 182//5 204//5 224//5
f 224//5 127//5 156//5
f 128//8 122//8 235//8
f 122//8 124//8 235//8
f 124//8 127//8 230//8
f 126//9 120//9 144//9
f 120//9 118//9 144//9
f 118//9 125//9 149//9
f 122//10 128//10 125//10
f 197//4 59//4 58//4
f 222//5 82//5 80//5
f 180//2 4//2 102//2
f 224//4 107//4 9//4
f 136//2 91//2 90//2
f 166//3 33//3 35//3
f 171//3 57//3 59//3
f 209//2 24//2 25//2
f 185//2 20//2 21//2
f 144//3 92//3 51//3
f 194//2 60//2 61//2
f 184//3 21//3 23//3
f 146//4 51//4 50//4
f 162//4 15//4 14//4
f 134//3 90//3 11//3
f 186//5 18//5 16//5
f 183//2 6//2 104//2
f 38//4 191//4 190//4
f 190//4 192//4 39//4
f 207//4 23//4 22//4
f 141//5 30//5 101//5
f 243//4 115//4 116//4
f 245//5 86//5 84//5
f 239//5 114//5 68//5
f 191//5 38//5 36//5
f 213//2 44//2 45//2
f 148//3 53//3 55//3
f 198//5 62//5 60//5
f 220//3 85//3 87//3
f 235//5 230//5 127//5
f 249//5 239//5 128//5
f 235//5 127//5 249//5
f 239//5 249//5 127//5
f 243//6 250//6 128//6
f 239//5 127//5 243//5
f 127//6 247//6 253//6
f 253//6 128//6 243//6
f 164//3 37//3 39//3
f 178//5 5//5 4//5
f 218//3 65//3 67//3
f 151//3 73//3 75//3
f 217//4 67//4 66//4
f 159//5 3//5 2//5
f 126//6 130//6 132//6
f 125//5 154//5 251//5
f 144//6 149//6 125//6
f 132//5 126//5 144//5
f 237//5 66//5 64//5
f 158//2 2//2 96//2
f 98//2 126//2 130//2
f 130//2 132//2 99//2
f 157//4 103//4 3//4
f 200//3 81//3 83//3
f 167//4 35//4 34//4
f 231//2 28//2 29//2
f 153//4 71//4 70//4
f 214//5 42//5 40//5
f 205//5 7//5 6//5
f 236//3 69//3 113//3
f 163//5 14//5 12//5
f 235//5 112//5 48//5
f 195//5 58//5 56//5
f 89//2 242//2 240//2
f 240//2 241//2 88//2
f 168//5 34//5 32//5
f 227//5 26//5 24//5
f 41//2 188//2 189//2
f 189//2 193//2 40//2
f 202//5 78//5 76//5
f 188//3 41//3 43//3
f 210//5 22//5 20//5
f 62//4 198//4 216//4
f 216//4 215//4 63//4
f 145//2 52//2 53//2
f 173//5 54//5 52//5
f 161//3 17//3 19//3
f 250//5 116//5 88//5
f 219//2 64//2 65//2
f 206//4 106//4 7//4
f 238//2 68//2 69//2
f 212//4 43//4 42//4
f 131//4 97//4 1//4
f 175//3 77//3 79//3
f 223//4 83//4 82//4
f 147//5 50//5 93//5
f 203//2 8//2 108//2
f 165//2 36//2 37//2
f 160//2 16//2 17//2
f 137//3 13//3 15//3
f 152//2 72//2 73//2
f 208//3 25//3 27//3
f 221//2 84//2 85//2
f 247//4 109//4 110//4
f 143//2 101//2 100//2
f 179//4 105//4 5//4
f 135//4 11//4 10//4
f 170//2 56//2 57//2
f 174//2 76//2 77//2
f 248//5 110//5 28//5
f 169//2 32//2 33//2
f 140//4 31//4 30//4
f 150//3 94//3 71//3
f 229//3 49//3 111//3
f 139//5 10//5 91//5
f 249//4 113//4 114//4
f 242//3 89//3 115//3
f 201//4 79//4 78//4
f 234//4 47//4 46//4
f 204//3 108//3 107//3
f 226//3 29//3 109//3
f 228//4 27//4 26//4
f 177//5 74//5 72//5
f 133//5 1//5 99//5
f 138//2 12//2 13//2
f 155//5 70//5 95//5
f 230//4 111//4 112//4
f 187//4 19//4 18//4
f 142//3 100//3 31//3
f 211//3 45//3 47//3
f 225//5 9//5 8//5
f 232//2 48//2 49//2
f 127//1 224//1 225//1
f 203//1 204//1 206//1
f 247//1 127//1 225//1
f 203//1 206//1 205//1
f 247//1 225//1 226//1
f 225//1 203//1 226//1
f 208//1 228//1 205//1
f 228//1 226//1 203//1
f 203//1 205//1 228//1
f 205//1 183//1 208//1
f 208//1 183//1 207//1
f 187//1 184//1 180//1
f 184//1 207//1 178//1
f 178//1 207//1 183//1
f 183//1 182//1 179//1
f 162//1 161//1 158//1
f 161//1 187//1 159//1
f 159//1 187//1 180//1
f 183//1 179//1 178//1
f 180//1 181//1 157//1
f 184//1 178//1 180//1
f 180//1 157//1 159//1
f 135//1 137//1 132//1
f 137//1 162//1 133//1
f 158//1 161//1 159//1
f 137//1 133//1 132//1
f 134//6 135//6 136//6
f 162//1 158//1 133//1
f 158//1 156//1 131//1
f 132//5 251//5 136//5
f 132//1 136//1 135//1
f 253//5 247//5 248//5
f 231//1 226//1 228//1
f 128//5 253//5 248//5
f 231//1 228//1 227//1
f 128//1 248//1 231//1
f 154//1 125//1 128//1
f 139//1 136//1 251//1
f 251//1 154//1 128//1
f 128//1 231//1 227//1
f 209//1 208//1 207//1
f 128//1 227//1 209//1
f 139//1 251//1 138//1
f 251//1 128//1 185//1
f 138//1 251//1 163//1
f 137//1 135//1 139//1
f 138//1 137//1 139//1
f 209//1 207//1 210//1
f 185//1 184//1 187//1
f 128//1 209//1 210//1
f 185//1 187//1 186//1
f 128//1 210//1 185//1
f 163//1 251//1 160//1
f 161//1 162//1 163//1
f 160//1 251//1 186//1
f 185//1 186//1 251//1
f 176//4 75//4 74//4
f 86//4 245//4 246//4
f 246//4 244//4 87//4
f 172//4 55//4 54//4
f 233//5 46//5 44//5
f 131//5 129//5 126//5
f 156//5 157//5 127//5
f 131//5 126//5 156//5
f 157//5 156//5 126//5
f 181//5 179//5 127//5
f 157//3 126//3 181//3
f 179//5 181//5 126//5
f 182//5 206//5 127//5
f 179//5 126//5 182//5
f 206//3 182//3 126//3
f 204//3 224//3 127//3
f 206//5 126//5 204//5
f 204//5 126//5 252//5
f 199//2 80//2 81//2
f 196//3 61//3 63//3
l 143 125
l 142 126
l 136 125
l 134 126
l 149 150
l 146 148
l 143 251
l 140 166
l 172 171
l 152 155
l 176 175
l 167 164
l 197 196
l 201 200
l 190 189
l 216 218
l 223 220
l 212 211
l 217 236
l 246 240
l 234 229
l 129 126
l 224 127
