# Blender v2.79 (sub 0) OBJ File: 'Dungeon.blend'
# www.blender.org
o Pillar2.023_Cube.124
v 0.161413 7.907978 23.412054
v 2.161413 7.907978 23.412056
v 2.161412 7.907978 24.587946
v 0.161412 7.907978 24.587946
v 0.161413 8.625653 23.000000
v 2.161413 8.625653 23.000000
v 2.161412 8.625653 25.000000
v 0.161412 8.625653 25.000000
v 0.161412 6.837446 23.412054
v 2.161412 6.837446 23.412056
v 2.161412 6.837446 24.587946
v 0.161412 6.837446 24.587944
v 0.161412 3.097795 23.000000
v 2.161412 3.097795 23.000000
v 0.161412 3.097795 25.000000
v 2.161412 3.097795 25.000000
v 0.161413 8.168432 23.000000
v 2.161413 8.168432 23.000000
v 0.161412 8.168432 25.000000
v 2.161412 8.168432 25.000000
v 0.161413 9.340273 23.000000
v 2.161413 9.340273 23.000000
v 0.161412 9.340273 25.000000
v 2.161412 9.340273 25.000000
v 0.161412 6.597795 23.000000
v 2.161412 6.597795 23.000000
v 2.161412 6.597795 25.000000
v 0.161412 6.597795 25.000000
v 0.159118 3.097987 22.998470
v 2.159118 3.097987 22.998470
v 0.159117 3.097987 24.998470
v 2.159118 3.097987 24.998470
v 0.159118 8.168507 22.998470
v 2.159118 8.168507 22.998470
v 0.159118 8.168507 24.998470
v 2.159118 8.168507 24.998470
v 0.159118 9.340348 22.998470
v 2.159118 9.340348 22.998470
v 0.159118 9.340348 24.998470
v 2.159118 9.340348 24.998470
v 0.159118 6.597987 22.998470
v 2.159118 6.597987 22.998470
v 2.159118 6.597987 24.998470
v 0.159117 6.597987 24.998470
v -0.103054 3.098178 22.738592
v 2.416701 3.098178 22.738592
v -0.103055 3.098178 25.258347
v 2.416701 3.098178 25.258348
v -0.001115 8.168581 22.840530
v 2.314763 8.168581 22.840532
v -0.001116 8.168581 25.156410
v 2.314762 8.168581 25.156410
v -0.118736 9.340423 22.722910
v 2.432384 9.340423 22.722912
v -0.118737 9.340423 25.274031
v 2.432384 9.340423 25.274031
v -0.103054 6.598178 22.738592
v 2.416701 6.598178 22.738594
v 2.416701 6.598178 25.258348
v -0.103054 6.598178 25.258347
v 2.314763 8.363888 22.840532
v 2.314762 8.363888 25.156410
v -0.001115 8.363888 22.840530
v -0.001116 8.363888 25.156410
v -0.103053 9.340423 22.738592
v 2.416702 9.340423 22.738594
v -0.103054 9.340423 25.258348
v 2.416701 9.340423 25.258348
v 2.416702 8.363888 22.738594
v -0.103053 8.363888 22.738592
v 2.416701 8.363888 25.258348
v -0.103054 8.363888 25.258348
v 0.573467 6.837446 23.000000
v 0.573468 7.907978 23.000000
v 1.749357 6.837446 23.000000
v 1.749358 7.907978 23.000000
v 1.749357 6.837446 25.000000
v 1.749357 7.907978 25.000000
v 0.573467 6.837446 25.000000
v 0.573467 7.907978 25.000000
v 0.161412 6.597795 23.000000
v 0.161413 8.168432 23.000000
v 2.161412 6.597795 23.000000
v 2.161413 8.168432 23.000000
v 2.161412 6.597795 25.000000
v 2.161412 8.168432 25.000000
v 0.161412 6.597795 25.000000
v 0.161412 8.168432 25.000000
v 0.194352 6.834093 23.391493
v 0.194353 7.911331 23.391493
v 2.128472 6.834093 23.391493
v 2.128473 7.911331 23.391493
v 2.128472 6.834093 24.608507
v 2.128472 7.911331 24.608507
v 0.194352 6.834093 24.608507
v 0.194352 7.911331 24.608507
v 0.552905 6.834093 23.032940
v 0.552905 7.911331 23.032940
v 1.769920 6.834093 23.032940
v 1.769920 7.911331 23.032940
v 1.769920 6.834093 24.967060
v 1.769920 7.911331 24.967060
v 0.552904 6.834093 24.967060
v 0.552905 7.911331 24.967060
vn -1.0000 0.0000 -0.0000
vn 0.0000 0.0000 1.0000
vn -0.8483 -0.0000 -0.5295
vn 0.5295 0.0000 -0.8483
vn -0.8483 0.0000 0.5295
vn 0.0000 1.0000 -0.0000
vn 1.0000 0.0000 0.0000
vn -0.5295 -0.0000 -0.8483
vn 0.0000 0.0000 -1.0000
vn 0.0000 -1.0000 0.0000
vn 0.0831 0.9965 0.0000
vn -0.0324 -0.9995 0.0000
vn 0.0000 -0.9988 -0.0486
vn 0.0000 0.9923 0.1240
vn -0.0328 -0.9995 0.0000
vn 0.0830 0.9965 0.0000
vn 0.0328 0.9995 -0.0000
vn 0.0007 1.0000 -0.0000
vn -0.0005 -1.0000 0.0000
vn 0.0000 -1.0000 -0.0005
vn 0.0000 1.0000 -0.0003
vn 0.0000 -1.0000 0.0007
vn -0.0003 1.0000 0.0000
vn 0.0007 -1.0000 0.0000
vn 0.0003 1.0000 0.0000
vn 0.0324 0.9995 -0.0000
vn 0.0000 -0.9923 -0.1240
vn 0.0000 0.9988 0.0486
vn -0.0830 -0.9965 -0.0000
vn 0.0000 -0.9923 -0.1239
vn 0.0000 0.9988 0.0492
vn -0.0831 -0.9965 -0.0000
vn 0.0005 -1.0000 0.0000
vn 0.0000 1.0000 -0.0007
vn 0.0000 -1.0000 0.0005
vn -0.0007 1.0000 -0.0000
vn 0.0000 -1.0000 -0.0007
vn 0.0000 1.0000 0.0003
vn -0.0000 1.0000 0.0007
vn -0.0007 -1.0000 0.0000
vn 0.1013 -0.9949 0.0000
vn 0.8483 -0.0000 -0.5295
vn -0.1013 -0.9949 -0.0000
vn 0.0000 -0.9949 0.1013
vn 0.1013 0.9949 0.0000
vn 0.0000 -0.9949 -0.1013
vn -0.1013 0.9949 0.0000
vn 0.0000 0.9949 -0.1013
vn 0.5295 -0.0000 0.8483
vn 0.0000 0.9949 0.1013
vn -0.5295 0.0000 0.8483
vn 0.8483 -0.0000 0.5295
s off
f 6//1 7//1 24//1 22//1
f 87//2 81//2 25//2 28//2
f 77//3 78//3 102//3 101//3
f 12//4 4//4 96//4 95//4
f 76//5 75//5 99//5 100//5
f 86//2 84//2 18//2 20//2
f 5//6 8//6 7//6 6//6
f 81//2 83//2 26//2 25//2
f 8//7 5//7 21//7 23//7
f 82//2 88//2 19//2 17//2
f 3//8 11//8 93//8 94//8
f 83//2 85//2 27//2 26//2
f 5//2 6//2 22//2 21//2
f 7//9 8//9 23//9 24//9
f 13//10 14//10 16//10 15//10
f 28//11 25//11 41//11 44//11
f 17//12 19//12 35//12 33//12
f 18//13 17//13 33//13 34//13
f 24//13 23//13 39//13 40//13
f 15//14 16//14 32//14 31//14
f 22//15 24//15 40//15 38//15
f 16//16 14//16 30//16 32//16
f 23//17 21//17 37//17 39//17
f 88//2 86//2 20//2 19//2
f 85//2 87//2 28//2 27//2
f 84//2 82//2 17//2 18//2
f 44//18 41//18 57//18 60//18
f 33//19 35//19 51//19 49//19
f 34//20 33//20 49//20 50//20
f 40//21 39//21 55//21 56//21
f 31//22 32//22 48//22 47//22
f 38//23 40//23 56//23 54//23
f 32//24 30//24 46//24 48//24
f 39//25 37//25 53//25 55//25
f 20//26 18//26 34//26 36//26
f 27//27 28//27 44//27 43//27
f 19//28 20//28 36//28 35//28
f 26//29 27//29 43//29 42//29
f 14//30 13//30 29//30 30//30
f 21//31 22//31 38//31 37//31
f 25//14 26//14 42//14 41//14
f 13//32 15//32 31//32 29//32
f 63//10 64//10 72//10 70//10
f 57//1 45//1 47//1 60//1
f 61//10 63//10 70//10 69//10
f 55//10 53//10 65//10 67//10
f 56//10 55//10 67//10 68//10
f 48//2 59//2 60//2 47//2
f 46//7 58//7 59//7 48//7
f 45//9 57//9 58//9 46//9
f 36//33 34//33 50//33 52//33
f 43//34 44//34 60//34 59//34
f 35//35 36//35 52//35 51//35
f 42//36 43//36 59//36 58//36
f 30//37 29//37 45//37 46//37
f 37//38 38//38 54//38 53//38
f 41//39 42//39 58//39 57//39
f 29//40 31//40 47//40 45//40
f 49//1 51//1 64//1 63//1
f 51//2 52//2 62//2 64//2
f 50//9 49//9 63//9 61//9
f 52//7 50//7 61//7 62//7
f 71//7 69//7 66//7 68//7
f 69//9 70//9 65//9 66//9
f 72//2 71//2 68//2 67//2
f 70//1 72//1 67//1 65//1
f 54//10 56//10 68//10 66//10
f 53//10 54//10 66//10 65//10
f 62//10 61//10 69//10 71//10
f 64//10 62//10 71//10 72//10
f 9//1 1//1 82//1 81//1
f 2//7 10//7 83//7 84//7
f 11//7 3//7 86//7 85//7
f 4//1 12//1 87//1 88//1
f 1//1 4//1 88//1 82//1
f 3//7 2//7 84//7 86//7
f 12//1 9//1 81//1 87//1
f 10//7 11//7 85//7 83//7
f 74//9 73//9 81//9 82//9
f 75//9 76//9 84//9 83//9
f 78//2 77//2 85//2 86//2
f 79//2 80//2 88//2 87//2
f 76//9 74//9 82//9 84//9
f 80//2 78//2 86//2 88//2
f 77//2 79//2 87//2 85//2
f 73//9 75//9 83//9 81//9
f 97//9 98//9 100//9 99//9
f 91//7 92//7 94//7 93//7
f 101//2 102//2 104//2 103//2
f 90//1 89//1 95//1 96//1
f 4//41 1//41 90//41 96//41
f 80//42 79//42 103//42 104//42
f 2//43 3//43 94//43 92//43
f 74//44 76//44 100//44 98//44
f 9//45 12//45 95//45 89//45
f 78//46 80//46 104//46 102//46
f 11//47 10//47 91//47 93//47
f 79//48 77//48 101//48 103//48
f 1//49 9//49 89//49 90//49
f 75//50 73//50 97//50 99//50
f 10//51 2//51 92//51 91//51
f 73//52 74//52 98//52 97//52
