# Blender v2.79 (sub 0) OBJ File: 'Dungeon.blend'
# www.blender.org
o Cube.039_Cube.126
v 18.955956 35.591087 1.030819
v 18.955956 37.430435 1.030819
v 18.662788 35.884258 1.952284
v 18.662788 37.137264 1.952284
v 17.116610 35.591087 1.030820
v 17.116610 37.430435 1.030820
v 17.409781 35.884258 1.952284
v 17.409781 37.137264 1.952284
v 18.955957 37.430435 1.952284
v 18.955957 35.591087 1.952284
v 17.116611 35.591087 1.952284
v 17.116611 37.430435 1.952284
v 18.662788 37.137264 2.122028
v 18.662788 35.884258 2.122028
v 17.409781 35.884258 2.122029
v 17.409781 37.137264 2.122029
v 18.553635 37.297295 2.532886
v 18.532415 35.725368 2.554104
v 17.540152 35.725368 2.554105
v 17.518934 37.297295 2.532886
v 18.553635 37.297295 3.318016
v 18.532417 35.725368 3.296797
v 17.540154 35.725368 3.296798
v 17.518934 37.297295 3.318016
v 18.822817 37.297295 2.263703
v 17.249752 37.297295 2.263704
v 18.822817 37.297295 3.587198
v 17.249752 37.297295 3.587198
v 18.553635 36.839897 2.532886
v 17.518934 36.839897 2.532886
v 18.553635 36.839897 3.318016
v 17.518934 36.839897 3.318016
v 17.249752 35.724228 2.263704
v 18.822817 35.724228 2.263703
v 17.249752 35.724228 3.587198
v 18.822817 35.724228 3.587198
v 17.540152 35.216003 2.554105
v 18.532415 35.216003 2.554104
v 17.540154 35.216003 3.296798
v 18.532417 35.216003 3.296797
vn 1.0000 0.0000 -0.0000
vn -1.0000 0.0000 0.0000
vn -0.0000 0.0000 -1.0000
vn 0.0000 -1.0000 0.0000
vn 0.0000 1.0000 0.0000
vn 0.0000 0.0000 1.0000
vn -0.6629 0.0000 -0.7487
vn -0.0000 -0.6629 -0.7487
vn -0.0000 0.6629 -0.7488
vn 0.6629 0.0000 -0.7487
vn 0.0000 -1.0000 0.0039
vn -0.0000 -1.0000 -0.0039
vn -0.0039 -1.0000 0.0000
vn 0.0039 -1.0000 0.0000
s off
f 1//1 2//1 9//1 10//1
f 3//1 4//1 13//1 14//1
f 11//2 12//2 6//2 5//2
f 5//3 6//3 2//3 1//3
f 10//4 11//4 5//4 1//4
f 12//5 9//5 2//5 6//5
f 4//6 3//6 10//6 9//6
f 3//6 7//6 11//6 10//6
f 8//6 4//6 9//6 12//6
f 7//6 8//6 12//6 11//6
f 16//7 15//7 33//7 26//7
f 8//2 7//2 15//2 16//2
f 7//4 3//4 14//4 15//4
f 4//5 8//5 16//5 13//5
f 20//1 24//1 32//1 30//1
f 15//8 14//8 34//8 33//8
f 13//9 16//9 26//9 25//9
f 14//10 13//10 25//10 34//10
f 36//6 27//6 28//6 35//6
f 34//1 25//1 27//1 36//1
f 26//2 33//2 35//2 28//2
f 18//1 22//1 40//1 38//1
f 20//5 17//5 25//5 26//5
f 21//5 24//5 28//5 27//5
f 24//5 20//5 26//5 28//5
f 17//5 21//5 27//5 25//5
f 29//5 30//5 32//5 31//5
f 17//6 20//6 30//6 29//6
f 21//2 17//2 29//2 31//2
f 24//3 21//3 31//3 32//3
f 18//11 19//11 33//11 34//11
f 23//12 22//12 36//12 35//12
f 22//13 18//13 34//13 36//13
f 19//14 23//14 35//14 33//14
f 37//4 38//4 40//4 39//4
f 19//3 18//3 38//3 37//3
f 23//2 19//2 37//2 39//2
f 22//6 23//6 39//6 40//6
