# Blender v2.79 (sub 0) OBJ File: 'Books_Lowpoly.blend'
# www.blender.org
o Book_Cube.002
v -0.248215 0.265520 1.351708
v -2.315639 0.167736 1.429103
v -0.319698 0.040109 1.439393
v -2.345682 0.022972 1.439393
v -0.291549 0.198563 1.429104
v -2.168159 0.219634 1.351708
v 0.001466 0.009497 1.439393
v -2.072709 0.449291 1.329884
v 0.001466 0.202519 1.429104
v 0.001466 0.249973 1.351708
v -0.335756 0.040109 0.719697
v -0.686396 0.540394 -0.008034
v -2.345060 0.006925 0.719696
v -0.686396 0.540394 0.664457
v -2.315222 0.156954 0.714552
v 0.001466 0.249973 0.675854
v -2.168317 0.210757 0.675854
v -0.221947 0.432320 0.670531
v -2.072709 0.449291 0.654030
v 0.001466 0.021957 0.719697
v -0.484436 0.102389 0.719697
v -1.346431 0.061675 1.439393
v -1.403750 0.203126 1.429104
v -0.598136 0.288280 1.351708
v -1.364609 0.250900 1.351708
v -1.342656 0.579883 1.340796
v -1.345809 0.045628 0.719696
v -0.541671 0.246776 1.429104
v -0.485058 0.118436 1.439393
v -1.311140 0.607185 0.654030
v -0.667039 0.527835 1.351708
v -0.221947 0.432320 1.292901
v -2.072709 0.449291 -0.021824
v -1.311139 0.607185 -0.021824
v 0.248215 0.265520 1.351708
v 2.315639 0.167736 1.429103
v 0.319698 0.040109 1.439393
v 2.345682 0.022972 1.439393
v 0.291549 0.198563 1.429104
v 2.168159 0.219634 1.351708
v -0.001466 0.009497 1.439393
v 2.072709 0.449291 1.329884
v -0.001466 0.202519 1.429104
v -0.001466 0.249973 1.351708
v 0.335756 0.040109 0.719697
v 0.686396 0.540394 -0.008034
v 2.345060 0.006925 0.719696
v 0.686396 0.540394 0.664457
v 2.315222 0.156954 0.714552
v -0.001466 0.249973 0.675854
v 2.168317 0.210757 0.675854
v 0.221947 0.432320 0.670531
v 2.072709 0.449291 0.654030
v -0.001466 0.021957 0.719697
v 0.484436 0.102389 0.719697
v 1.346431 0.061675 1.439393
v 1.403750 0.203126 1.429104
v 0.598136 0.288280 1.351708
v 1.364609 0.250900 1.351708
v 1.342656 0.579883 1.340796
v 1.345809 0.045628 0.719696
v 0.541671 0.246776 1.429104
v 0.485058 0.118436 1.439393
v 1.311140 0.607185 0.654030
v 0.667039 0.527835 1.351708
v 0.221947 0.432320 1.292901
v 2.072709 0.449291 -0.021824
v 1.311139 0.607185 -0.021824
v -0.248215 0.265520 -1.351708
v -2.315639 0.167736 -1.429103
v -0.319698 0.040109 -1.439393
v -2.345682 0.022972 -1.439393
v -0.291549 0.198563 -1.429104
v -2.168159 0.219634 -1.351708
v 0.001466 0.009497 -1.439393
v -2.072709 0.449291 -1.329884
v 0.001466 0.202519 -1.429104
v 0.001466 0.249973 -1.351708
v -0.335756 0.040109 -0.719697
v -0.686396 0.540394 0.008034
v -2.345060 0.006925 -0.719696
v -0.686396 0.540394 -0.664457
v -2.315222 0.156954 -0.714552
v 0.001466 0.249973 -0.675854
v -2.168317 0.210757 -0.675854
v -0.221947 0.432320 -0.670531
v -2.072709 0.449291 -0.654030
v 0.001466 0.021957 -0.719697
v -0.484436 0.102389 -0.719697
v -0.221947 0.432320 0.000000
v -1.346431 0.061675 -1.439393
v -1.403750 0.203126 -1.429104
v -0.598136 0.288280 -1.351708
v -1.364609 0.250900 -1.351708
v -1.342656 0.579883 -1.340796
v 0.001466 0.249973 0.000000
v -1.345809 0.045628 -0.719696
v -0.541671 0.246776 -1.429104
v -0.485058 0.118436 -1.439393
v -1.311140 0.607185 -0.654030
v -0.667039 0.527835 -1.351708
v -0.221947 0.432320 -1.292901
v -0.335756 0.040109 0.000000
v -2.345060 0.006925 0.000000
v -2.315222 0.156954 0.000000
v -2.168317 0.210757 0.000000
v -2.072709 0.449291 0.021824
v 0.001466 0.034418 0.000000
v -0.484437 0.102389 0.000000
v -1.345809 0.045628 0.000000
v -1.311139 0.607185 0.021824
v 0.248215 0.265520 -1.351708
v 2.315639 0.167736 -1.429103
v 0.319698 0.040109 -1.439393
v 2.345682 0.022972 -1.439393
v 0.291549 0.198563 -1.429104
v 2.168159 0.219634 -1.351708
v -0.001466 0.009497 -1.439393
v 2.072709 0.449291 -1.329884
v -0.001466 0.202519 -1.429104
v -0.001466 0.249973 -1.351708
v 0.335756 0.040109 -0.719697
v 0.686396 0.540394 0.008034
v 2.345060 0.006925 -0.719696
v 0.686396 0.540394 -0.664457
v 2.315222 0.156954 -0.714552
v -0.001466 0.249973 -0.675854
v 2.168317 0.210757 -0.675854
v 0.221947 0.432320 -0.670531
v 2.072709 0.449291 -0.654030
v -0.001466 0.021957 -0.719697
v 0.484436 0.102389 -0.719697
v 0.221947 0.432320 0.000000
v 1.346431 0.061675 -1.439393
v 1.403750 0.203126 -1.429104
v 0.598136 0.288280 -1.351708
v 1.364609 0.250900 -1.351708
v 1.342656 0.579883 -1.340796
v -0.001466 0.249973 0.000000
v 1.345809 0.045628 -0.719696
v 0.541671 0.246776 -1.429104
v 0.485058 0.118436 -1.439393
v 1.311140 0.607185 -0.654030
v 0.667039 0.527835 -1.351708
v 0.221947 0.432320 -1.292901
v 0.335756 0.040109 0.000000
v 2.345060 0.006925 0.000000
v 2.315222 0.156954 0.000000
v 2.168317 0.210757 0.000000
v 2.072709 0.449291 0.021824
v -0.001466 0.034418 0.000000
v 0.484437 0.102389 0.000000
v 1.345809 0.045628 0.000000
v 1.311139 0.607185 0.021824
vt 0.899755 0.513652
vt 0.889481 0.503650
vt 0.899766 0.495357
vt 0.905766 0.505742
vt 0.166120 0.363909
vt 0.145879 0.358393
vt 0.151373 0.353482
vt 0.167906 0.353842
vt 0.166856 0.304661
vt 0.179601 0.305727
vt 0.177442 0.334616
vt 0.162329 0.336840
vt 0.183884 0.362536
vt 0.196223 0.338646
vt 0.930372 0.525365
vt 0.916033 0.522298
vt 0.918546 0.512812
vt 0.932216 0.514609
vt 0.105584 0.333016
vt 0.080997 0.306247
vt 0.086021 0.300570
vt 0.114728 0.319080
vt 0.180536 0.369093
vt 0.104323 0.339521
vt 0.078856 0.312784
vt 0.057142 0.270417
vt 0.066969 0.270796
vt 0.070154 0.293309
vt 0.061143 0.296439
vt 0.081909 0.271373
vt 0.083568 0.288965
vt 0.123770 0.272989
vt 0.121526 0.295031
vt 0.200763 0.308075
vt 0.881456 0.513632
vt 0.893308 0.523084
vt 0.942725 0.516020
vt 0.942983 0.525989
vt 0.921378 0.494829
vt 0.912089 0.532943
vt 0.939848 0.504004
vt 0.948324 0.508616
vt 0.953809 0.512636
vt 0.169673 0.274761
vt 0.182005 0.275237
vt 0.942595 0.538163
vt 0.928512 0.536969
vt 0.203239 0.276056
vt 0.955358 0.525301
vt 0.955563 0.538163
vt 0.898248 0.210664
vt 0.890954 0.201065
vt 0.898235 0.188463
vt 0.910716 0.198526
vt 0.082237 0.988808
vt 0.079510 0.961197
vt 0.124322 0.963682
vt 0.138159 0.978119
vt 0.092642 0.828341
vt 0.098159 0.916358
vt 0.057730 0.907179
vt 0.057932 0.828558
vt 0.034459 0.981377
vt 0.006071 0.914153
vt 0.861095 0.224878
vt 0.858857 0.211826
vt 0.875446 0.209645
vt 0.878496 0.221157
vt 0.252499 0.917884
vt 0.230673 0.878261
vt 0.312221 0.834184
vt 0.324629 0.850596
vt 0.042145 0.999820
vt 0.254550 0.935748
vt 0.329053 0.868731
vt 0.396672 0.758637
vt 0.380400 0.828212
vt 0.356674 0.817857
vt 0.370002 0.757607
vt 0.321286 0.803297
vt 0.329456 0.756042
vt 0.217310 0.811767
vt 0.215851 0.751656
vt 0.000181 0.830483
vt 0.920455 0.210640
vt 0.906072 0.222110
vt 0.845791 0.225636
vt 0.846104 0.213538
vt 0.872009 0.187823
vt 0.883281 0.234073
vt 0.849595 0.198957
vt 0.839310 0.204553
vt 0.832653 0.209432
vt 0.057807 0.745555
vt 0.091276 0.746847
vt 0.863352 0.238960
vt 0.846262 0.240408
vt 0.000181 0.743330
vt 0.830775 0.224800
vt 0.830525 0.240408
vt 0.899755 0.562674
vt 0.905766 0.570583
vt 0.899766 0.580969
vt 0.889481 0.572676
vt 0.173003 0.185604
vt 0.174008 0.195778
vt 0.157495 0.194863
vt 0.152397 0.189543
vt 0.169169 0.244732
vt 0.167136 0.212300
vt 0.182033 0.215682
vt 0.181959 0.244652
vt 0.190608 0.188342
vt 0.201068 0.213113
vt 0.930372 0.550960
vt 0.932216 0.561716
vt 0.918546 0.563513
vt 0.916033 0.554027
vt 0.110266 0.211738
vt 0.118308 0.226338
vt 0.088260 0.242580
vt 0.083688 0.236532
vt 0.187776 0.181547
vt 0.109510 0.205156
vt 0.082058 0.229850
vt 0.063138 0.244780
vt 0.071880 0.248596
vt 0.084920 0.253961
vt 0.123232 0.250840
vt 0.203239 0.243943
vt 0.881456 0.562694
vt 0.893308 0.553241
vt 0.942983 0.550336
vt 0.942725 0.560305
vt 0.921378 0.581496
vt 0.912089 0.543383
vt 0.939848 0.572321
vt 0.948324 0.567710
vt 0.953809 0.563689
vt 0.928512 0.539356
vt 0.955358 0.551025
vt 0.898248 0.270152
vt 0.910716 0.282289
vt 0.898235 0.292353
vt 0.890954 0.279750
vt 0.100918 0.504909
vt 0.155850 0.519877
vt 0.140941 0.533205
vt 0.096070 0.532228
vt 0.098921 0.665700
vt 0.064331 0.662808
vt 0.070191 0.584406
vt 0.111208 0.578371
vt 0.052710 0.508634
vt 0.019223 0.573469
vt 0.861095 0.255938
vt 0.878496 0.259659
vt 0.875446 0.271170
vt 0.858857 0.268990
vt 0.265206 0.588748
vt 0.331933 0.661397
vt 0.318296 0.676804
vt 0.240389 0.626571
vt 0.061794 0.490839
vt 0.268628 0.571096
vt 0.337742 0.643657
vt 0.361358 0.696509
vt 0.385813 0.688014
vt 0.324954 0.708298
vt 0.221940 0.691837
vt 0.006900 0.656436
vt 0.920455 0.270176
vt 0.906072 0.258706
vt 0.846104 0.267278
vt 0.845791 0.255180
vt 0.872009 0.292993
vt 0.883281 0.246742
vt 0.849596 0.281859
vt 0.839310 0.276263
vt 0.832653 0.271384
vt 0.863352 0.241856
vt 0.830775 0.256016
vn -0.9260 0.3776 -0.0024
vn 0.0969 0.8190 0.5656
vn -0.4086 -0.9126 0.0146
vn 0.0025 0.0582 0.9983
vn 0.0905 0.9955 0.0297
vn -0.0028 0.0715 0.9974
vn 0.0171 0.8018 0.5974
vn -0.0333 0.8581 0.5124
vn -0.3439 0.9390 0.0000
vn -0.3426 0.9394 -0.0133
vn -0.9808 0.1951 -0.0000
vn -0.9800 0.1988 -0.0044
vn 0.0387 -0.9993 -0.0000
vn -0.0739 -0.9972 -0.0078
vn -0.9282 0.3720 -0.0000
vn 0.2188 0.9758 0.0061
vn -0.0430 0.8634 0.5028
vn 0.0657 -0.9976 0.0223
vn -0.0043 0.0742 0.9972
vn 0.0387 -0.9990 0.0223
vn -0.0136 0.0613 0.9980
vn 0.0225 0.0738 0.9970
vn -0.2030 0.9792 0.0000
vn -0.1900 0.9817 0.0153
vn -0.0074 0.0186 0.9998
vn 0.0205 0.3296 0.9439
vn 0.0954 0.1524 0.9837
vn -0.3864 -0.9223 -0.0000
vn 0.2266 0.9740 0.0000
vn 0.0658 -0.9978 -0.0000
vn -0.0353 -0.9993 -0.0087
vn 0.1063 0.9943 0.0000
vn 0.6323 0.7747 0.0000
vn 0.9260 0.3776 -0.0024
vn -0.0969 0.8190 0.5656
vn 0.4086 -0.9126 0.0146
vn -0.0025 0.0582 0.9983
vn -0.0905 0.9955 0.0297
vn 0.0028 0.0715 0.9974
vn -0.0171 0.8018 0.5974
vn 0.0333 0.8581 0.5124
vn 0.3439 0.9390 0.0000
vn 0.3426 0.9394 -0.0133
vn 0.9808 0.1951 -0.0000
vn 0.9800 0.1988 -0.0044
vn -0.0387 -0.9993 -0.0000
vn 0.0739 -0.9972 -0.0078
vn 0.9282 0.3720 -0.0000
vn -0.2188 0.9758 0.0061
vn 0.0430 0.8634 0.5028
vn -0.0657 -0.9976 0.0223
vn 0.0043 0.0742 0.9972
vn -0.0387 -0.9990 0.0223
vn 0.0136 0.0613 0.9980
vn -0.0225 0.0738 0.9970
vn 0.2030 0.9792 0.0000
vn 0.1900 0.9817 0.0153
vn 0.0074 0.0186 0.9998
vn -0.0205 0.3296 0.9439
vn -0.0954 0.1524 0.9837
vn 0.3864 -0.9223 -0.0000
vn -0.2266 0.9740 0.0000
vn -0.0658 -0.9978 -0.0000
vn 0.0353 -0.9993 -0.0087
vn -0.1063 0.9943 0.0000
vn -0.6323 0.7747 0.0000
vn -0.9260 0.3776 0.0024
vn 0.0969 0.8190 -0.5656
vn -0.4086 -0.9126 -0.0146
vn 0.0025 0.0582 -0.9983
vn 0.0905 0.9955 -0.0297
vn -0.0028 0.0715 -0.9974
vn 0.0171 0.8018 -0.5974
vn -0.0333 0.8581 -0.5124
vn -0.3426 0.9394 0.0133
vn -0.9800 0.1988 0.0044
vn -0.0739 -0.9972 0.0078
vn 0.2188 0.9758 -0.0061
vn -0.0430 0.8634 -0.5028
vn 0.0657 -0.9976 -0.0223
vn -0.0043 0.0742 -0.9972
vn 0.0387 -0.9990 -0.0223
vn -0.0136 0.0613 -0.9980
vn 0.0225 0.0738 -0.9970
vn -0.1900 0.9817 -0.0153
vn -0.0074 0.0186 -0.9998
vn 0.0205 0.3296 -0.9439
vn 0.0954 0.1524 -0.9837
vn -0.0353 -0.9993 0.0087
vn 0.9260 0.3776 0.0024
vn -0.0969 0.8190 -0.5656
vn 0.4086 -0.9126 -0.0146
vn -0.0025 0.0582 -0.9983
vn -0.0905 0.9955 -0.0297
vn 0.0028 0.0715 -0.9974
vn -0.0171 0.8018 -0.5974
vn 0.0333 0.8581 -0.5124
vn 0.3426 0.9394 0.0133
vn 0.9800 0.1988 0.0044
vn 0.0739 -0.9972 0.0078
vn -0.2188 0.9758 -0.0061
vn 0.0430 0.8634 -0.5028
vn -0.0657 -0.9976 -0.0223
vn 0.0043 0.0742 -0.9972
vn -0.0387 -0.9990 -0.0223
vn 0.0136 0.0613 -0.9980
vn -0.0225 0.0738 -0.9970
vn 0.1900 0.9817 -0.0153
vn 0.0074 0.0186 -0.9998
vn -0.0205 0.3296 -0.9439
vn -0.0954 0.1524 -0.9837
vn 0.0353 -0.9993 0.0087
s off
f 19/1/1 17/2/1 6/3/1 8/4/1
f 1/5/2 24/6/2 28/7/2 5/8/2
f 21/9/3 11/10/3 3/11/3 29/12/3
f 9/13/4 5/8/4 3/11/4 7/14/4
f 14/15/5 30/16/5 26/17/5 31/18/5
f 23/19/6 2/20/6 4/21/6 22/22/6
f 10/23/7 1/5/7 5/8/7 9/13/7
f 25/24/8 6/25/8 2/20/8 23/19/8
f 106/26/9 105/27/9 15/28/9 17/29/9
f 6/25/10 17/29/10 15/28/10 2/20/10
f 105/27/11 104/30/11 13/31/11 15/28/11
f 2/20/12 15/28/12 13/31/12 4/21/12
f 104/30/13 110/32/13 27/33/13 13/31/13
f 7/14/14 3/11/14 11/10/14 20/34/14
f 106/35/15 17/2/15 19/1/15 33/36/15
f 31/18/16 32/37/16 18/38/16 14/15/16
f 24/6/17 25/24/17 23/19/17 28/7/17
f 27/33/18 21/9/18 29/12/18 22/22/18
f 28/7/19 23/19/19 22/22/19 29/12/19
f 13/31/20 27/33/20 22/22/20 4/21/20
f 8/4/21 6/3/21 25/39/21 26/17/21
f 5/8/22 28/7/22 29/12/22 3/11/22
f 33/36/23 19/1/23 30/16/23 34/40/23
f 19/1/24 8/4/24 26/17/24 30/16/24
f 24/41/25 31/18/25 26/17/25 25/39/25
f 1/42/26 10/43/26 32/37/26
f 1/42/27 32/37/27 31/18/27 24/41/27
f 11/10/28 21/9/28 109/44/28 103/45/28
f 18/38/29 90/46/29 12/47/29 14/15/29
f 21/9/30 27/33/30 110/32/30 109/44/30
f 11/10/31 103/45/31 108/48/31 20/34/31
f 14/15/32 12/47/32 34/40/32 30/16/32
f 32/37/33 10/43/33 16/49/33 18/38/33
f 18/38/33 16/49/33 96/50/33 90/46/33
f 53/51/34 42/52/34 40/53/34 51/54/34
f 35/55/35 39/56/35 62/57/35 58/58/35
f 55/59/36 63/60/36 37/61/36 45/62/36
f 43/63/37 41/64/37 37/61/37 39/56/37
f 48/65/38 65/66/38 60/67/38 64/68/38
f 57/69/39 56/70/39 38/71/39 36/72/39
f 44/73/40 43/63/40 39/56/40 35/55/40
f 59/74/41 57/69/41 36/72/41 40/75/41
f 149/76/42 51/77/42 49/78/42 148/79/42
f 40/75/43 36/72/43 49/78/43 51/77/43
f 148/79/44 49/78/44 47/80/44 147/81/44
f 36/72/45 38/71/45 47/80/45 49/78/45
f 147/81/46 47/80/46 61/82/46 153/83/46
f 41/64/47 54/84/47 45/62/47 37/61/47
f 149/85/48 67/86/48 53/51/48 51/54/48
f 65/66/49 48/65/49 52/87/49 66/88/49
f 58/58/50 62/57/50 57/69/50 59/74/50
f 61/82/51 56/70/51 63/60/51 55/59/51
f 62/57/52 63/60/52 56/70/52 57/69/52
f 47/80/53 38/71/53 56/70/53 61/82/53
f 42/52/54 60/67/54 59/89/54 40/53/54
f 39/56/55 37/61/55 63/60/55 62/57/55
f 67/86/56 68/90/56 64/68/56 53/51/56
f 53/51/57 64/68/57 60/67/57 42/52/57
f 58/91/58 59/89/58 60/67/58 65/66/58
f 35/92/59 66/88/59 44/93/59
f 35/92/60 58/91/60 65/66/60 66/88/60
f 45/62/61 146/94/61 152/95/61 55/59/61
f 52/87/62 48/65/62 46/96/62 133/97/62
f 55/59/63 152/95/63 153/83/63 61/82/63
f 45/62/64 54/84/64 151/98/64 146/94/64
f 48/65/65 64/68/65 68/90/65 46/96/65
f 66/88/66 52/87/66 50/99/66 44/93/66
f 52/87/66 133/97/66 139/100/66 50/99/66
f 87/101/67 76/102/67 74/103/67 85/104/67
f 69/105/68 73/106/68 98/107/68 93/108/68
f 89/109/69 99/110/69 71/111/69 79/112/69
f 77/113/70 75/114/70 71/111/70 73/106/70
f 82/115/71 101/116/71 95/117/71 100/118/71
f 92/119/72 91/120/72 72/121/72 70/122/72
f 78/123/73 77/113/73 73/106/73 69/105/73
f 94/124/74 92/119/74 70/122/74 74/125/74
f 106/26/9 85/126/9 83/127/9 105/27/9
f 74/125/75 70/122/75 83/127/75 85/126/75
f 105/27/11 83/127/11 81/128/11 104/30/11
f 70/122/76 72/121/76 81/128/76 83/127/76
f 104/30/13 81/128/13 97/129/13 110/32/13
f 75/114/77 88/130/77 79/112/77 71/111/77
f 106/131/15 107/132/15 87/101/15 85/104/15
f 101/116/78 82/115/78 86/133/78 102/134/78
f 93/108/79 98/107/79 92/119/79 94/124/79
f 97/129/80 91/120/80 99/110/80 89/109/80
f 98/107/81 99/110/81 91/120/81 92/119/81
f 81/128/82 72/121/82 91/120/82 97/129/82
f 76/102/83 95/117/83 94/135/83 74/103/83
f 73/106/84 71/111/84 99/110/84 98/107/84
f 107/132/23 111/136/23 100/118/23 87/101/23
f 87/101/85 100/118/85 95/117/85 76/102/85
f 93/137/86 94/135/86 95/117/86 101/116/86
f 69/138/87 102/134/87 78/139/87
f 69/138/88 93/137/88 101/116/88 102/134/88
f 79/112/28 103/45/28 109/44/28 89/109/28
f 86/133/29 82/115/29 80/140/29 90/46/29
f 89/109/30 109/44/30 110/32/30 97/129/30
f 79/112/89 88/130/89 108/48/89 103/45/89
f 82/115/32 100/118/32 111/136/32 80/140/32
f 102/134/33 86/133/33 84/141/33 78/139/33
f 86/133/33 90/46/33 96/50/33 84/141/33
f 130/142/90 128/143/90 117/144/90 119/145/90
f 112/146/91 136/147/91 141/148/91 116/149/91
f 132/150/92 122/151/92 114/152/92 142/153/92
f 120/154/93 116/149/93 114/152/93 118/155/93
f 125/156/94 143/157/94 138/158/94 144/159/94
f 135/160/95 113/161/95 115/162/95 134/163/95
f 121/164/96 112/146/96 116/149/96 120/154/96
f 137/165/97 117/166/97 113/161/97 135/160/97
f 149/76/42 148/79/42 126/167/42 128/168/42
f 117/166/98 128/168/98 126/167/98 113/161/98
f 148/79/44 147/81/44 124/169/44 126/167/44
f 113/161/99 126/167/99 124/169/99 115/162/99
f 147/81/46 153/83/46 140/170/46 124/169/46
f 118/155/100 114/152/100 122/151/100 131/171/100
f 149/172/48 128/143/48 130/142/48 150/173/48
f 144/159/101 145/174/101 129/175/101 125/156/101
f 136/147/102 137/165/102 135/160/102 141/148/102
f 140/170/103 132/150/103 142/153/103 134/163/103
f 141/148/104 135/160/104 134/163/104 142/153/104
f 124/169/105 140/170/105 134/163/105 115/162/105
f 119/145/106 117/144/106 137/176/106 138/158/106
f 116/149/107 141/148/107 142/153/107 114/152/107
f 150/173/56 130/142/56 143/157/56 154/177/56
f 130/142/108 119/145/108 138/158/108 143/157/108
f 136/178/109 144/159/109 138/158/109 137/176/109
f 112/179/110 121/180/110 145/174/110
f 112/179/111 145/174/111 144/159/111 136/178/111
f 122/151/61 132/150/61 152/95/61 146/94/61
f 129/175/62 133/97/62 123/181/62 125/156/62
f 132/150/63 140/170/63 153/83/63 152/95/63
f 122/151/112 146/94/112 151/98/112 131/171/112
f 125/156/65 123/181/65 154/177/65 143/157/65
f 145/174/66 121/180/66 127/182/66 129/175/66
f 129/175/66 127/182/66 139/100/66 133/97/66
