# Blender v2.79 (sub 0) OBJ File: 'Dungeon.blend'
# www.blender.org
o Cube.040_Cube
v 8.579978 31.042561 -1.448807
v 8.707238 35.092743 -1.576067
v 8.579978 31.042561 -5.448807
v 8.707238 35.092743 -5.321548
v 14.579978 31.042561 -1.448807
v 14.452718 35.092743 -1.576067
v 14.579978 31.042561 -5.448807
v 14.452718 35.092743 -5.321548
v 8.579978 32.798531 -1.448807
v 8.579978 33.286591 -1.448807
v 8.579978 33.286591 -5.448807
v 8.579978 32.798531 -5.448807
v 14.579978 33.286591 -5.448807
v 14.579978 32.798531 -5.448807
v 14.579978 33.286591 -1.448807
v 14.579978 32.798531 -1.448807
v 8.579978 34.653492 -1.448807
v 8.579978 34.653492 -5.448807
v 14.579978 34.653492 -5.448807
v 14.579978 34.653492 -1.448807
v 8.579978 31.454538 -5.448807
v 14.579978 31.454538 -5.448807
v 14.579978 31.454538 -1.448807
v 8.579978 31.454538 -1.448807
v 8.579978 31.042561 -5.060863
v 8.579978 31.042561 -1.836751
v 8.707238 35.092743 -1.836751
v 8.707238 35.092743 -5.060863
v 14.579978 31.042561 -1.836751
v 14.579978 31.042561 -5.060863
v 14.452718 35.092743 -5.060863
v 14.452718 35.092743 -1.836751
v 14.536021 32.767319 -5.029651
v 14.536021 32.767319 -1.867964
v 14.536021 33.317802 -5.029651
v 14.536021 33.317802 -1.867964
v 8.623935 32.767319 -1.867964
v 8.623935 32.767319 -5.029651
v 8.623935 33.317802 -1.867964
v 8.623935 33.317802 -5.029651
v 14.536021 34.622280 -5.029651
v 14.536021 34.622280 -1.867964
v 8.623935 34.622280 -1.867964
v 8.623935 34.622280 -5.029651
v 8.623935 31.485752 -1.867964
v 8.623935 31.485752 -5.029651
v 14.536021 31.485752 -5.029651
v 14.536021 31.485752 -1.867964
v 14.165493 31.042561 -5.448807
v 8.994463 31.042561 -5.448807
v 8.994463 35.092743 -5.321548
v 14.165493 35.092743 -5.321548
v 8.994463 31.042561 -1.448807
v 14.165493 31.042561 -1.448807
v 14.165493 35.092743 -1.576067
v 8.994463 35.092743 -1.576067
v 14.134279 32.767319 -1.492764
v 9.025677 32.767319 -1.492764
v 14.134279 33.317802 -1.492764
v 9.025677 33.317802 -1.492764
v 9.025677 32.767319 -5.404850
v 14.134279 32.767319 -5.404850
v 9.025677 33.317802 -5.404850
v 14.134279 33.317802 -5.404850
v 14.134279 34.622280 -1.492764
v 9.025677 34.622280 -1.492764
v 9.025677 34.622280 -5.404850
v 14.134279 34.622280 -5.404850
v 9.025677 31.485752 -5.404850
v 14.134279 31.485752 -5.404850
v 14.134279 31.485752 -1.492764
v 9.025677 31.485752 -1.492764
v 14.165493 35.201130 -1.836751
v 8.994463 35.201130 -1.836751
v 14.165493 35.201130 -5.060863
v 8.994463 35.201130 -5.060863
v 14.165493 31.042561 -5.060863
v 8.994463 31.042561 -5.060863
v 14.165493 31.042561 -1.836751
v 8.994463 31.042561 -1.836751
v 8.579978 35.042561 -5.060863
v 8.579978 35.042561 -5.448807
v 14.165493 35.042561 -5.448807
v 14.579978 35.042561 -5.448807
v 14.579978 35.042561 -1.836751
v 14.579978 35.042561 -1.448807
v 8.994463 35.042561 -1.448807
v 8.579978 35.042561 -1.448807
v 8.579978 35.042561 -1.836751
v 14.579978 35.042561 -5.060863
v 8.994463 35.042561 -5.448807
v 14.165493 35.042561 -1.448807
v 14.165493 35.273968 -5.060863
v 14.452718 35.273968 -5.060863
v 14.165493 35.273968 -1.836751
v 14.452718 35.273968 -1.836751
v 8.707238 35.273968 -5.060863
v 8.994463 35.273968 -5.060863
v 8.707238 35.273968 -1.836751
v 8.994463 35.273968 -1.836751
v 14.165493 35.273968 -5.321548
v 8.994463 35.273968 -5.321548
v 14.165493 35.273968 -1.576067
v 8.994463 35.273968 -1.576067
v 8.707238 35.273968 -5.321548
v 14.452718 35.273968 -5.321548
v 14.452718 35.273968 -1.576067
v 8.707238 35.273968 -1.576067
v 14.579978 32.798531 -5.060863
v 14.579978 32.798531 -1.836751
v 14.579978 33.286591 -5.060863
v 14.579978 33.286591 -1.836751
v 8.579978 32.798531 -1.836751
v 8.579978 32.798531 -5.060863
v 8.579978 33.286591 -1.836751
v 8.579978 33.286591 -5.060863
v 14.579978 34.653492 -5.060863
v 14.579978 34.653492 -1.836751
v 8.579978 34.653492 -1.836751
v 8.579978 34.653492 -5.060863
v 8.579978 31.454538 -1.836751
v 8.579978 31.454538 -5.060863
v 14.579978 31.454538 -5.060863
v 14.579978 31.454538 -1.836751
v 14.165493 32.798531 -1.448807
v 8.994463 32.798531 -1.448807
v 14.165493 33.286591 -1.448807
v 8.994463 33.286591 -1.448807
v 8.994463 32.798531 -5.448807
v 14.165493 32.798531 -5.448807
v 8.994463 33.286591 -5.448807
v 14.165493 33.286591 -5.448807
v 14.165493 34.653492 -1.448807
v 8.994463 34.653492 -1.448807
v 8.994463 34.653492 -5.448807
v 14.165493 34.653492 -5.448807
v 8.994463 31.454538 -5.448807
v 14.165493 31.454538 -5.448807
v 14.165493 31.454538 -1.448807
v 8.994463 31.454538 -1.448807
vt 0.220019 0.480661
vt 0.211255 0.493314
vt 0.202098 0.481547
vt 0.209950 0.472676
vt 0.199276 0.333343
vt 0.188437 0.322911
vt 0.202681 0.315972
vt 0.209391 0.324741
vt 0.320191 0.314114
vt 0.328955 0.301462
vt 0.338112 0.313229
vt 0.330260 0.322100
vt 0.340934 0.461433
vt 0.351773 0.471865
vt 0.337529 0.478803
vt 0.330818 0.470034
vt 0.282720 0.376331
vt 0.282680 0.373254
vt 0.284921 0.373552
vt 0.285628 0.376163
vt 0.207992 0.498495
vt 0.333780 0.495484
vt 0.340548 0.503645
vt 0.200123 0.507420
vt 0.289969 0.419028
vt 0.305100 0.430868
vt 0.300045 0.435927
vt 0.287758 0.422234
vt 0.312166 0.436157
vt 0.306146 0.442593
vt 0.283857 0.369809
vt 0.294171 0.354895
vt 0.299325 0.358815
vt 0.286912 0.371833
vt 0.298644 0.347209
vt 0.305121 0.352103
vt 0.250241 0.375747
vt 0.235110 0.363907
vt 0.240165 0.358848
vt 0.252452 0.372541
vt 0.228044 0.358618
vt 0.234064 0.352182
vt 0.256353 0.424966
vt 0.246039 0.439880
vt 0.240885 0.435960
vt 0.253298 0.422942
vt 0.241565 0.447566
vt 0.235089 0.442672
vt 0.257529 0.421521
vt 0.255289 0.421223
vt 0.253641 0.376979
vt 0.254202 0.374652
vt 0.286569 0.417796
vt 0.286008 0.420123
vt 0.255283 0.370735
vt 0.256459 0.373884
vt 0.284927 0.424040
vt 0.283751 0.420891
vt 0.320977 0.478105
vt 0.299571 0.447574
vt 0.219233 0.316670
vt 0.240639 0.347201
vt 0.294792 0.439726
vt 0.245417 0.355050
vt 0.183315 0.479950
vt 0.197700 0.487577
vt 0.192710 0.494436
vt 0.176345 0.487544
vt 0.197884 0.310799
vt 0.184062 0.319052
vt 0.176860 0.308709
vt 0.192669 0.305327
vt 0.256679 0.377101
vt 0.209935 0.304215
vt 0.330275 0.490560
vt 0.257490 0.418444
vt 0.283531 0.417674
vt 0.254582 0.418612
vt 0.356147 0.475723
vt 0.356895 0.314826
vt 0.363864 0.307232
vt 0.363350 0.486066
vt 0.342326 0.483976
vt 0.347541 0.489449
vt 0.332218 0.296280
vt 0.206429 0.299291
vt 0.199662 0.291130
vt 0.340087 0.287355
vt 0.288865 0.374938
vt 0.251345 0.419837
vt 0.198672 0.463492
vt 0.229257 0.436246
vt 0.341537 0.331283
vt 0.310952 0.358529
vt 0.236163 0.430964
vt 0.304046 0.363812
vt 0.342510 0.307198
vt 0.347500 0.300339
vt 0.352586 0.318796
vt 0.187624 0.475980
vt 0.374431 0.518751
vt 0.166184 0.522032
vt 0.165779 0.276024
vt 0.374026 0.272744
vt 0.161943 0.271618
vt 0.378267 0.268660
vt 0.378267 0.523157
vt 0.161943 0.526116
vt 0.292732 0.355775
vt 0.246855 0.355802
vt 0.241278 0.346056
vt 0.297916 0.346113
vt 0.247478 0.439000
vt 0.293354 0.438973
vt 0.298932 0.448719
vt 0.242293 0.448663
vt 0.317210 0.316005
vt 0.222255 0.318155
vt 0.222999 0.478770
vt 0.317955 0.476620
vt 0.284594 0.424616
vt 0.256694 0.425493
vt 0.255615 0.370160
vt 0.283515 0.369282
vt 0.303899 0.429018
vt 0.303083 0.365577
vt 0.312402 0.359155
vt 0.313493 0.435508
vt 0.236311 0.365757
vt 0.237127 0.429199
vt 0.227807 0.435620
vt 0.226716 0.359268
vt 0.338668 0.457581
vt 0.339558 0.335469
vt 0.201541 0.337194
vt 0.200651 0.459307
vt 0.250578 0.419497
vt 0.249525 0.376114
vt 0.289632 0.375279
vt 0.290685 0.418661
vt 0.919478 0.678355
vt 0.919478 0.662686
vt 0.957457 0.662686
vt 0.957457 0.678355
vt 0.957457 0.646936
vt 0.957457 0.662606
vt 0.919478 0.662606
vt 0.919478 0.646936
vt 0.919478 0.693830
vt 0.919478 0.678436
vt 0.957457 0.678436
vt 0.957457 0.693830
vt 0.957457 0.693910
vt 0.957457 0.709304
vt 0.919478 0.709304
vt 0.919478 0.693910
vt 0.861205 0.775016
vt 0.861205 0.759347
vt 0.922570 0.759347
vt 0.922570 0.775016
vt 0.922570 0.775097
vt 0.922570 0.790766
vt 0.861205 0.790766
vt 0.861205 0.775097
vt 0.919478 0.646856
vt 0.919478 0.631462
vt 0.980844 0.631462
vt 0.980844 0.646856
vt 0.980844 0.615987
vt 0.980844 0.631381
vt 0.919478 0.631381
vt 0.919478 0.615987
vt 0.861125 0.798075
vt 0.799010 0.798075
vt 0.799010 0.759347
vt 0.861125 0.759347
vn -1.0000 0.0000 0.0000
vn 0.0000 0.0000 -1.0000
vn 1.0000 0.0000 0.0000
vn 0.0000 0.0000 1.0000
vn 0.0000 -1.0000 0.0000
vn -0.3668 0.9303 0.0000
vn 0.0000 0.9303 -0.3668
vn 0.3668 0.9303 0.0000
vn 0.0000 0.9303 0.3668
vn 0.0000 1.0000 0.0000
vn 0.5790 -0.8154 0.0000
vn 0.5790 0.8154 0.0000
vn -0.5790 -0.8154 0.0000
vn -0.5790 0.8154 0.0000
vn -0.5790 0.8153 0.0000
vn 0.5790 0.8153 0.0000
vn -0.5790 0.0000 -0.8153
vn -0.5790 0.0000 0.8154
vn 0.5790 0.0000 0.8154
vn 0.5790 0.0000 -0.8153
vn 0.0000 -0.8154 0.5789
vn 0.0000 0.8153 0.5790
vn 0.0000 -0.8154 -0.5789
vn 0.0000 0.8153 -0.5790
vn 0.8153 0.0000 -0.5790
vn -0.8153 0.0000 -0.5790
vn -0.8153 0.0000 0.5790
vn 0.8153 0.0000 0.5790
s off
f 120/1/1 81/2/1 82/3/1 18/4/1
f 136/5/2 83/6/2 84/7/2 19/8/2
f 118/9/3 85/10/3 86/11/3 20/12/3
f 134/13/4 87/14/4 88/15/4 17/16/4
f 79/17/5 29/18/5 5/19/5 54/20/5
f 28/21/1 27/22/1 99/23/1 97/24/1
f 140/25/4 126/26/4 9/27/4 24/28/4
f 126/26/4 128/29/4 10/30/4 9/27/4
f 124/31/3 110/32/3 16/33/3 23/34/3
f 110/32/3 112/35/3 15/36/3 16/33/3
f 138/37/2 130/38/2 14/39/2 22/40/2
f 130/38/2 132/41/2 13/42/2 14/39/2
f 122/43/1 114/44/1 12/45/1 21/46/1
f 114/44/1 116/47/1 11/48/1 12/45/1
f 128/29/4 134/13/4 17/16/4 10/30/4
f 112/35/3 118/9/3 20/12/3 15/36/3
f 132/41/2 136/5/2 19/8/2 13/42/2
f 116/47/1 120/1/1 18/4/1 11/48/1
f 25/49/1 122/43/1 21/46/1 3/50/1
f 49/51/2 138/37/2 22/40/2 7/52/2
f 29/18/3 124/31/3 23/34/3 5/19/3
f 53/53/4 140/25/4 24/28/4 1/54/4
f 7/52/3 22/40/3 123/55/3 30/56/3
f 30/56/3 123/55/3 124/31/3 29/18/3
f 1/54/1 24/28/1 121/57/1 26/58/1
f 26/58/1 121/57/1 122/43/1 25/49/1
f 10/30/1 17/16/1 119/59/1 115/60/1
f 13/42/3 19/8/3 117/61/3 111/62/3
f 9/27/1 10/30/1 115/60/1 113/63/1
f 113/63/1 115/60/1 116/47/1 114/44/1
f 24/28/1 9/27/1 113/63/1 121/57/1
f 14/39/3 13/42/3 111/62/3 109/64/3
f 109/64/3 111/62/3 112/35/3 110/32/3
f 22/40/3 14/39/3 109/64/3 123/55/3
f 51/65/2 4/66/2 105/67/2 102/68/2
f 8/69/2 52/70/2 101/71/2 106/72/2
f 49/51/5 7/52/5 30/56/5 77/73/5
f 77/73/5 30/56/5 29/18/5 79/17/5
f 19/8/3 84/7/3 90/74/3 117/61/3
f 117/61/3 90/74/3 85/10/3 118/9/3
f 17/16/1 88/15/1 89/75/1 119/59/1
f 119/59/1 89/75/1 81/2/1 120/1/1
f 25/49/5 78/76/5 80/77/5 26/58/5
f 78/76/5 77/73/5 79/17/5 80/77/5
f 3/50/5 50/78/5 78/76/5 25/49/5
f 50/78/5 49/51/5 77/73/5 78/76/5
f 56/79/4 55/80/4 103/81/4 104/82/4
f 27/22/1 2/83/1 108/84/1 99/23/1
f 32/85/3 31/86/3 94/87/3 96/88/3
f 4/66/1 28/21/1 97/24/1 105/67/1
f 5/19/4 23/34/4 139/89/4 54/20/4
f 54/20/4 139/89/4 140/25/4 53/53/4
f 3/50/2 21/46/2 137/90/2 50/78/2
f 50/78/2 137/90/2 138/37/2 49/51/2
f 11/48/2 18/4/2 135/91/2 131/92/2
f 15/36/4 20/12/4 133/93/4 127/94/4
f 12/45/2 11/48/2 131/92/2 129/95/2
f 129/95/2 131/92/2 132/41/2 130/38/2
f 21/46/2 12/45/2 129/95/2 137/90/2
f 16/33/4 15/36/4 127/94/4 125/96/4
f 125/96/4 127/94/4 128/29/4 126/26/4
f 23/34/4 16/33/4 125/96/4 139/89/4
f 55/80/4 6/97/4 107/98/4 103/81/4
f 2/83/4 56/79/4 104/82/4 108/84/4
f 26/58/5 80/77/5 53/53/5 1/54/5
f 80/77/5 79/17/5 54/20/5 53/53/5
f 20/12/4 86/11/4 92/99/4 133/93/4
f 133/93/4 92/99/4 87/14/4 134/13/4
f 18/4/2 82/3/2 91/100/2 135/91/2
f 135/91/2 91/100/2 83/6/2 136/5/2
f 28/21/6 4/66/6 82/3/6 81/2/6
f 52/70/7 8/69/7 84/7/7 83/6/7
f 32/85/8 6/97/8 86/11/8 85/10/8
f 56/79/9 2/83/9 88/15/9 87/14/9
f 2/83/6 27/22/6 89/75/6 88/15/6
f 27/22/6 28/21/6 81/2/6 89/75/6
f 8/69/8 31/86/8 90/74/8 84/7/8
f 31/86/8 32/85/8 85/10/8 90/74/8
f 4/66/7 51/65/7 91/100/7 82/3/7
f 51/65/7 52/70/7 83/6/7 91/100/7
f 6/97/9 55/80/9 92/99/9 86/11/9
f 55/80/9 56/79/9 87/14/9 92/99/9
f 100/101/10 99/23/10 108/84/10 104/82/10
f 102/68/10 105/67/10 97/24/10 98/102/10
f 98/102/10 97/24/10 99/23/10 100/101/10
f 94/87/10 93/103/10 95/104/10 96/88/10
f 95/104/1 93/103/1 75/105/1 73/106/1
f 106/72/10 101/71/10 93/103/10 94/87/10
f 101/71/10 102/68/10 98/102/10 93/103/10
f 96/88/10 95/104/10 103/81/10 107/98/10
f 95/104/10 100/101/10 104/82/10 103/81/10
f 6/97/3 32/85/3 96/88/3 107/98/3
f 52/70/2 51/65/2 102/68/2 101/71/2
f 31/86/3 8/69/3 106/72/3 94/87/3
f 98/102/3 100/101/3 74/107/3 76/108/3
f 100/101/2 95/104/2 73/106/2 74/107/2
f 93/103/4 98/102/4 76/108/4 75/105/4
f 34/109/11 33/110/11 109/64/11 110/32/11
f 35/111/12 36/112/12 112/35/12 111/62/12
f 38/113/13 37/114/13 113/63/13 114/44/13
f 39/115/14 40/116/14 116/47/14 115/60/14
f 42/117/11 41/118/11 117/61/11 118/9/11
f 44/119/13 43/120/13 119/59/13 120/1/13
f 45/121/15 46/122/15 122/43/15 121/57/15
f 47/123/16 48/124/16 124/31/16 123/55/16
f 43/120/17 39/115/17 115/60/17 119/59/17
f 40/116/18 44/119/18 120/1/18 116/47/18
f 41/118/19 35/111/19 111/62/19 117/61/19
f 36/112/20 42/117/20 118/9/20 112/35/20
f 37/114/17 45/121/17 121/57/17 113/63/17
f 46/122/18 38/113/18 114/44/18 122/43/18
f 33/110/19 47/123/19 123/55/19 109/64/19
f 48/124/20 34/109/20 110/32/20 124/31/20
f 58/125/21 57/126/21 125/96/21 126/26/21
f 59/127/22 60/128/22 128/29/22 127/94/22
f 62/129/23 61/130/23 129/95/23 130/38/23
f 63/131/24 64/132/24 132/41/24 131/92/24
f 66/133/21 65/134/21 133/93/21 134/13/21
f 68/135/23 67/136/23 135/91/23 136/5/23
f 69/137/24 70/138/24 138/37/24 137/90/24
f 71/139/22 72/140/22 140/25/22 139/89/22
f 67/136/25 63/131/25 131/92/25 135/91/25
f 64/132/26 68/135/26 136/5/26 132/41/26
f 65/134/27 59/127/27 127/94/27 133/93/27
f 60/128/28 66/133/28 134/13/28 128/29/28
f 61/130/25 69/137/25 137/90/25 129/95/25
f 70/138/26 62/129/26 130/38/26 138/37/26
f 57/126/27 71/139/27 139/89/27 125/96/27
f 72/140/28 58/125/28 126/26/28 140/25/28
f 39/141/1 43/142/1 44/143/1 40/144/1
f 35/145/3 41/146/3 42/147/3 36/148/3
f 45/149/1 37/150/1 38/151/1 46/152/1
f 47/153/3 33/154/3 34/155/3 48/156/3
f 63/157/2 67/158/2 68/159/2 64/160/2
f 59/161/4 65/162/4 66/163/4 60/164/4
f 69/165/2 61/166/2 62/167/2 70/168/2
f 71/169/4 57/170/4 58/171/4 72/172/4
f 75/173/10 76/174/10 74/175/10 73/176/10
