# Blender v2.79 (sub 0) OBJ File: 'RotatingPuzzle.blend'
# www.blender.org
o Cylinder.002
v 6.377019 0.377141 4.651791
v 8.946208 0.377141 6.135112
v 3.807831 0.377141 9.101756
v 9.861145 0.377141 5.806129
v 2.889784 0.377141 9.849748
v 0.320595 0.377141 11.333070
v -3.031938 0.377141 9.915544
v -0.462749 0.377141 11.398866
v -9.871706 0.377141 -4.655579
v -9.871706 0.377141 -1.688936
v -7.174032 0.377141 -7.215876
v -9.743221 0.377141 -5.732554
v 0.192111 0.377141 -10.798915
v 10.127442 0.377141 -5.666758
v 7.558254 0.377141 -7.150080
v 10.168198 0.377141 -1.656037
v 10.168198 0.377141 -4.622681
v -6.203348 0.377141 4.757066
v -3.634159 0.377141 9.207031
v -8.772537 0.377141 6.240388
v 9.548431 0.377141 -0.684337
v 9.548431 0.377141 5.248950
v 6.979242 0.377141 3.765628
v -0.660139 0.377141 -10.511503
v -5.798516 0.377141 -7.544859
v -9.164208 0.377141 -0.375092
v -9.164208 0.377141 5.558195
v 6.561250 0.377141 -6.415247
v 9.130439 0.377141 -4.931925
v 9.130439 0.377141 -1.965282
v 0.000000 -0.599922 -11.866574
v 4.541142 -0.599922 -10.963284
v 4.541142 0.599922 -10.963284
v 8.390935 -0.599922 -8.390935
v 10.963284 -0.599922 -4.541142
v 11.866574 -0.599922 0.000001
v 11.866574 0.599922 0.000001
v 10.963284 -0.599922 4.541142
v 10.963284 0.599922 4.541142
v 8.390935 -0.599922 8.390935
v 4.541142 -0.599922 10.963284
v 0.000002 -0.599922 11.866574
v 0.000002 0.599922 11.866574
v -4.541139 -0.599922 10.963286
v -8.390933 -0.599922 8.390938
v -10.963284 -0.599922 4.541143
v -10.963284 0.599922 4.541143
v -11.866574 -0.599922 -0.000000
v -11.866574 0.599922 -0.000000
v -10.963284 -0.599922 -4.541143
v -8.390932 -0.599922 -8.390938
v -4.541136 -0.599922 -10.963287
v 0.000001 0.599922 7.911050
v 0.000001 -0.599922 7.911050
v -3.027424 -0.599922 -7.308858
v -7.308856 0.599922 -3.027429
v -7.308856 -0.599922 -3.027429
v -5.593955 0.599922 -5.593958
v -5.593955 -0.599922 -5.593958
v -7.911050 0.599922 -0.000000
v -7.911050 -0.599922 -0.000000
v 0.000000 0.599922 -7.911050
v 0.000000 -0.599922 -7.911050
v 7.308857 -0.599922 3.027428
v 7.911050 0.599922 0.000000
v 7.911050 -0.599922 0.000000
v 7.308857 -0.599922 -3.027428
v 5.593957 -0.599922 -5.593957
v 5.593957 -0.599922 5.593957
v -3.027426 0.599922 7.308858
v -3.027426 -0.599922 7.308858
v -7.308857 -0.599922 3.027429
v 3.027428 0.599922 7.308857
v 3.027428 -0.599922 7.308857
v -5.593956 -0.599922 5.593958
v 3.027428 0.599922 -7.308857
v 3.027428 -0.599922 -7.308857
v -7.174032 0.377141 -9.204044
v -7.174032 0.599922 -9.204043
v -7.174032 0.599922 -7.215877
v -10.604232 0.599922 -5.078503
v -10.604232 0.377141 -5.078503
v -9.164208 0.599922 -0.375092
v -9.871706 0.599922 -1.688936
v -11.745855 0.377141 -0.606895
v -11.745856 0.599922 -0.606895
v -9.871706 0.599922 -4.655579
v -10.968149 0.377141 4.516690
v -10.968149 0.599922 4.516689
v -9.164208 0.599922 5.558195
v -9.743221 0.599922 -5.732554
v -8.772537 0.599922 7.819827
v -8.772537 0.377141 7.819827
v -11.655124 0.377141 1.063038
v -11.655124 0.599922 1.063038
v -9.813887 0.599922 -0.000000
v -10.049178 0.599922 -5.909199
v -10.049178 0.377141 -5.909198
v -8.772537 0.599922 6.240388
v -10.963284 0.377141 -4.541143
v -5.798516 0.377141 -10.123134
v -5.798516 0.599922 -7.544859
v -4.122453 0.377141 -6.577184
v -5.798517 0.599922 -10.123134
v -8.514530 0.599922 -0.000000
v -7.832754 0.599922 0.393624
v -7.832754 0.377141 0.393624
v -8.390932 0.377141 -8.390938
v -6.605092 0.377141 4.080688
v -7.308857 0.377141 3.027429
v -6.605092 0.599922 4.080688
v -6.203348 0.599922 4.757066
v -3.634159 0.599922 6.903451
v -3.634159 0.377141 6.903452
v -3.634159 0.599922 9.207031
v -6.121622 0.599922 4.804251
v -6.121622 0.377141 4.804250
v -8.390933 0.377141 8.390938
v -5.593956 0.377141 5.593958
v -5.530767 0.377141 10.302038
v -5.530767 0.599922 10.302038
v -2.236618 0.377141 -11.421683
v -2.236618 0.599922 -11.421683
v -0.660139 0.599922 -10.511503
v -0.660139 0.599922 -7.779740
v -0.660139 0.377141 -7.779740
v -3.027424 0.377141 -7.308858
v -4.541136 0.377141 -10.963287
v -4.122453 0.599922 -6.577184
v -3.031938 0.599922 9.915544
v -4.682769 0.377141 10.868652
v -4.682769 0.599922 10.868652
v -0.462749 0.599922 11.398866
v -4.541139 0.377141 10.963286
v -0.462749 0.377141 11.774528
v -0.462749 0.599922 11.774528
v 0.000000 0.377141 -11.866574
v -1.232501 0.377141 -11.621414
v -1.232501 0.599922 -11.621414
v 0.192111 0.599922 -10.798915
v 1.518268 0.377141 -11.564572
v 1.518268 0.599922 -11.564572
v 2.889784 0.599922 9.849748
v 4.669702 0.377141 10.877384
v 4.669702 0.599922 10.877383
v 3.807831 0.599922 9.101757
v 3.807831 0.599922 6.787409
v 3.807831 0.377141 6.787408
v 4.541142 0.377141 10.963284
v 0.320595 0.599922 11.333070
v 0.320595 0.377141 11.802805
v 0.320595 0.599922 11.802805
v 7.558254 0.377141 -8.947314
v 7.558254 0.599922 -8.947314
v 7.558254 0.599922 -7.150080
v 9.130440 0.599922 -4.931925
v 5.382944 0.599922 -5.734951
v 5.382943 0.377141 -5.734951
v 6.561250 0.599922 -6.415247
v 5.593957 0.377141 -5.593957
v 9.130439 0.599922 -1.965282
v 7.308857 0.377141 -3.027428
v 7.686012 0.377141 -1.131341
v 7.686012 0.599922 -1.131341
v 6.979242 0.599922 3.765628
v 6.979242 0.599922 3.520731
v 6.979242 0.377141 3.520731
v 6.377019 0.599922 4.651791
v 6.127068 0.599922 4.796100
v 8.946208 0.599922 6.135112
v 6.127068 0.377141 4.796101
v 5.695793 0.377141 10.191772
v 5.593956 0.377141 5.593956
v 5.695793 0.599922 10.191772
v 8.946208 0.377141 7.559910
v 8.946208 0.599922 7.559911
v 8.390935 0.377141 8.390935
v 10.168197 0.599922 -1.656037
v 10.127442 0.599922 -5.666758
v 10.187863 0.377141 -5.701642
v 8.390936 0.377141 -8.390936
v 9.548432 0.599922 -0.684337
v 10.733738 0.599922 0.000000
v 11.749879 0.377141 0.586669
v 10.168198 0.599922 -4.622681
v 8.363125 0.599922 0.000000
v 7.852396 0.599922 0.294870
v 7.852396 0.377141 0.294870
v 11.749879 0.599922 0.586669
v 7.308857 0.377141 3.027428
v 10.987793 0.377141 4.417935
v 10.279398 0.377141 5.564651
v 10.279399 0.599922 5.564651
v 9.861144 0.599922 5.806129
v 9.548432 0.599922 5.248950
v 9.861145 0.377141 6.190611
v 10.987792 0.599922 4.417935
v 9.861145 0.599922 6.190611
v 10.702632 0.377141 -4.931237
v 10.702632 0.599922 -4.931237
v 10.187863 0.599922 -5.701642
v 11.714781 0.599922 -0.763116
v 11.714781 0.377141 -0.763117
v 10.963284 0.377141 -4.541142
vn -0.5000 0.0000 0.8660
vn -1.0000 0.0000 0.0000
vn 1.0000 0.0000 0.0000
vn -0.0000 1.0000 -0.0000
vn 0.5000 0.0000 0.8660
vn -0.5000 -0.0000 -0.8660
vn 0.5000 0.0000 -0.8660
vn 0.1951 -0.0000 -0.9808
vn 0.5556 -0.0000 -0.8315
vn 0.8315 -0.0000 -0.5556
vn 0.9808 -0.0000 -0.1951
vn 0.9808 0.0000 0.1951
vn 0.8315 -0.0000 0.5556
vn 0.5556 0.0000 0.8315
vn 0.1951 -0.0000 0.9808
vn -0.1951 0.0000 0.9808
vn -0.5556 0.0000 0.8315
vn -0.8315 0.0000 0.5556
vn -0.9808 -0.0000 0.1951
vn -0.9808 0.0000 -0.1951
vn -0.8315 0.0000 -0.5556
vn -0.5556 -0.0000 -0.8315
vn -0.1951 0.0000 -0.9808
vn 0.0000 -1.0000 0.0000
s off
f 1//1 2//1 170//1 168//1
f 2//2 175//2 176//2 170//2
f 3//3 148//3 147//3 146//3
f 1//4 171//4 173//4 148//4 3//4 172//4 177//4 175//4 2//4
f 4//5 192//5 193//5 194//5
f 5//1 144//1 145//1 143//1
f 6//5 5//5 143//5 150//5
f 5//4 6//4 151//4 149//4 144//4
f 7//1 8//1 133//1 130//1
f 8//2 135//2 136//2 133//2
f 7//4 131//4 134//4 135//4 8//4
f 9//2 10//2 84//2 87//2
f 10//6 85//6 86//6 84//6
f 11//6 12//6 91//6 80//6
f 12//7 98//7 97//7 91//7
f 13//7 138//7 139//7 140//7
f 14//7 15//7 155//7 179//7
f 15//3 153//3 154//3 155//3
f 16//3 17//3 185//3 178//3
f 17//5 199//5 200//5 185//5
f 18//1 117//1 116//1 112//1
f 19//6 120//6 121//6 115//6
f 20//5 18//5 112//5 99//5
f 18//4 20//4 93//4 118//4 120//4 19//4 114//4 119//4 117//4
f 21//1 184//1 189//1 183//1 182//1
f 22//7 23//7 165//7 195//7
f 23//3 167//3 166//3 165//3
f 21//4 188//4 190//4 167//4 23//4 22//4 191//4 184//4
f 24//2 126//2 125//2 124//2
f 25//3 101//3 104//3 102//3
f 26//1 107//1 106//1 105//1 83//1
f 27//7 88//7 89//7 90//7
f 26//4 94//4 88//4 27//4 109//4 110//4 107//4
f 28//1 29//1 156//1 159//1
f 29//2 30//2 161//2 156//2
f 30//6 163//6 164//6 161//6
f 28//4 158//4 160//4 162//4 163//4 30//4 29//4
f 31//8 137//8 141//8 142//8 33//8 32//8
f 32//9 33//9 154//9 153//9 181//9 34//9
f 34//10 181//10 180//10 201//10 200//10 199//10 204//10 35//10
f 35//11 204//11 203//11 202//11 37//11 36//11
f 36//12 37//12 189//12 184//12 191//12 197//12 39//12 38//12
f 38//13 39//13 193//13 192//13 196//13 198//13 176//13 175//13 177//13 40//13
f 40//14 177//14 172//14 174//14 145//14 144//14 149//14 41//14
f 41//15 149//15 151//15 152//15 43//15 42//15
f 42//16 43//16 136//16 135//16 134//16 44//16
f 44//17 134//17 131//17 132//17 121//17 120//17 118//17 45//17
f 45//18 118//18 93//18 92//18 47//18 46//18
f 46//19 47//19 89//19 88//19 94//19 95//19 49//19 48//19
f 48//20 49//20 86//20 85//20 100//20 50//20
f 50//21 100//21 82//21 81//21 97//21 98//21 108//21 51//21
f 33//4 142//4 140//4 139//4 123//4 124//4 125//4 62//4 76//4 157//4 159//4 156//4 161//4 164//4 65//4 186//4 182//4 183//4 37//4 202//4 178//4 185//4 200//4 201//4 179//4 155//4 154//4
f 51//22 108//22 78//22 79//22 104//22 101//22 128//22 52//22
f 52//23 128//23 122//23 123//23 139//23 138//23 137//23 31//23
f 31//24 32//24 34//24 35//24 36//24 66//24 67//24 68//24 77//24 63//24 55//24 59//24 57//24 61//24 48//24 50//24 51//24 52//24
f 74//22 73//22 147//22 148//22 173//22 69//22
f 67//18 162//18 160//18 68//18
f 69//21 173//21 171//21 169//21 166//21 167//21 190//21 64//21
f 54//23 53//23 73//23 74//23
f 66//19 65//19 164//19 163//19 162//19 67//19
f 71//8 70//8 53//8 54//8
f 72//10 110//10 109//10 111//10 116//10 117//10 119//10 75//10
f 75//9 119//9 114//9 113//9 70//9 71//9
f 55//14 127//14 103//14 129//14 58//14 59//14
f 61//11 60//11 106//11 107//11 110//11 72//11
f 77//16 76//16 62//16 63//16
f 37//4 183//4 189//4
f 48//24 61//24 72//24 75//24 71//24 54//24 74//24 69//24 64//24 66//24 36//24 38//24 40//24 41//24 42//24 44//24 45//24 46//24
f 63//15 62//15 125//15 126//15 127//15 55//15
f 59//13 58//13 56//13 57//13
f 68//17 160//17 158//17 157//17 76//17 77//17
f 57//12 56//12 60//12 61//12
f 64//20 190//20 188//20 187//20 65//20 66//20
f 122//1 24//1 124//1 123//1
f 151//3 6//3 150//3 152//3
f 153//4 15//4 14//4 180//4 181//4
f 131//5 7//5 130//5 132//5
f 191//6 22//6 195//6 197//6
f 172//7 3//7 146//7 174//7
f 109//6 27//6 90//6 111//6
f 197//4 195//4 165//4 166//4 169//4 168//4 170//4 176//4 198//4 194//4 193//4 39//4
f 174//4 146//4 147//4 73//4 53//4 70//4 113//4 115//4 121//4 132//4 130//4 133//4 136//4 43//4 152//4 150//4 143//4 145//4
f 92//4 99//4 112//4 116//4 111//4 90//4 89//4 47//4
f 95//4 96//4 49//4
f 105//4 106//4 60//4
f 187//4 186//4 65//4
f 203//7 16//7 178//7 202//7
f 196//3 4//3 194//3 198//3
f 180//6 14//6 179//6 201//6
f 98//4 12//4 11//4 78//4 108//4
f 93//3 20//3 99//3 92//3
f 138//4 13//4 141//4 137//4
f 101//4 25//4 103//4 127//4 126//4 24//4 122//4 128//4
f 85//4 10//4 9//4 82//4 100//4
f 188//5 21//5 182//5 186//5 187//5
f 78//2 11//2 80//2 79//2
f 114//2 19//2 115//2 113//2
f 171//5 1//5 168//5 169//5
f 158//5 28//5 159//5 157//5
f 192//4 4//4 196//4
f 94//5 26//5 83//5 96//5 95//5
f 103//7 25//7 102//7 129//7
f 129//4 102//4 104//4 79//4 80//4 91//4 97//4 81//4 87//4 84//4 86//4 49//4 96//4 83//4 105//4 60//4 56//4 58//4
f 199//4 17//4 16//4 203//4 204//4
f 141//6 13//6 140//6 142//6
f 82//1 9//1 87//1 81//1
