# Blender v2.79 (sub 0) OBJ File: 'House.blend'
# www.blender.org
mtllib House.mtl
o Plane.001
v 4.602116 0.000000 1.000000
v 6.602116 0.000000 1.000000
v 4.602116 0.000000 -1.000000
v 6.602116 0.000000 -1.000000
v 4.602116 11.182392 -1.000000
v 4.602116 11.182392 1.000000
v 6.602116 11.182392 1.000000
v 6.602116 11.182392 -1.000000
v 2.079586 1.343616 -3.707241
v 2.079586 4.393917 -3.707241
v 2.079586 1.343616 -4.093668
v 2.079586 4.393917 -4.093668
v 4.790913 1.343616 -3.707241
v 4.790913 4.393917 -3.707241
v 4.790913 1.343616 -4.093668
v 4.790913 4.393917 -4.093668
v -4.786017 1.343616 -3.707241
v -4.786017 4.393918 -3.707241
v -4.786017 1.343616 -4.093668
v -4.786017 4.393918 -4.093668
v -2.060036 1.343616 -3.707241
v -2.060036 4.393918 -3.707241
v -2.060036 1.343616 -4.093668
v -2.060036 4.393918 -4.093668
v -1.195735 0.002641 -3.707241
v -1.195735 4.360214 -3.707241
v -1.195735 0.002641 -4.093668
v -1.195735 4.360214 -4.093668
v 1.209225 0.002641 -3.707241
v 1.209226 4.360214 -3.707241
v 1.209225 0.002641 -4.093668
v 1.209226 4.360214 -4.093668
v -6.000000 0.000000 4.000000
v 6.000000 0.000000 4.000000
v -6.000000 0.000000 -4.000000
v 6.000000 0.000000 -4.000000
v -6.000000 7.000000 4.000000
v 6.000000 7.000000 4.000000
v -6.000000 7.000000 -4.000000
v 6.000000 7.000000 -4.000000
v -6.000000 0.000000 0.000000
v 6.000000 9.000000 0.000000
v -7.054731 9.000000 0.000000
v 7.054731 9.000000 0.000000
v -7.054731 9.509360 0.000000
v 7.054731 9.509360 0.000000
v -7.054731 7.011707 5.000000
v 7.054731 6.502347 -5.000000
v 7.054731 7.011707 -5.000000
v 7.054731 7.011707 5.000000
v 7.054731 6.502347 5.000000
v -7.054731 6.502347 5.000000
v -7.054731 6.502347 -5.000000
v -7.054731 7.011707 -5.000000
v 6.000000 6.233795 4.000000
v -6.000000 6.233795 0.000000
v -6.000000 5.780399 -4.000000
v 6.000000 5.780399 -4.000000
v -6.000000 5.780399 4.000000
v -6.000000 5.780399 0.000000
v 6.000000 0.501796 4.000000
v -6.000000 0.501796 -4.000000
v -6.000000 0.501796 4.000000
v -6.000000 0.501796 0.000000
v 4.285714 0.000000 -4.000000
v -0.857142 7.000000 4.000000
v 4.285714 7.000000 -4.000000
v 2.571428 7.000000 -4.000000
v 0.857142 7.000000 -4.000000
v -0.857143 7.000000 -4.000000
v -2.571428 7.000000 -4.000000
v -4.285714 7.000000 -4.000000
v 0.857142 6.233795 4.000000
v -4.285714 6.233795 -4.000000
v -2.571428 6.233795 -4.000000
v -0.857142 6.233795 -4.000000
v 0.857143 6.233795 -4.000000
v 2.571429 6.233795 -4.000000
v 4.285714 6.233795 -4.000000
v -4.714286 5.780399 -4.000000
v -2.142857 5.780399 -4.000000
v -1.212441 5.780399 -4.000000
v 1.212441 5.780399 -4.000000
v 2.142858 5.780399 -4.000000
v 4.714285 5.780399 -4.000000
v 4.285714 5.780399 4.000000
v 2.571428 5.780399 4.000000
v 0.857142 5.780399 4.000000
v -0.857143 5.780399 4.000000
v -2.571428 5.780399 4.000000
v -4.285714 5.780399 4.000000
v 4.285714 0.501796 4.000000
v 2.571428 0.501796 4.000000
v 0.857142 0.501796 4.000000
v -0.857143 0.501796 4.000000
v -2.571428 0.501796 4.000000
v -4.285714 0.501796 4.000000
v -4.714286 0.501796 -4.000000
v -2.142857 0.501796 -4.000000
v -1.212441 0.501796 -4.000000
v 1.212441 0.501796 -4.000000
v 2.142858 0.501796 -4.000000
v 4.714285 0.501796 -4.000000
v 5.571428 6.233795 -4.000000
v 5.678571 5.780399 -4.000000
v 5.678571 0.501796 -4.000000
v 5.571428 7.000000 -4.000000
v 5.571428 6.233795 4.000000
v 5.571428 5.780399 4.000000
v 5.571428 0.501796 4.000000
v -5.571428 7.000000 -4.000000
v -5.571428 5.780399 4.000000
v -5.571428 0.501796 4.000000
v -5.571428 6.233795 -4.000000
v -5.678572 5.780399 -4.000000
v -5.678572 0.501796 -4.000000
v 2.857142 0.000000 -4.000000
v 4.000000 7.000000 4.000000
v 3.999999 7.000000 -4.000000
v 2.857142 7.000000 -4.000000
v 2.857143 6.233795 -4.000000
v 4.000000 6.233795 -4.000000
v 2.571429 5.780399 -4.000000
v 4.285714 5.780399 -4.000000
v 3.999999 5.780399 4.000000
v 2.857142 5.780399 4.000000
v 3.999999 0.501796 4.000000
v 2.857142 0.501796 4.000000
v 2.571429 0.501796 -4.000000
v 4.285714 0.501796 -4.000000
v 0.571428 7.000000 -4.000000
v -0.571429 7.000000 -4.000000
v 0.571428 6.233795 4.000000
v -0.571428 6.233795 -4.000000
v 0.571429 6.233795 -4.000000
v -0.808293 5.780399 -4.000000
v 0.808294 5.780399 -4.000000
v 0.571428 5.780399 4.000000
v -0.571429 5.780399 4.000000
v 0.571428 0.501796 4.000000
v -0.571429 0.501796 4.000000
v -0.808293 0.501796 -4.000000
v 0.808294 0.501796 -4.000000
v -3.999998 0.000000 4.000000
v -2.857142 7.000000 -4.000000
v -4.000000 7.000000 -4.000000
v -3.999998 6.233795 -4.000000
v -2.857141 6.233795 -4.000000
v -4.285713 5.780399 -4.000000
v -2.571428 5.780399 -4.000000
v -2.857142 5.780399 4.000000
v -4.000000 5.780399 4.000000
v -2.857142 0.501796 4.000000
v -4.000000 0.501796 4.000000
v -4.285713 0.501796 -4.000000
v -2.571428 0.501796 -4.000000
v 5.571428 7.000000 -3.900298
v 4.285714 7.000000 -3.900298
v 2.571428 7.000000 -3.900298
v 0.857142 7.000000 -3.900298
v -0.857143 7.000000 -3.900298
v -2.571428 7.000000 -3.900298
v -5.571428 6.233795 -3.900298
v -4.285714 6.233795 -3.900298
v -2.571428 6.233795 -3.900298
v -0.857142 6.233795 -3.900298
v 0.857143 6.233795 -3.900298
v 2.571429 6.233795 -3.900298
v -5.678572 5.780399 -3.900298
v -4.714286 5.780399 -3.900298
v -2.142857 5.780399 -3.900298
v -1.212441 5.780399 -3.900298
v 1.212441 5.780399 -3.900298
v 2.142858 5.780399 -3.900298
v -5.678572 0.501796 -3.900298
v -4.714286 0.501796 -3.900298
v -2.142857 0.501796 -3.900298
v -1.212441 0.501796 -3.900298
v 1.212441 0.501796 -3.900298
v 2.142858 0.501796 -3.900298
v 4.714285 0.501796 -3.900298
v 4.714285 5.780399 -3.900298
v 4.285714 6.233795 -3.900298
v -4.285714 7.000000 -3.900298
v 5.571428 6.233795 -3.900298
v 5.678571 5.780399 -3.900298
v 5.678571 0.501796 -3.900298
v -5.571428 7.000000 -3.900298
v 3.999999 7.000000 -3.900298
v 2.857142 7.000000 -3.900298
v 2.857143 6.233795 -3.900298
v 4.000000 6.233795 -3.900298
v 2.571429 5.780399 -3.900298
v 4.285714 5.780399 -3.900298
v 2.571429 0.501796 -3.900298
v 4.285714 0.501796 -3.900298
v 0.571428 7.000000 -3.900298
v -0.571429 7.000000 -3.900298
v -0.571428 6.233795 -3.900298
v 0.571429 6.233795 -3.900298
v -0.808293 5.780399 -3.900298
v 0.808294 5.780399 -3.900298
v -0.808293 0.501796 -3.900298
v 0.808294 0.501796 -3.900298
v -2.857142 7.000000 -3.900298
v -4.000000 7.000000 -3.900298
v -3.999998 6.233795 -3.900298
v -2.857141 6.233795 -3.900298
v -4.285713 5.780399 -3.900298
v -2.571428 5.780399 -3.900298
v -4.285713 0.501796 -3.900298
v -2.571428 0.501796 -3.900298
v 5.571428 5.780399 3.934803
v 4.285714 5.780399 3.934803
v 2.571428 5.780399 3.934803
v 0.857142 5.780399 3.934803
v -0.857143 5.780399 3.934803
v -2.571428 5.780399 3.934803
v 5.571428 0.501796 3.934803
v 4.285714 0.501796 3.934803
v 2.571428 0.501796 3.934803
v 0.857142 0.501796 3.934803
v -0.857143 0.501796 3.934803
v -2.571428 0.501796 3.934803
v -4.285714 0.501796 3.934803
v -4.285714 5.780399 3.934803
v -5.571428 5.780399 3.934803
v -5.571428 0.501796 3.934803
v 3.999999 5.780399 3.934803
v 2.857142 5.780399 3.934803
v 3.999999 0.501796 3.934803
v 2.857142 0.501796 3.934803
v 0.571428 5.780399 3.934803
v -0.571429 5.780399 3.934803
v 0.571428 0.501796 3.934803
v -0.571429 0.501796 3.934803
v -2.857142 5.780399 3.934803
v -4.000000 5.780399 3.934803
v -2.857142 0.501796 3.934803
v -4.000000 0.501796 3.934803
v 6.000000 8.366581 -1.266838
v -6.000000 0.000000 -1.266838
v -6.000000 8.366581 -1.266838
v -6.000000 6.233795 -1.266838
v 6.000000 6.233795 -1.266838
v 6.000000 5.780399 -1.266838
v -6.000000 5.780399 -1.266838
v -6.000000 0.501796 -1.266838
v 6.000000 0.501796 -1.266838
v -6.000000 8.304657 1.390686
v 6.000000 8.304657 1.390686
v 6.000000 6.233795 1.390686
v -6.000000 6.233795 1.390686
v -6.000000 5.780399 1.390686
v 6.000000 5.780399 1.390686
v 6.000000 0.501796 1.390686
v -6.000000 0.501796 1.390686
v -6.000000 7.184842 3.630316
v 6.000000 6.233795 3.630316
v 6.000000 5.780399 3.630316
v 6.000000 0.501796 3.630316
v 6.000000 7.184842 3.630316
v -6.000000 6.233795 3.630316
v -6.000000 5.780399 3.630316
v -6.000000 0.501796 3.630316
v 6.000000 7.175986 -3.648028
v -6.000000 6.233795 -3.648028
v -6.000000 5.780399 -3.648028
v -6.000000 0.501796 -3.648028
v -6.000000 7.175986 -3.648028
v 6.000000 6.233795 -3.648028
v 6.000000 5.780399 -3.648028
v 6.000000 0.501796 -3.648028
v -6.000000 8.563159 -0.873681
v -6.000000 6.233795 -0.873681
v -6.000000 5.780399 -0.873681
v -6.000000 0.501796 -0.873681
v -6.000000 6.233795 0.935491
v -6.000000 5.780399 0.935491
v -6.000000 0.501796 0.935491
v -6.000000 8.532254 0.935491
v 6.000000 5.780399 0.935491
v 6.000000 0.501796 0.935491
v -5.945510 8.563159 -0.873681
v -5.945510 9.000000 0.000000
v -5.945510 6.233795 0.935491
v -5.945510 5.780399 0.935491
v -5.945510 0.501796 0.935491
v -5.945510 7.175986 -3.648028
v -5.945510 8.366581 -1.266838
v 5.904643 6.233795 -3.648028
v 5.904643 6.233795 -1.266838
v 5.904643 5.780399 -3.648028
v 5.904643 5.780399 -1.266838
v 5.904643 0.501796 -3.648028
v 5.904643 0.501796 -1.266838
v -5.945510 0.501796 -1.266838
v -5.945510 5.780399 -1.266838
v -5.945510 6.233795 -1.266838
v 5.904643 8.366581 -1.266838
v 5.904643 7.184842 3.630316
v 5.904643 8.304657 1.390686
v -5.945510 6.233795 3.630316
v -5.945510 6.233795 1.390686
v -5.945510 5.780399 3.630316
v -5.945510 5.780399 1.390686
v -5.945510 0.501796 3.630316
v -5.945510 0.501796 1.390686
v 5.904643 0.501796 1.390686
v 5.904643 5.780399 1.390686
v 5.904643 6.233795 1.390686
v -5.945510 8.304657 1.390686
v -5.945510 7.184842 3.630316
v 5.904643 6.233795 3.630316
v 5.904643 5.780399 3.630316
v 5.904643 0.501796 3.630316
v 5.904643 7.175986 -3.648028
v -5.945510 6.233795 -3.648028
v -5.945510 5.780399 -3.648028
v -5.945510 0.501796 -3.648028
v -5.945510 6.233795 -0.873681
v -5.945510 5.780399 -0.873681
v -5.945510 0.501796 -0.873681
v -5.945510 8.532254 0.935491
vn 0.0000 -1.0000 0.0000
vn 0.0000 1.0000 0.0000
vn 1.0000 0.0000 0.0000
vn -1.0000 0.0000 0.0000
vn 0.0000 0.0000 -1.0000
vn 0.0000 0.0000 1.0000
vn 0.0000 -0.8953 0.4455
vn 0.0000 -0.8944 0.4472
vn 0.0000 -0.8944 -0.4472
vn 0.0000 0.8946 0.4469
vn 0.0000 0.8946 -0.4469
vn 0.0000 -0.8953 -0.4455
vn -0.0015 -0.8946 0.4469
vn 0.0015 -0.8946 0.4469
vn 0.0020 -0.8944 0.4472
vn -0.0020 -0.8944 0.4472
vn -0.0020 -0.8944 -0.4472
vn 0.0006 -0.8946 -0.4469
vn -0.0006 -0.8946 -0.4469
vn 0.0020 -0.8944 -0.4472
usemtl Material.004
s off
f 1//1 3//1 4//1 2//1
f 6//2 7//2 8//2 5//2
f 2//3 4//3 8//3 7//3
f 3//4 1//4 6//4 5//4
f 4//5 3//5 5//5 8//5
f 1//6 2//6 7//6 6//6
usemtl Material.001
f 9//4 10//4 12//4 11//4
f 11//5 12//5 16//5 15//5
f 15//3 16//3 14//3 13//3
f 13//6 14//6 10//6 9//6
f 11//1 15//1 13//1 9//1
f 16//2 12//2 10//2 14//2
f 17//4 18//4 20//4 19//4
f 19//5 20//5 24//5 23//5
f 23//3 24//3 22//3 21//3
f 21//6 22//6 18//6 17//6
f 19//1 23//1 21//1 17//1
f 24//2 20//2 18//2 22//2
f 25//4 26//4 28//4 27//4
f 27//5 28//5 32//5 31//5
f 31//3 32//3 30//3 29//3
f 29//6 30//6 26//6 25//6
f 27//1 31//1 29//1 25//1
f 32//2 28//2 26//2 30//2
f 249//5 294//5 246//5
f 55//6 108//6 109//6
f 133//6 66//6 139//6
f 244//4 267//4 247//4
f 63//4 264//4 265//4
f 62//5 115//5 116//5
f 260//1 310//1 255//1
f 97//6 113//6 144//6
f 86//1 213//1 109//1
f 153//2 240//2 154//2
f 152//1 237//1 151//1
f 69//3 167//3 77//3
f 102//4 174//4 84//4
f 137//1 201//1 136//1
f 137//5 77//5 83//5
f 99//5 156//5 150//5
f 70//1 162//1 71//1
f 78//4 159//4 68//4
f 155//2 212//2 156//2
f 58//5 106//5 105//5
f 125//4 231//4 127//4
f 85//3 181//3 103//3
f 67//3 183//3 79//3
f 85//5 103//5 130//5
f 134//2 200//2 135//2
f 323//2 64//2 288//2
f 68//1 160//1 69//1
f 95//2 224//2 96//2
f 115//3 175//3 116//3
f 145//1 206//1 146//1
f 128//3 230//3 126//3
f 107//1 158//1 67//1
f 150//5 147//5 148//5
f 72//1 188//1 111//1
f 97//2 228//2 113//2
f 83//3 179//3 101//3
f 116//2 176//2 98//2
f 76//4 161//4 70//4
f 100//4 172//4 82//4
f 156//4 210//4 150//4
f 104//4 157//4 107//4
f 148//4 205//4 145//4
f 71//3 165//3 75//3
f 111//3 163//3 114//3
f 81//3 177//3 99//3
f 149//3 211//3 155//3
f 99//2 178//2 100//2
f 146//3 207//3 147//3
f 114//2 164//2 74//2
f 74//4 184//4 72//4
f 98//4 170//4 80//4
f 131//1 198//1 132//1
f 121//2 192//2 122//2
f 101//2 180//2 102//2
f 75//2 166//2 76//2
f 142//2 204//2 143//2
f 124//1 193//1 123//1
f 106//4 186//4 105//4
f 77//2 168//2 78//2
f 143//4 202//4 137//4
f 135//4 197//4 131//4
f 80//1 169//1 115//1
f 136//3 203//3 142//3
f 132//3 199//3 134//3
f 119//1 190//1 120//1
f 82//1 171//1 81//1
f 129//2 196//2 130//2
f 84//1 173//1 83//1
f 130//4 194//4 124//4
f 122//4 189//4 119//4
f 79//2 185//2 104//2
f 123//3 195//3 129//3
f 120//3 191//3 121//3
f 105//1 182//1 85//1
f 147//2 208//2 148//2
f 103//2 187//2 106//2
f 150//1 209//1 149//1
f 141//3 234//3 139//3
f 126//1 229//1 125//1
f 113//3 227//3 112//3
f 88//1 215//1 87//1
f 138//4 235//4 140//4
f 127//2 232//2 128//2
f 91//4 225//4 97//4
f 90//1 217//1 89//1
f 96//3 218//3 90//3
f 109//4 219//4 110//4
f 89//4 223//4 95//4
f 154//3 238//3 152//3
f 110//2 220//2 92//2
f 139//1 233//1 138//1
f 94//3 216//3 88//3
f 151//4 239//4 153//4
f 87//4 221//4 93//4
f 93//2 222//2 94//2
f 140//2 236//2 141//2
f 112//1 226//1 91//1
f 92//3 214//3 86//3
f 287//4 323//4 288//4
f 117//1 65//1 34//1
f 247//5 297//5 248//5
f 283//3 255//3 256//3
f 252//2 314//2 259//2
f 280//4 257//4 254//4
f 269//4 57//4 62//4
f 56//2 286//2 321//2
f 279//5 288//5 280//5
f 245//3 241//3 251//3
f 254//1 305//1 264//1
f 259//5 301//5 262//5
f 287//1 60//1 322//1
f 324//4 284//4 321//4
f 263//2 304//2 253//2
f 277//6 322//6 276//6
f 96//6 90//6 151//6
f 258//5 303//5 263//5
f 256//2 316//2 261//2
f 272//6 295//6 273//6
f 275//6 284//6 274//6
f 265//2 308//2 257//2
f 271//2 292//2 245//2
f 246//1 293//1 272//1
f 261//5 315//5 260//5
f 251//6 311//6 252//6
f 267//6 289//6 270//6
f 253//6 312//6 250//6
f 244//2 318//2 267//2
f 255//6 309//6 256//6
f 281//5 286//5 278//5
f 266//6 291//6 271//6
f 273//2 296//2 249//2
f 268//1 298//1 247//1
f 257//6 306//6 254//6
f 248//2 320//2 269//2
f 264//5 307//5 265//5
f 243//5 299//5 244//5
f 245//5 300//5 241//5
f 269//6 319//6 268//6
f 249//5 296//5 294//5
f 109//6 110//6 61//6
f 61//6 55//6 109//6
f 73//6 88//6 87//6
f 126//6 125//6 118//6
f 73//6 87//6 118//6
f 87//6 126//6 118//6
f 139//6 138//6 133//6
f 133//6 73//6 66//6
f 73//6 118//6 66//6
f 66//6 89//6 139//6
f 89//6 95//6 139//6
f 95//6 141//6 139//6
f 276//4 60//4 56//4
f 275//4 274//4 243//4
f 276//4 56//4 275//4
f 41//4 64//4 277//4
f 277//4 276//4 247//4
f 276//4 275//4 244//4
f 275//4 243//4 244//4
f 267//4 270//4 39//4
f 276//4 244//4 247//4
f 267//4 39//4 57//4
f 242//4 41//4 277//4
f 247//4 248//4 277//4
f 248//4 242//4 277//4
f 267//4 57//4 268//4
f 267//4 268//4 247//4
f 63//4 59//4 264//4
f 62//5 57//5 115//5
f 260//1 315//1 310//1
f 63//6 33//6 113//6
f 33//6 144//6 113//6
f 154//6 152//6 91//6
f 112//6 59//6 63//6
f 113//6 112//6 63//6
f 144//6 154//6 97//6
f 154//6 91//6 97//6
f 86//1 214//1 213//1
f 153//2 239//2 240//2
f 152//1 238//1 237//1
f 69//3 160//3 167//3
f 102//4 180//4 174//4
f 137//1 202//1 201//1
f 137//5 136//5 134//5
f 136//5 82//5 76//5
f 82//5 81//5 76//5
f 81//5 75//5 76//5
f 76//5 70//5 132//5
f 101//5 143//5 137//5
f 136//5 76//5 134//5
f 76//5 132//5 134//5
f 135//5 131//5 69//5
f 135//5 69//5 77//5
f 137//5 134//5 135//5
f 83//5 101//5 137//5
f 78//5 84//5 77//5
f 84//5 83//5 77//5
f 137//5 135//5 77//5
f 102//5 84//5 123//5
f 84//5 78//5 123//5
f 78//5 68//5 120//5
f 120//5 121//5 78//5
f 121//5 123//5 78//5
f 129//5 117//5 102//5
f 117//5 35//5 100//5
f 102//5 117//5 101//5
f 35//5 62//5 116//5
f 35//5 116//5 98//5
f 142//5 143//5 117//5
f 143//5 101//5 117//5
f 142//5 117//5 100//5
f 102//5 123//5 129//5
f 82//5 136//5 142//5
f 100//5 82//5 142//5
f 80//5 115//5 114//5
f 115//5 57//5 114//5
f 57//5 39//5 114//5
f 39//5 111//5 114//5
f 74//5 72//5 146//5
f 80//5 114//5 74//5
f 98//5 80//5 149//5
f 80//5 74//5 149//5
f 74//5 146//5 147//5
f 74//5 147//5 149//5
f 98//5 149//5 155//5
f 75//5 81//5 150//5
f 81//5 99//5 150//5
f 99//5 100//5 35//5
f 35//5 98//5 155//5
f 35//5 155//5 156//5
f 145//5 71//5 75//5
f 150//5 148//5 75//5
f 148//5 145//5 75//5
f 99//5 35//5 156//5
f 69//7 131//7 48//7
f 132//7 70//7 53//7
f 120//7 68//7 48//7
f 300//8 317//8 266//8
f 274//8 284//8 285//8
f 289//8 290//8 270//8
f 290//8 243//8 270//8
f 70//1 161//1 162//1
f 78//4 168//4 159//4
f 155//2 211//2 212//2
f 36//5 65//5 103//5
f 36//5 103//5 106//5
f 107//5 40//5 104//5
f 40//5 58//5 104//5
f 58//5 36//5 106//5
f 105//5 104//5 58//5
f 125//4 229//4 231//4
f 85//3 182//3 181//3
f 67//3 158//3 183//3
f 124//5 123//5 121//5
f 122//5 119//5 67//5
f 124//5 121//5 122//5
f 117//5 129//5 130//5
f 124//5 122//5 79//5
f 122//5 67//5 79//5
f 65//5 117//5 130//5
f 103//5 65//5 130//5
f 130//5 124//5 85//5
f 124//5 79//5 85//5
f 79//5 104//5 85//5
f 104//5 105//5 85//5
f 134//2 199//2 200//2
f 277//2 64//2 323//2
f 64//2 280//2 288//2
f 68//1 159//1 160//1
f 95//2 223//2 224//2
f 115//3 169//3 175//3
f 145//1 205//1 206//1
f 128//3 232//3 230//3
f 107//1 157//1 158//1
f 150//5 149//5 147//5
f 72//1 184//1 188//1
f 97//2 225//2 228//2
f 83//3 173//3 179//3
f 116//2 175//2 176//2
f 76//4 166//4 161//4
f 100//4 178//4 172//4
f 156//4 212//4 210//4
f 104//4 185//4 157//4
f 148//4 208//4 205//4
f 71//3 162//3 165//3
f 111//3 188//3 163//3
f 81//3 171//3 177//3
f 149//3 209//3 211//3
f 99//2 177//2 178//2
f 146//3 206//3 207//3
f 114//2 163//2 164//2
f 74//4 164//4 184//4
f 98//4 176//4 170//4
f 131//1 197//1 198//1
f 121//2 191//2 192//2
f 101//2 179//2 180//2
f 75//2 165//2 166//2
f 142//2 203//2 204//2
f 124//1 194//1 193//1
f 106//4 187//4 186//4
f 77//2 167//2 168//2
f 143//4 204//4 202//4
f 135//4 200//4 197//4
f 80//1 170//1 169//1
f 136//3 201//3 203//3
f 132//3 198//3 199//3
f 119//1 189//1 190//1
f 82//1 172//1 171//1
f 129//2 195//2 196//2
f 84//1 174//1 173//1
f 130//4 196//4 194//4
f 122//4 192//4 189//4
f 79//2 183//2 185//2
f 123//3 193//3 195//3
f 120//3 190//3 191//3
f 105//1 186//1 182//1
f 147//2 207//2 208//2
f 103//2 181//2 187//2
f 150//1 210//1 209//1
f 141//3 236//3 234//3
f 126//1 230//1 229//1
f 113//3 228//3 227//3
f 88//1 216//1 215//1
f 138//4 233//4 235//4
f 127//2 231//2 232//2
f 91//4 226//4 225//4
f 90//1 218//1 217//1
f 96//3 224//3 218//3
f 109//4 213//4 219//4
f 89//4 217//4 223//4
f 154//3 240//3 238//3
f 110//2 219//2 220//2
f 139//1 234//1 233//1
f 94//3 222//3 216//3
f 151//4 237//4 239//4
f 87//4 215//4 221//4
f 93//2 221//2 222//2
f 140//2 235//2 236//2
f 112//1 227//1 226//1
f 92//3 220//3 214//3
f 287//4 322//4 323//4
f 34//1 144//1 117//1
f 144//1 33//1 41//1
f 41//1 242//1 117//1
f 242//1 35//1 117//1
f 144//1 41//1 117//1
f 65//1 36//1 34//1
f 247//5 298//5 297//5
f 36//3 58//3 273//3
f 58//3 272//3 273//3
f 273//3 249//3 36//3
f 249//3 283//3 36//3
f 61//3 34//3 261//3
f 34//3 36//3 283//3
f 261//3 34//3 256//3
f 256//3 34//3 283//3
f 283//3 282//3 255//3
f 252//2 311//2 314//2
f 280//4 64//4 41//4
f 41//4 33//4 257//4
f 33//4 63//4 265//4
f 265//4 257//4 33//4
f 56//4 60//4 279//4
f 250//4 281//4 278//4
f 278//4 56//4 279//4
f 278//4 279//4 253//4
f 279//4 280//4 254//4
f 253//4 279//4 254//4
f 253//4 250//4 278//4
f 37//4 258//4 263//4
f 59//4 37//4 263//4
f 254//4 264//4 253//4
f 264//4 59//4 263//4
f 253//4 264//4 263//4
f 280//4 41//4 257//4
f 312//9 313//9 258//9
f 250//9 312//9 258//9
f 285//9 324//9 281//9
f 301//9 302//9 251//9
f 262//9 301//9 251//9
f 62//4 35//4 269//4
f 35//4 242//4 269//4
f 242//4 248//4 269//4
f 269//4 268//4 57//4
f 321//2 275//2 56//2
f 56//2 278//2 286//2
f 279//5 287//5 288//5
f 282//3 283//3 249//3
f 246//3 272//3 245//3
f 272//3 58//3 271//3
f 252//3 282//3 245//3
f 282//3 249//3 246//3
f 260//3 255//3 259//3
f 255//3 282//3 252//3
f 260//3 259//3 55//3
f 282//3 246//3 245//3
f 61//3 261//3 260//3
f 255//3 252//3 259//3
f 55//3 61//3 260//3
f 262//3 38//3 259//3
f 38//3 55//3 259//3
f 58//3 40//3 271//3
f 40//3 266//3 271//3
f 251//3 252//3 245//3
f 245//3 272//3 271//3
f 254//1 306//1 305//1
f 259//5 314//5 301//5
f 279//1 60//1 287//1
f 60//1 276//1 322//1
f 321//4 286//4 324//4
f 324//4 285//4 284//4
f 263//2 303//2 304//2
f 277//6 323//6 322//6
f 86//6 109//6 108//6
f 108//6 55//6 38//6
f 38//6 118//6 108//6
f 118//6 125//6 86//6
f 108//6 118//6 86//6
f 86//6 125//6 127//6
f 61//6 110//6 34//6
f 110//6 92//6 34//6
f 92//6 86//6 127//6
f 128//6 126//6 87//6
f 92//6 127//6 34//6
f 128//6 87//6 93//6
f 128//6 93//6 34//6
f 93//6 94//6 34//6
f 34//6 127//6 128//6
f 154//6 144//6 153//6
f 144//6 34//6 94//6
f 153//6 144//6 96//6
f 96//6 144//6 95//6
f 94//6 88//6 140//6
f 88//6 73//6 138//6
f 140//6 88//6 138//6
f 73//6 133//6 138//6
f 140//6 141//6 144//6
f 141//6 95//6 144//6
f 140//6 144//6 94//6
f 91//6 152//6 37//6
f 152//6 151//6 66//6
f 37//6 59//6 112//6
f 112//6 91//6 37//6
f 152//6 66//6 37//6
f 90//6 89//6 66//6
f 151//6 153//6 96//6
f 90//6 66//6 151//6
f 258//5 313//5 303//5
f 256//2 309//2 316//2
f 272//6 293//6 295//6
f 275//6 321//6 284//6
f 265//2 307//2 308//2
f 271//2 291//2 292//2
f 246//1 294//1 293//1
f 261//5 316//5 315//5
f 251//6 302//6 311//6
f 267//6 318//6 289//6
f 253//6 304//6 312//6
f 244//2 299//2 318//2
f 255//6 310//6 309//6
f 281//5 324//5 286//5
f 266//6 317//6 291//6
f 273//2 295//2 296//2
f 268//1 319//1 298//1
f 257//6 308//6 306//6
f 248//2 297//2 320//2
f 264//5 305//5 307//5
f 243//5 290//5 299//5
f 245//5 292//5 300//5
f 269//6 320//6 319//6
usemtl Material.002
f 181//5 186//5 187//5
f 179//5 174//5 180//5
f 177//5 172//5 178//5
f 183//5 157//5 185//5
f 167//5 159//5 168//5
f 165//5 161//5 166//5
f 175//5 170//5 176//5
f 163//5 184//5 164//5
f 191//5 189//5 192//5
f 195//5 194//5 196//5
f 199//5 197//5 200//5
f 203//5 202//5 204//5
f 207//5 205//5 208//5
f 211//5 210//5 212//5
f 225//6 227//6 228//6
f 223//6 218//6 224//6
f 221//6 216//6 222//6
f 219//6 214//6 220//6
f 231//6 230//6 232//6
f 235//6 234//6 236//6
f 239//6 238//6 240//6
f 297//4 319//4 320//4
f 299//4 289//4 318//4
f 309//3 315//3 316//3
f 311//3 301//3 314//3
f 307//4 306//4 308//4
f 304//4 313//4 312//4
f 295//3 294//3 296//3
f 292//3 317//3 300//3
f 181//5 182//5 186//5
f 179//5 173//5 174//5
f 177//5 171//5 172//5
f 183//5 158//5 157//5
f 167//5 160//5 159//5
f 165//5 162//5 161//5
f 175//5 169//5 170//5
f 163//5 188//5 184//5
f 191//5 190//5 189//5
f 195//5 193//5 194//5
f 199//5 198//5 197//5
f 203//5 201//5 202//5
f 207//5 206//5 205//5
f 211//5 209//5 210//5
f 225//6 226//6 227//6
f 223//6 217//6 218//6
f 221//6 215//6 216//6
f 219//6 213//6 214//6
f 231//6 229//6 230//6
f 235//6 233//6 234//6
f 239//6 237//6 238//6
f 297//4 298//4 319//4
f 299//4 290//4 289//4
f 309//3 310//3 315//3
f 311//3 302//3 301//3
f 307//4 305//4 306//4
f 304//4 303//4 313//4
f 295//3 293//3 294//3
f 292//3 291//3 317//3
usemtl Material.003
f 47//10 46//10 45//10
f 111//7 39//7 53//7
f 54//11 46//11 49//11
f 43//4 47//4 45//4
f 44//3 49//3 46//3
f 118//12 38//12 51//12
f 51//6 47//6 52//6
f 54//5 48//5 53//5
f 47//10 50//10 46//10
f 131//7 132//7 48//7
f 70//7 71//7 53//7
f 145//7 146//7 53//7
f 146//7 72//7 53//7
f 71//7 145//7 53//7
f 72//7 111//7 53//7
f 119//7 120//7 48//7
f 40//7 107//7 48//7
f 107//7 67//7 48//7
f 68//7 69//7 48//7
f 67//7 119//7 48//7
f 241//8 300//8 266//8
f 44//8 42//8 241//8
f 285//8 43//8 274//8
f 43//13 53//13 270//13
f 274//8 43//8 243//8
f 243//8 43//8 270//8
f 48//14 44//14 266//14
f 44//8 241//8 266//8
f 266//15 40//15 48//15
f 132//7 53//7 48//7
f 39//16 270//16 53//16
f 54//11 45//11 46//11
f 43//4 52//4 47//4
f 45//4 54//4 43//4
f 54//4 53//4 43//4
f 50//3 51//3 44//3
f 44//3 48//3 49//3
f 46//3 50//3 44//3
f 37//12 66//12 52//12
f 66//12 118//12 51//12
f 250//17 258//17 52//17
f 258//17 37//17 52//17
f 281//9 250//9 43//9
f 43//9 285//9 281//9
f 42//9 44//9 251//9
f 44//18 51//18 251//18
f 52//19 43//19 250//19
f 38//20 262//20 51//20
f 262//20 251//20 51//20
f 51//12 52//12 66//12
f 42//3 251//3 241//3
f 51//6 50//6 47//6
f 54//5 49//5 48//5
