# Blender v2.79 (sub 0) OBJ File: 'Platforms.blend'
# www.blender.org
o Cube.000_Cube.004
v -13.873002 14.545473 -20.673235
v -13.873002 14.545473 -21.083235
v -13.873002 14.545473 -23.083235
v -13.873002 14.545473 -23.493235
v -13.873002 14.545473 -25.493235
v -13.873002 14.545473 -25.903234
v -13.873003 14.545473 -27.903236
v -13.873003 14.545473 -28.313234
v -13.873003 14.545473 -30.313236
v -12.168875 12.841345 -19.263233
v -13.583088 14.255559 -19.263233
v -12.168875 12.841345 -19.673235
v -13.583088 14.255559 -19.673235
v -12.168875 12.841345 -21.673235
v -13.583088 14.255559 -21.673235
v -12.168875 12.841345 -22.083235
v -13.583089 14.255559 -22.083235
v -12.168875 12.841345 -24.083235
v -13.583089 14.255559 -24.083235
v -12.168875 12.841345 -24.493235
v -13.583089 14.255559 -24.493235
v -12.168875 12.841345 -26.493235
v -13.583089 14.255559 -26.493235
v -12.168875 12.841345 -26.903234
v -13.583089 14.255559 -26.903234
v -12.168875 12.841345 -28.903234
v -13.583089 14.255559 -28.903234
v -12.168875 12.841345 -29.313234
v -13.583089 14.255559 -29.313234
v -10.464747 11.137218 -20.263233
v -11.878961 12.551432 -20.263233
v -10.464747 11.137218 -20.673235
v -11.878961 12.551432 -20.673235
v -10.464747 11.137218 -22.673235
v -11.878962 12.551432 -22.673235
v -10.464747 11.137218 -23.083235
v -11.878962 12.551432 -23.083235
v -10.464748 11.137218 -25.083235
v -11.878962 12.551432 -25.083235
v -10.464748 11.137218 -25.493235
v -11.878962 12.551432 -25.493235
v -10.464748 11.137218 -27.493235
v -11.878962 12.551432 -27.493235
v -10.464748 11.137218 -27.903236
v -11.878962 12.551432 -27.903236
v -10.464748 11.137218 -29.903234
v -11.878962 12.551432 -29.903234
v -10.464748 11.137218 -30.313236
v -11.878962 12.551432 -30.313236
v -8.760620 9.433090 -18.853233
v -10.174833 10.847304 -18.853233
v -8.760620 9.433090 -19.263233
v -10.174833 10.847304 -19.263233
v -8.760620 9.433090 -21.263235
v -10.174833 10.847304 -21.263235
v -8.760620 9.433090 -21.673235
v -10.174833 10.847304 -21.673235
v -8.760620 9.433090 -23.673235
v -10.174833 10.847304 -23.673235
v -8.760620 9.433090 -24.083235
v -10.174833 10.847304 -24.083235
v -8.760620 9.433090 -26.083235
v -10.174833 10.847304 -26.083235
v -8.760620 9.433090 -26.493235
v -10.174833 10.847304 -26.493235
v -8.760620 9.433090 -28.493237
v -10.174834 10.847304 -28.493237
v -8.760620 9.433090 -28.903234
v -10.174834 10.847304 -28.903234
v -7.056493 7.728963 -19.853233
v -8.470707 9.143177 -19.853233
v -7.056493 7.728963 -20.263233
v -8.470707 9.143177 -20.263233
v -7.056493 7.728963 -22.263235
v -8.470707 9.143177 -22.263235
v -7.056493 7.728963 -22.673235
v -8.470707 9.143177 -22.673235
v -7.056493 7.728963 -24.673235
v -8.470707 9.143177 -24.673235
v -7.056493 7.728963 -25.083235
v -8.470707 9.143177 -25.083235
v -7.056493 7.728963 -27.083235
v -8.470707 9.143177 -27.083235
v -7.056493 7.728963 -27.493235
v -8.470707 9.143177 -27.493235
v -7.056493 7.728963 -29.493235
v -8.470707 9.143177 -29.493235
v -7.056493 7.728963 -29.903234
v -8.470707 9.143177 -29.903234
v -13.583088 14.255559 -18.684731
v -12.168875 12.841345 -18.684731
v -10.174833 10.847304 -18.684731
v -8.760620 9.433090 -18.684731
v -8.470707 9.143177 -18.684729
v -7.056493 7.728963 -18.684729
v -15.285196 15.957666 -21.083235
v -15.285196 15.957666 -20.673235
v -15.285195 15.957666 -18.684729
v -13.873002 14.545473 -18.684731
v -11.878961 12.551432 -18.684731
v -10.464747 11.137218 -18.684731
v -15.285196 15.957666 -23.493235
v -15.285196 15.957666 -23.083235
v -15.285196 15.957666 -25.903234
v -15.285196 15.957666 -25.493235
v -15.285196 15.957666 -27.903234
v -15.285196 15.957666 -30.313236
v -15.285196 15.957666 -28.313234
v -13.583089 14.255559 -30.371746
v -12.168875 12.841345 -30.371746
v -11.878962 12.551432 -30.371746
v -10.464748 11.137218 -30.371746
v -10.174834 10.847304 -30.371746
v -8.760620 9.433090 -30.371746
v -8.470707 9.143177 -30.371746
v -7.056494 7.728963 -30.371746
v -8.354393 6.139219 -18.528238
v -7.233620 7.259992 -18.528238
v -16.839674 14.624500 -18.528238
v -15.718901 15.745273 -18.528238
v -8.354393 6.139219 -30.528238
v -7.233621 7.259992 -30.528238
v -16.839674 14.624500 -30.528238
v -15.718903 15.745273 -30.528238
v -7.091420 7.623503 -18.684731
v -15.355390 15.887472 -18.684731
v -15.355391 15.887472 -30.371746
v -7.091421 7.623503 -30.371746
v -15.355391 15.887472 -20.254383
v -14.240656 14.772738 -18.684731
v -15.355391 15.887472 -20.673235
v -13.943196 14.475279 -18.684731
v -13.943196 14.475279 -20.673235
v -13.653282 14.185365 -18.684731
v -13.653282 14.185365 -19.263233
v -12.239069 12.771151 -18.684731
v -13.653282 14.185365 -19.673235
v -12.239069 12.771151 -19.673235
v -12.239069 12.771151 -19.263233
v -11.949155 12.481237 -20.263233
v -10.534942 11.067024 -20.263233
v -11.949155 12.481237 -18.684731
v -10.534942 11.067024 -18.684731
v -10.245028 10.777110 -18.684731
v -8.830814 9.362896 -19.263233
v -10.245028 10.777110 -18.853233
v -8.830814 9.362896 -18.853233
v -10.245028 10.777110 -19.263233
v -8.830814 9.362896 -18.684731
v -8.540900 9.072983 -18.684729
v -8.540900 9.072983 -20.263233
v -7.126687 7.658770 -20.263233
v -8.540900 9.072983 -19.853233
v -7.126687 7.658770 -18.684729
v -7.126687 7.658770 -19.853233
v -15.355391 15.887472 -21.083235
v -15.355391 15.887472 -23.083235
v -13.943196 14.475279 -21.083235
v -13.943196 14.475279 -23.083235
v -12.239069 12.771151 -22.083235
v -13.653282 14.185365 -22.083235
v -13.653282 14.185365 -21.673235
v -12.239069 12.771151 -21.673235
v -11.949155 12.481237 -23.083235
v -10.534942 11.067024 -23.083235
v -11.949155 12.481237 -20.673235
v -11.949155 12.481237 -22.673235
v -10.534942 11.067024 -22.673235
v -10.534942 11.067024 -20.673235
v -8.830814 9.362896 -21.673235
v -10.245028 10.777110 -21.673235
v -10.245028 10.777110 -21.263235
v -8.830814 9.362896 -21.263235
v -7.126687 7.658770 -22.673235
v -8.540901 9.072983 -22.673235
v -8.540901 9.072983 -22.263235
v -7.126687 7.658770 -22.263235
v -13.943196 14.475279 -25.493235
v -15.355391 15.887472 -25.493235
v -13.943196 14.475279 -23.493235
v -15.355391 15.887472 -23.493235
v -15.355391 15.887472 -25.903234
v -13.943196 14.475279 -25.903234
v -13.653282 14.185365 -24.493235
v -12.239069 12.771151 -24.493235
v -12.239069 12.771151 -24.083235
v -13.653282 14.185365 -24.083235
v -11.949156 12.481237 -25.493235
v -10.832827 11.364909 -25.493235
v -10.830963 11.363046 -25.083235
v -10.534942 11.067024 -25.083235
v -11.949156 12.481237 -25.083235
v -10.534942 11.067024 -25.493235
v -8.830814 9.362896 -24.083235
v -8.830814 9.362896 -23.673235
v -10.245028 10.777110 -24.083235
v -10.245028 10.777110 -23.673235
v -8.830814 9.362896 -26.083235
v -7.126687 7.658770 -25.083235
v -8.540901 9.072983 -25.083235
v -8.540901 9.072983 -24.673235
v -7.126687 7.658770 -24.673235
v -13.943197 14.475279 -28.313234
v -15.355391 15.887472 -28.313234
v -13.943197 14.475279 -27.903236
v -15.355391 15.887472 -27.903234
v -13.653282 14.185365 -26.493235
v -13.653282 14.185365 -26.903234
v -12.239069 12.771151 -26.903234
v -12.239069 12.771151 -26.493235
v -11.949156 12.481237 -27.903236
v -11.949156 12.481237 -27.493235
v -10.534943 11.067024 -27.903236
v -10.534943 11.067024 -27.493235
v -10.245028 10.777110 -26.083235
v -10.123857 10.655939 -26.083235
v -10.245028 10.777110 -28.493237
v -10.245028 10.777110 -26.493235
v -8.830814 9.362896 -26.493235
v -8.540901 9.072983 -27.493235
v -7.126687 7.658770 -27.493235
v -7.126687 7.658770 -27.083235
v -8.540901 9.072983 -27.083235
v -15.355391 15.887472 -30.313236
v -13.943197 14.475279 -30.313236
v -13.653283 14.185365 -29.313234
v -12.239069 12.771151 -28.903234
v -13.653283 14.185365 -28.903234
v -11.949156 12.481237 -30.313236
v -11.949156 12.481237 -30.371746
v -12.239069 12.771151 -29.313234
v -10.534943 11.067024 -30.313236
v -10.534943 11.067024 -29.903234
v -11.949156 12.481237 -29.903234
v -10.534943 11.067024 -30.371746
v -10.245028 10.777110 -28.903234
v -8.830814 9.362896 -28.493237
v -8.830814 9.362896 -28.903234
v -8.830814 9.362896 -30.371746
v -7.424572 7.956654 -29.903234
v -7.126687 7.658770 -29.903234
v -8.540901 9.072983 -29.903234
v -8.540901 9.072983 -30.371746
v -8.540901 9.072983 -29.493235
v -7.126687 7.658770 -29.493235
v -7.712623 8.244705 -29.493235
v -13.653283 14.185365 -30.371746
v -12.239069 12.771151 -30.371746
v -10.245028 10.777110 -30.371746
v -7.126688 7.658770 -30.371746
v -8.243015 8.775098 -18.684729
v -15.355391 15.887472 -20.254383
v -13.355398 13.887480 -30.371746
v -16.724064 15.763838 -18.528238
v -16.836142 15.651761 -18.528238
v -16.836142 15.651761 -30.528238
v -16.724064 15.763838 -30.528238
v -7.357892 6.141867 -18.528240
v -7.239228 6.260530 -18.528240
v -7.239229 6.260530 -30.528236
v -7.357893 6.141867 -30.528236
v -7.068794 5.965017 -19.528238
v -7.068794 5.965017 -29.528238
v -17.068794 15.600607 -19.528238
v -17.068794 15.600607 -29.528238
v -7.068793 -30.000000 -19.528238
v -7.068793 -30.000000 -29.528238
v -17.068798 -30.000000 -19.528238
v -17.068798 -30.000000 -29.528238
v -17.144407 -9.980462 -24.240658
v -17.144407 -0.980462 -24.318468
v -17.144407 -9.980462 -24.694620
v -17.144407 -0.980462 -24.616808
v -16.144407 -9.980460 -24.240658
v -16.144405 -0.980461 -24.318468
v -16.144407 -9.980460 -24.694620
v -16.144405 -0.980461 -24.616808
v -17.144405 -5.080461 -23.967638
v -17.144405 -4.727565 -24.234259
v -17.144405 -4.727565 -24.701019
v -17.144405 -5.080461 -24.967638
v -16.144407 -4.727567 -24.701019
v -16.144407 -5.080462 -24.967638
v -16.144407 -4.727567 -24.234259
v -16.144407 -5.080462 -23.967638
v -17.144405 -0.871434 -21.425047
v -17.144405 -0.874078 -21.594231
v -17.144407 -0.874434 -27.318310
v -17.144407 -0.871078 -27.532969
v -16.144407 -0.874434 -27.318310
v -16.144407 -0.871078 -27.532969
v -16.144405 -0.874078 -21.594231
v -16.144407 -0.871434 -21.425047
v -17.144407 -2.988154 -24.105606
v -17.144407 -2.988154 -24.829670
v -16.144407 -2.988153 -24.829670
v -16.144407 -2.988153 -24.105606
v -16.144407 -3.105250 -23.459875
v -16.144407 -3.991184 -23.205090
v -17.144405 -3.991183 -23.205090
v -17.144407 -3.105250 -23.459875
v -16.144407 -4.027061 -25.705072
v -16.144405 -3.130784 -25.458677
v -17.144407 -3.130783 -25.458677
v -17.144405 -4.027061 -25.705072
vn 0.7071 0.7071 0.0000
vn -0.0000 0.0000 1.0000
vn -0.7071 0.7071 0.0000
vn -1.0000 0.0034 0.0000
vn 0.0000 0.0000 -1.0000
vn 0.0027 -1.0000 -0.0000
vn -0.7071 -0.7071 0.0000
vn -0.3643 0.9313 0.0000
vn 0.0000 -1.0000 0.0000
vn 0.2835 0.2835 -0.9161
vn 0.2835 0.2835 0.9161
vn 0.9313 -0.3643 -0.0000
vn 0.7071 -0.7071 0.0000
vn 0.9701 0.0000 -0.2425
vn -0.7071 0.0000 0.7071
vn 0.2775 -0.9507 -0.1387
vn -0.4472 0.0000 0.8944
vn 0.0000 1.0000 0.0000
vn 0.7017 0.1239 -0.7017
vn -0.9701 0.0000 0.2425
vn 1.0000 0.0000 0.0000
vn 0.7459 0.0000 0.6660
vn -0.7071 0.0000 -0.7071
vn 0.4472 0.0000 0.8944
vn -0.8002 -0.4467 -0.4001
vn 0.0000 0.3919 -0.9200
vn 0.8944 0.0000 -0.4472
vn 0.0185 0.9998 0.0000
vn 1.0000 -0.0056 -0.0000
vn 0.6939 0.7201 0.0000
vn -1.0000 0.0000 0.0000
vn 0.0000 0.1054 -0.9944
vn 0.0000 0.1054 0.9944
vn 0.0000 -0.0556 0.9985
vn 0.0000 -0.0556 -0.9985
vn 0.0000 0.9999 -0.0156
vn -0.0000 0.9999 0.0156
vn -0.0000 -0.5012 -0.8653
vn 0.0000 -0.4956 0.8686
vn 0.0000 0.6360 0.7717
vn 0.0000 0.6415 -0.7671
vn 0.0000 -0.0738 0.9973
vn 0.0000 -0.0738 -0.9973
vn 0.0000 0.4308 -0.9025
vn -0.0000 -0.5735 0.8192
vn 0.0000 0.4287 0.9035
vn -0.0000 -0.5735 -0.8192
s off
f 90//1 10//1 11//1
f 13//1 14//1 15//1
f 17//1 18//1 19//1
f 21//1 22//1 23//1
f 25//1 26//1 27//1
f 100//1 30//1 31//1
f 33//1 34//1 35//1
f 37//1 38//1 39//1
f 41//1 42//1 43//1
f 45//1 46//1 47//1
f 92//1 50//1 51//1
f 53//1 54//1 55//1
f 57//1 58//1 59//1
f 61//1 62//1 63//1
f 65//1 66//1 67//1
f 94//1 70//1 71//1
f 73//1 74//1 75//1
f 77//1 78//1 79//1
f 81//1 82//1 83//1
f 85//1 86//1 87//1
f 115//1 88//1 116//1
f 102//1 5//1 105//1
f 97//1 99//1 1//1
f 111//1 48//1 112//1
f 109//1 28//1 110//1
f 113//1 68//1 114//1
f 108//1 9//1 107//1
f 94//2 154//2 95//2
f 92//2 149//2 93//2
f 104//1 7//1 106//1
f 97//3 131//3 129//3
f 103//3 156//3 96//3
f 105//3 181//3 102//3
f 106//3 182//3 104//3
f 96//1 3//1 103//1
f 118//2 119//2 117//2
f 123//4 119//4 255//4 256//4
f 124//5 121//5 123//5
f 117//6 121//6 261//6 258//6
f 123//7 117//7 119//7
f 120//8 129//8 131//8
f 156//9 182//9 224//9
f 124//10 230//10 235//10
f 118//11 149//11 144//11
f 122//12 125//12 118//12
f 197//5 58//5 195//5
f 222//13 80//13 199//13
f 180//2 102//2 181//2
f 224//5 9//5 225//5
f 136//2 90//2 134//2
f 166//3 35//3 167//3
f 171//3 59//3 197//3
f 209//2 25//2 208//2
f 185//2 21//2 184//2
f 144//3 51//3 146//3
f 194//2 61//2 196//2
f 184//3 23//3 207//3
f 146//5 50//5 147//5
f 162//5 14//5 163//5
f 134//3 11//3 135//3
f 186//13 16//13 160//13
f 183//2 104//2 182//2
f 190//5 39//5 38//5
f 207//5 22//5 210//5
f 141//13 101//13 143//13
f 243//5 116//5 250//5
f 245//13 84//13 221//13
f 239//13 68//13 238//13
f 191//13 36//13 165//13
f 213//2 45//2 211//2
f 148//3 55//3 172//3
f 198//13 60//13 194//13
f 220//3 87//3 244//3
f 235//2 249//2 128//2
f 239//14 243//14 128//14
f 243//15 127//15 253//15
f 164//3 39//3 192//3
f 178//13 4//13 180//13
f 218//3 67//3 217//3
f 151//3 75//3 176//3
f 217//5 66//5 237//5
f 159//13 2//13 158//13
f 132//16 125//16 251//16
f 132//17 144//17 125//17
f 237//13 64//13 219//13
f 158//2 96//2 156//2
f 130//2 99//2 98//2
f 157//5 3//5 159//5
f 200//3 83//3 223//3
f 167//5 34//5 168//5
f 231//2 29//2 226//2
f 153//5 70//5 155//5
f 214//13 40//13 193//13
f 205//13 6//13 183//13
f 236//3 113//3 249//3
f 163//13 12//13 138//13
f 235//13 48//13 232//13
f 195//13 56//13 170//13
f 240//2 88//2 89//2
f 168//13 32//13 169//13
f 227//13 24//13 209//13
f 189//2 40//2 41//2
f 202//13 76//13 174//13
f 188//3 43//3 212//3
f 210//13 20//13 185//13
f 216//5 63//5 62//5
f 145//2 53//2 148//2
f 173//13 52//13 145//13
f 161//3 19//3 187//3
f 250//13 88//13 241//13
f 219//2 65//2 218//2
f 206//5 7//5 205//5
f 238//2 69//2 236//2
f 212//5 42//5 214//5
f 131//5 1//5 133//5
f 175//3 79//3 201//3
f 223//5 82//5 222//5
f 147//13 93//13 149//13
f 203//2 108//2 204//2
f 165//2 37//2 164//2
f 160//2 17//2 161//2
f 137//3 15//3 162//3
f 152//2 73//2 151//2
f 208//3 27//3 228//3
f 221//2 85//2 220//2
f 247//5 110//5 248//5
f 143//2 100//2 142//2
f 179//5 5//5 178//5
f 135//5 10//5 139//5
f 170//2 57//2 171//2
f 174//2 77//2 175//2
f 248//13 28//13 231//13
f 169//2 33//2 166//2
f 140//5 30//5 141//5
f 150//3 71//3 153//3
f 229//3 111//3 230//3
f 139//13 91//13 136//13
f 249//5 114//5 239//5
f 242//3 115//3 243//3
f 201//5 78//5 202//5
f 234//5 46//5 233//5
f 204//3 107//3 224//3
f 226//3 109//3 247//3
f 228//5 26//5 227//5
f 177//13 72//13 152//13
f 133//13 99//13 132//13
f 138//2 13//2 137//2
f 155//13 95//13 154//13
f 230//5 112//5 235//5
f 187//5 18//5 186//5
f 142//3 31//3 140//3
f 211//3 47//3 234//3
f 225//13 8//13 203//13
f 232//2 49//2 229//2
f 158//1 131//1 133//1
f 160//1 161//1 163//1
f 176//5 74//5 177//5
f 246//5 87//5 86//5
f 172//5 54//5 173//5
f 233//13 44//13 213//13
f 131//2 156//2 127//2
f 157//2 181//2 127//2
f 179//2 182//2 127//2
f 206//18 204//18 127//18
f 127//2 204//2 252//2
f 199//2 81//2 200//2
f 196//3 63//3 215//3
f 90//1 91//1 10//1
f 13//1 12//1 14//1
f 17//1 16//1 18//1
f 21//1 20//1 22//1
f 25//1 24//1 26//1
f 100//1 101//1 30//1
f 33//1 32//1 34//1
f 37//1 36//1 38//1
f 41//1 40//1 42//1
f 45//1 44//1 46//1
f 92//1 93//1 50//1
f 53//1 52//1 54//1
f 57//1 56//1 58//1
f 61//1 60//1 62//1
f 65//1 64//1 66//1
f 94//1 95//1 70//1
f 73//1 72//1 74//1
f 77//1 76//1 78//1
f 81//1 80//1 82//1
f 85//1 84//1 86//1
f 115//1 89//1 88//1
f 102//1 4//1 5//1
f 97//1 98//1 99//1
f 111//1 49//1 48//1
f 109//1 29//1 28//1
f 113//1 69//1 68//1
f 108//1 8//1 9//1
f 94//2 150//2 154//2
f 92//2 144//2 149//2
f 104//1 6//1 7//1
f 126//3 98//3 129//3
f 98//3 97//3 129//3
f 103//3 157//3 156//3
f 105//3 179//3 181//3
f 106//3 206//3 182//3
f 96//1 2//1 3//1
f 118//2 120//2 119//2
f 124//5 123//5 256//5 257//5
f 124//5 122//5 121//5
f 118//2 117//2 258//2 259//2
f 123//7 121//7 117//7
f 127//8 124//8 131//8
f 124//8 120//8 131//8
f 120//8 126//8 129//8
f 126//19 251//19 132//19
f 132//1 133//1 252//1
f 133//1 131//1 252//1
f 156//2 157//2 181//2
f 126//1 132//1 252//1
f 156//2 181//2 179//2
f 156//2 179//2 182//2
f 252//2 131//2 156//2
f 182//2 206//2 204//2
f 127//9 252//9 156//9
f 182//18 204//18 224//18
f 224//18 127//18 156//18
f 128//10 122//10 235//10
f 122//10 124//10 235//10
f 124//10 127//10 230//10
f 126//11 120//11 144//11
f 120//11 118//11 144//11
f 118//11 125//11 149//11
f 122//12 128//12 125//12
f 197//5 59//5 58//5
f 222//13 82//13 80//13
f 180//2 4//2 102//2
f 224//5 107//5 9//5
f 136//2 91//2 90//2
f 166//3 33//3 35//3
f 171//3 57//3 59//3
f 209//2 24//2 25//2
f 185//2 20//2 21//2
f 144//3 92//3 51//3
f 194//2 60//2 61//2
f 184//3 21//3 23//3
f 146//5 51//5 50//5
f 162//5 15//5 14//5
f 134//3 90//3 11//3
f 186//13 18//13 16//13
f 183//2 6//2 104//2
f 38//5 191//5 190//5
f 190//5 192//5 39//5
f 207//5 23//5 22//5
f 141//13 30//13 101//13
f 243//5 115//5 116//5
f 245//13 86//13 84//13
f 239//13 114//13 68//13
f 191//13 38//13 36//13
f 213//2 44//2 45//2
f 148//3 53//3 55//3
f 198//13 62//13 60//13
f 220//3 85//3 87//3
f 235//20 230//20 127//20
f 249//5 239//5 128//5
f 235//21 127//21 249//21
f 239//2 249//2 127//2
f 243//22 250//22 128//22
f 239//2 127//2 243//2
f 127//23 247//23 253//23
f 253//2 128//2 243//2
f 164//3 37//3 39//3
f 178//13 5//13 4//13
f 218//3 65//3 67//3
f 151//3 73//3 75//3
f 217//5 67//5 66//5
f 159//13 3//13 2//13
f 126//24 130//24 132//24
f 125//25 154//25 251//25
f 144//5 149//5 125//5
f 132//5 126//5 144//5
f 237//13 66//13 64//13
f 158//2 2//2 96//2
f 98//2 126//2 130//2
f 130//2 132//2 99//2
f 157//5 103//5 3//5
f 200//3 81//3 83//3
f 167//5 35//5 34//5
f 231//2 28//2 29//2
f 153//5 71//5 70//5
f 214//13 42//13 40//13
f 205//13 7//13 6//13
f 236//3 69//3 113//3
f 163//13 14//13 12//13
f 235//13 112//13 48//13
f 195//13 58//13 56//13
f 89//2 242//2 240//2
f 240//2 241//2 88//2
f 168//13 34//13 32//13
f 227//13 26//13 24//13
f 41//2 188//2 189//2
f 189//2 193//2 40//2
f 202//13 78//13 76//13
f 188//3 41//3 43//3
f 210//13 22//13 20//13
f 62//5 198//5 216//5
f 216//5 215//5 63//5
f 145//2 52//2 53//2
f 173//13 54//13 52//13
f 161//3 17//3 19//3
f 250//13 116//13 88//13
f 219//2 64//2 65//2
f 206//5 106//5 7//5
f 238//2 68//2 69//2
f 212//5 43//5 42//5
f 131//5 97//5 1//5
f 175//3 77//3 79//3
f 223//5 83//5 82//5
f 147//13 50//13 93//13
f 203//2 8//2 108//2
f 165//2 36//2 37//2
f 160//2 16//2 17//2
f 137//3 13//3 15//3
f 152//2 72//2 73//2
f 208//3 25//3 27//3
f 221//2 84//2 85//2
f 247//5 109//5 110//5
f 143//2 101//2 100//2
f 179//5 105//5 5//5
f 135//5 11//5 10//5
f 170//2 56//2 57//2
f 174//2 76//2 77//2
f 248//13 110//13 28//13
f 169//2 32//2 33//2
f 140//5 31//5 30//5
f 150//3 94//3 71//3
f 229//3 49//3 111//3
f 139//13 10//13 91//13
f 249//5 113//5 114//5
f 242//3 89//3 115//3
f 201//5 79//5 78//5
f 234//5 47//5 46//5
f 204//3 108//3 107//3
f 226//3 29//3 109//3
f 228//5 27//5 26//5
f 177//13 74//13 72//13
f 133//13 1//13 99//13
f 138//2 12//2 13//2
f 155//13 70//13 95//13
f 230//5 111//5 112//5
f 187//5 19//5 18//5
f 142//3 100//3 31//3
f 211//3 45//3 47//3
f 225//13 9//13 8//13
f 232//2 48//2 49//2
f 127//1 224//1 225//1
f 203//1 204//1 206//1
f 247//1 127//1 225//1
f 203//1 206//1 205//1
f 247//1 225//1 226//1
f 225//1 203//1 226//1
f 208//1 228//1 205//1
f 228//1 226//1 203//1
f 203//1 205//1 228//1
f 205//1 183//1 208//1
f 208//1 183//1 207//1
f 187//1 184//1 180//1
f 184//1 207//1 178//1
f 178//1 207//1 183//1
f 183//1 182//1 179//1
f 162//1 161//1 158//1
f 161//1 187//1 159//1
f 159//1 187//1 180//1
f 183//1 179//1 178//1
f 180//1 181//1 157//1
f 184//1 178//1 180//1
f 180//1 157//1 159//1
f 135//1 137//1 132//1
f 137//1 162//1 133//1
f 158//1 161//1 159//1
f 137//1 133//1 132//1
f 134//7 135//7 136//7
f 162//1 158//1 133//1
f 158//1 156//1 131//1
f 132//26 251//26 136//26
f 132//1 136//1 135//1
f 253//5 247//5 248//5
f 231//1 226//1 228//1
f 128//27 253//27 248//27
f 231//1 228//1 227//1
f 128//1 248//1 231//1
f 154//1 125//1 128//1
f 139//1 136//1 251//1
f 251//1 154//1 128//1
f 128//1 231//1 227//1
f 209//1 208//1 207//1
f 128//1 227//1 209//1
f 139//1 251//1 138//1
f 251//1 128//1 185//1
f 138//1 251//1 163//1
f 137//1 135//1 139//1
f 138//1 137//1 139//1
f 209//1 207//1 210//1
f 185//1 184//1 187//1
f 128//1 209//1 210//1
f 185//1 187//1 186//1
f 128//1 210//1 185//1
f 163//1 251//1 160//1
f 161//1 162//1 163//1
f 160//1 251//1 186//1
f 185//1 186//1 251//1
f 176//5 75//5 74//5
f 86//5 245//5 246//5
f 246//5 244//5 87//5
f 172//5 55//5 54//5
f 233//13 46//13 44//13
f 131//18 129//18 126//18
f 156//2 157//2 127//2
f 131//2 126//2 156//2
f 157//18 156//18 126//18
f 181//18 179//18 127//18
f 157//2 126//2 181//2
f 179//2 181//2 126//2
f 182//9 206//9 127//9
f 179//2 126//2 182//2
f 206//18 182//18 126//18
f 204//18 224//18 127//18
f 206//9 126//9 204//9
f 204//18 126//18 252//18
f 199//2 80//2 81//2
f 196//3 61//3 63//3
f 254//3 256//3 255//3
f 254//3 257//3 256//3
f 120//28 124//28 257//28 254//28
f 119//2 120//2 254//2 255//2
f 260//13 258//13 261//13
f 260//13 259//13 258//13
f 122//29 118//29 259//29 260//29
f 121//5 122//5 260//5 261//5
f 262//30 263//30 265//30 264//30
f 266//9 268//9 269//9 267//9
f 265//31 269//31 268//31 264//31
f 262//21 266//21 267//21 263//21
f 263//5 267//5 269//5 265//5
f 264//2 268//2 266//2 262//2
f 294//31 271//31 273//31 295//31
f 295//32 273//32 277//32 296//32
f 296//21 277//21 275//21 297//21
f 297//33 275//33 271//33 294//33
f 272//9 276//9 274//9 270//9
f 277//18 273//18 271//18 275//18
f 274//34 285//34 278//34 270//34
f 303//21 302//21 291//21 290//21
f 276//21 283//21 285//21 274//21
f 283//21 282//21 284//21 285//21
f 272//35 281//35 283//35 276//35
f 299//21 298//21 292//21 293//21
f 270//31 278//31 281//31 272//31
f 278//31 279//31 280//31 281//31
f 293//36 292//36 287//36 286//36
f 289//37 288//37 290//37 291//37
f 305//31 304//31 288//31 289//31
f 302//38 305//38 289//38 291//38
f 301//31 300//31 286//31 287//31
f 300//39 299//39 293//39 286//39
f 304//40 303//40 290//40 288//40
f 298//41 301//41 287//41 292//41
f 284//42 297//42 294//42 279//42
f 282//21 296//21 297//21 284//21
f 280//43 295//43 296//43 282//43
f 279//31 294//31 295//31 280//31
f 284//44 279//44 301//44 298//44
f 278//45 285//45 299//45 300//45
f 279//31 278//31 300//31 301//31
f 285//21 284//21 298//21 299//21
f 280//46 282//46 303//46 304//46
f 283//47 281//47 305//47 302//47
f 281//31 280//31 304//31 305//31
f 282//21 283//21 302//21 303//21
l 143 125
l 142 126
l 136 125
l 134 126
l 149 150
l 146 148
l 143 251
l 140 166
l 172 171
l 152 155
l 176 175
l 167 164
l 197 196
l 201 200
l 190 189
l 216 218
l 223 220
l 212 211
l 217 236
l 246 240
l 234 229
l 129 126
l 224 127
