# Blender v2.79 (sub 0) OBJ File: 'Platforms.blend'
# www.blender.org
o Plane
v -5.000000 5.000000 -7.000000
v 5.000000 5.000000 -7.000000
v -5.000000 5.000000 -17.000000
v 5.000000 5.000000 -17.000000
v -5.000000 -35.000000 -7.000000
v 5.000000 -35.000000 -7.000000
v -5.000000 -35.000000 -17.000000
v 5.000000 -35.000000 -17.000000
v -3.855004 7.041873 -15.846365
v -3.445004 7.041873 -15.846365
v -1.445003 7.041873 -15.846365
v -1.035004 7.041873 -15.846365
v 0.964997 7.041873 -15.846365
v 1.374996 7.041873 -15.846365
v 3.374997 7.041873 -15.846365
v 3.784996 7.041873 -15.846365
v 5.784997 7.041873 -15.846365
v -5.265004 7.041873 -13.436365
v -5.265004 7.041873 -15.436365
v -4.855003 7.041873 -13.436365
v -4.855003 7.041873 -15.436365
v -2.855003 7.041873 -13.436365
v -2.855003 7.041873 -15.436365
v -2.445003 7.041873 -13.436365
v -2.445003 7.041873 -15.436365
v -0.445004 7.041873 -13.436365
v -0.445004 7.041873 -15.436365
v -0.035003 7.041873 -13.436365
v -0.035003 7.041873 -15.436365
v 1.964996 7.041873 -13.436365
v 1.964996 7.041873 -15.436365
v 2.374997 7.041873 -13.436365
v 2.374997 7.041873 -15.436365
v 4.374996 7.041873 -13.436365
v 4.374996 7.041873 -15.436365
v 4.784997 7.041873 -13.436365
v 4.784997 7.041873 -15.436365
v -4.265004 7.041873 -11.026365
v -4.265004 7.041873 -13.026365
v -3.855004 7.041873 -11.026365
v -3.855004 7.041873 -13.026365
v -1.855004 7.041873 -11.026365
v -1.855004 7.041873 -13.026365
v -1.445003 7.041873 -11.026365
v -1.445003 7.041873 -13.026365
v 0.554997 7.041873 -11.026365
v 0.554997 7.041873 -13.026365
v 0.964997 7.041873 -11.026365
v 0.964997 7.041873 -13.026365
v 2.964997 7.041873 -11.026365
v 2.964997 7.041873 -13.026365
v 3.374997 7.041873 -11.026365
v 3.374997 7.041873 -13.026365
v 5.374997 7.041873 -11.026365
v 5.374997 7.041873 -13.026365
v 5.784997 7.041873 -11.026365
v 5.784997 7.041873 -13.026365
v -5.675004 7.041873 -8.616364
v -5.675004 7.041873 -10.616365
v -5.265004 7.041873 -8.616364
v -5.265004 7.041873 -10.616365
v -3.265004 7.041873 -8.616364
v -3.265004 7.041873 -10.616365
v -2.855003 7.041873 -8.616364
v -2.855003 7.041873 -10.616365
v -0.855004 7.041873 -8.616364
v -0.855004 7.041873 -10.616365
v -0.445004 7.041873 -8.616364
v -0.445004 7.041873 -10.616365
v 1.554997 7.041873 -8.616364
v 1.554997 7.041873 -10.616365
v 1.964996 7.041873 -8.616364
v 1.964996 7.041873 -10.616365
v 3.964997 7.041873 -8.616364
v 3.964997 7.041873 -10.616365
v 4.374996 7.041873 -8.616364
v 4.374996 7.041873 -10.616365
v -4.675004 7.041873 -6.206365
v -4.675004 7.041873 -8.206366
v -4.265004 7.041873 -6.206365
v -4.265004 7.041873 -8.206366
v -2.265004 7.041873 -6.206365
v -2.265004 7.041873 -8.206366
v -1.855004 7.041873 -6.206365
v -1.855004 7.041873 -8.206366
v 0.144996 7.041873 -6.206365
v 0.144996 7.041873 -8.206366
v 0.554997 7.041873 -6.206365
v 0.554997 7.041873 -8.206366
v 2.554996 7.041873 -6.206365
v 2.554996 7.041873 -8.206366
v 2.964997 7.041873 -6.206365
v 2.964997 7.041873 -8.206366
v 4.964996 7.041873 -6.206365
v 4.964996 7.041873 -8.206366
v 5.374997 7.041873 -6.206365
v 5.374997 7.041873 -8.206366
v -5.843509 7.041873 -15.436365
v -5.843509 7.041873 -13.436365
v -5.843509 7.041873 -10.616365
v -5.843509 7.041873 -8.616364
v -5.843509 7.041873 -8.206366
v -5.843509 7.041873 -6.206365
v -3.445004 7.041873 -17.843510
v -3.855004 7.041873 -17.843510
v -5.843509 7.041873 -17.843510
v -5.843509 7.041873 -15.846365
v -5.843509 7.041873 -13.026365
v -5.843509 7.041873 -11.026365
v -1.035004 7.041873 -17.843510
v -1.445003 7.041873 -17.843510
v 1.374996 7.041873 -17.843510
v 0.964997 7.041873 -17.843510
v 3.374997 7.041873 -17.843510
v 5.784997 7.041873 -17.843510
v 3.784996 7.041873 -17.843510
v 5.843509 7.041873 -15.436365
v 5.843509 7.041873 -13.436365
v 5.843509 7.041873 -13.026365
v 5.843509 7.041873 -11.026365
v 5.843509 7.041873 -10.616365
v 5.843509 7.041873 -8.616364
v 5.843509 7.041873 -8.206366
v 5.843509 7.041873 -6.206365
v -6.000000 5.000000 -6.000000
v -6.000000 6.585011 -6.000000
v -6.000000 5.000000 -18.000000
v -6.000000 6.585011 -18.000000
v 6.000000 5.000000 -6.000000
v 6.000000 6.585011 -6.000000
v 6.000000 5.000000 -18.000000
v 6.000000 6.585011 -18.000000
v -5.843509 6.942603 -6.156491
v -5.843509 6.942603 -17.843510
v 5.843509 6.942603 -17.843510
v 5.843509 6.942603 -6.156491
v -4.273855 6.942603 -17.843510
v -5.843509 6.942603 -16.267036
v -3.855004 6.942603 -17.843510
v -5.843509 6.942603 -15.846365
v -3.855004 6.942603 -15.846365
v -5.843509 6.942603 -15.436365
v -5.265004 6.942603 -15.436365
v -5.843509 6.942603 -13.436365
v -4.855003 6.942603 -15.436365
v -4.855003 6.942603 -13.436365
v -5.265004 6.942603 -13.436365
v -4.265004 6.942603 -13.026365
v -4.265004 6.942603 -11.026365
v -5.843509 6.942603 -13.026365
v -5.843509 6.942603 -11.026365
v -5.843509 6.942603 -10.616365
v -5.265004 6.942603 -8.616364
v -5.675004 6.942603 -10.616365
v -5.675004 6.942603 -8.616364
v -5.265004 6.942603 -10.616365
v -5.843509 6.942603 -8.616364
v -5.843509 6.942603 -8.206366
v -4.265004 6.942603 -8.206366
v -4.265004 6.942603 -6.206365
v -4.675004 6.942603 -8.206366
v -5.843509 6.942603 -6.206365
v -4.675004 6.942603 -6.206365
v -3.445004 6.942603 -17.843510
v -1.445003 6.942603 -17.843510
v -3.445004 6.942603 -15.846365
v -1.445003 6.942603 -15.846365
v -2.445003 6.942603 -13.436365
v -2.445003 6.942603 -15.436365
v -2.855003 6.942603 -15.436365
v -2.855003 6.942603 -13.436365
v -1.445003 6.942603 -13.026365
v -1.445003 6.942603 -11.026365
v -3.855004 6.942603 -13.026365
v -1.855004 6.942603 -13.026365
v -1.855004 6.942603 -11.026365
v -3.855004 6.942603 -11.026365
v -2.855003 6.942603 -8.616364
v -2.855003 6.942603 -10.616365
v -3.265004 6.942603 -10.616365
v -3.265004 6.942603 -8.616364
v -1.855004 6.942603 -6.206365
v -1.855004 6.942603 -8.206366
v -2.265004 6.942603 -8.206366
v -2.265004 6.942603 -6.206365
v 0.964997 6.942603 -15.846365
v 0.964997 6.942603 -17.843510
v -1.035004 6.942603 -15.846365
v -1.035004 6.942603 -17.843510
v 1.374996 6.942603 -17.843510
v 1.374996 6.942603 -15.846365
v -0.035003 6.942603 -15.436365
v -0.035003 6.942603 -13.436365
v -0.445004 6.942603 -13.436365
v -0.445004 6.942603 -15.436365
v 0.964997 6.942603 -13.026365
v 0.964997 6.942603 -11.447638
v 0.554997 6.942603 -11.445003
v 0.554997 6.942603 -11.026365
v 0.554997 6.942603 -13.026365
v 0.964997 6.942603 -11.026365
v -0.445004 6.942603 -8.616364
v -0.855004 6.942603 -8.616364
v -0.445004 6.942603 -10.616365
v -0.855004 6.942603 -10.616365
v 1.554997 6.942603 -8.616364
v 0.554997 6.942603 -6.206365
v 0.554997 6.942603 -8.206366
v 0.144996 6.942603 -8.206366
v 0.144996 6.942603 -6.206365
v 3.784996 6.942603 -15.846365
v 3.784996 6.942603 -17.843510
v 3.374997 6.942603 -15.846365
v 3.374997 6.942603 -17.843510
v 1.964996 6.942603 -15.436365
v 2.374997 6.942603 -15.436365
v 2.374997 6.942603 -13.436365
v 1.964996 6.942603 -13.436365
v 3.374997 6.942603 -13.026365
v 2.964997 6.942603 -13.026365
v 3.374997 6.942603 -11.026365
v 2.964997 6.942603 -11.026365
v 1.554997 6.942603 -10.616365
v 1.554997 6.942603 -10.445003
v 3.964997 6.942603 -10.616365
v 1.964996 6.942603 -10.616365
v 1.964996 6.942603 -8.616364
v 2.964997 6.942603 -8.206366
v 2.964997 6.942603 -6.206365
v 2.554996 6.942603 -6.206365
v 2.554996 6.942603 -8.206366
v 5.784997 6.942603 -17.843510
v 5.784997 6.942603 -15.846365
v 4.784997 6.942603 -15.436365
v 4.374996 6.942603 -13.436365
v 4.374996 6.942603 -15.436365
v 5.784997 6.942603 -13.026365
v 5.843509 6.942603 -13.026365
v 4.784997 6.942603 -13.436365
v 5.784997 6.942603 -11.026365
v 5.374997 6.942603 -11.026365
v 5.374997 6.942603 -13.026365
v 5.843509 6.942603 -11.026365
v 4.374996 6.942603 -10.616365
v 3.964997 6.942603 -8.616364
v 4.374996 6.942603 -8.616364
v 5.843509 6.942603 -8.616364
v 5.374997 6.942603 -6.627638
v 5.374997 6.942603 -6.206365
v 5.374997 6.942603 -8.206366
v 5.843509 6.942603 -8.206366
v 4.964996 6.942603 -8.206366
v 4.964996 6.942603 -6.206365
v 4.964997 6.942603 -7.035003
v 5.843509 6.942603 -15.436365
v 5.843509 6.942603 -13.436365
v 5.843509 6.942603 -10.616365
v 5.843509 6.942603 -6.206365
v -5.843509 6.942603 -7.785092
v -4.273855 6.942603 -17.843510
v 5.843509 6.942603 -15.015093
v -6.000000 5.887382 -18.723885
v -6.000000 5.728881 -18.723885
v 6.000000 5.728881 -18.723885
v 6.000000 5.887382 -18.723885
v -5.999999 5.706505 -5.297239
v -5.999999 5.874321 -5.297239
v 5.999999 5.874321 -5.297239
v 5.999999 5.706505 -5.297239
v -6.636451 5.636711 -18.000000
v -6.636451 5.636711 -6.000000
v -6.636451 5.953713 -6.000000
v -6.636451 5.953713 -18.000000
v 6.636451 5.953713 -18.000000
v 6.636451 5.636711 -18.000000
v 6.636451 5.636711 -6.000000
v 6.636451 5.953713 -6.000000
v 6.636450 5.782487 -18.723885
v -6.636450 5.778012 -5.297239
v -6.636450 5.814188 -18.723885
v -6.636450 5.782487 -18.723885
v 6.636450 5.814188 -18.723885
v -6.636450 5.811575 -5.297239
v 6.636450 5.811575 -5.297239
v 6.636450 5.778012 -5.297239
v -5.034647 -9.878174 -12.328780
v -5.034647 -0.878174 -12.311408
v -5.034647 -9.878174 -12.748443
v -5.034647 -0.878174 -12.765815
v -4.034647 -9.878174 -12.328780
v -4.034647 -0.878174 -12.311408
v -4.034647 -9.878174 -12.748443
v -4.034647 -0.878174 -12.765815
v -5.034647 -6.545970 -12.162281
v -5.034647 -5.212637 -12.038611
v -5.034647 -5.212637 -13.038611
v -5.034647 -6.545970 -12.914942
v -4.034647 -5.212637 -13.038611
v -4.034647 -6.545970 -12.914942
v -4.034647 -5.212637 -12.038611
v -4.034647 -6.545970 -12.162281
v -5.034647 -4.063441 -12.038611
v -5.034647 -3.107734 -12.038611
v -5.034647 -3.107735 -13.038611
v -5.034647 -4.063441 -13.038611
v -4.034647 -3.107735 -13.038611
v -4.034647 -4.063441 -13.038611
v -4.034647 -3.107735 -12.038611
v -4.034647 -4.063441 -12.038611
v -5.034647 -0.928774 -9.047548
v -5.034647 -0.934677 -9.177807
v -4.034647 -0.934677 -9.177807
v -4.034647 -0.928774 -9.047548
v -5.034647 -0.889616 -10.471444
v -5.034647 -0.895596 -10.720820
v -4.034647 -0.895596 -10.720820
v -4.034647 -0.889616 -10.471444
v -5.034647 -2.717257 -11.262364
v -5.034647 -2.174045 -11.593659
v -4.034647 -2.717257 -11.262364
v -4.034647 -2.174045 -11.593659
v -4.034647 -4.173538 -10.677968
v -5.034647 -4.173538 -10.677968
v -5.034647 -3.413798 -10.932419
v -4.034647 -3.413798 -10.932419
vn 0.0000 1.0000 0.0000
vn 0.0000 -1.0000 0.0000
vn 0.0000 0.0000 -1.0000
vn 0.0000 0.0000 1.0000
vn 1.0000 0.0000 0.0000
vn -1.0000 0.0000 0.0000
vn -0.7042 0.7100 0.0000
vn 0.0000 -0.7047 -0.7095
vn 0.4301 -0.7730 0.4663
vn 0.0000 -0.7052 0.7090
vn 0.0000 0.4009 -0.9161
vn 0.9161 0.4009 0.0000
vn -0.9161 0.4009 0.0000
vn 0.0000 0.4009 0.9161
vn -0.4210 -0.7764 -0.4690
vn -0.4225 0.7749 0.4702
vn 0.7042 0.7100 0.0000
vn 0.4210 -0.7764 -0.4690
vn 0.0000 0.7200 -0.6939
vn 0.4321 0.7807 -0.4514
vn 0.0000 0.7031 0.7111
vn -0.7073 -0.7070 0.0000
vn -0.4301 -0.7730 0.4663
vn -0.4321 0.7807 -0.4514
vn 0.4225 0.7749 0.4702
vn 0.7073 -0.7070 0.0000
vn 0.0000 0.1214 -0.9926
vn 0.0000 0.1214 0.9926
vn 0.0000 -0.0499 0.9988
vn 0.0000 -0.0499 -0.9988
vn 0.0000 -0.0924 -0.9957
vn 0.0000 -0.4490 0.8935
vn 0.0000 0.9990 -0.0453
vn 0.0000 0.9997 -0.0240
vn 0.0000 -0.3972 0.9177
vn 0.0000 0.5777 -0.8162
vn 0.0000 0.5639 -0.8259
vn 0.0000 0.4302 -0.9027
vn 0.0000 -0.4995 0.8663
vn 0.0000 0.5238 -0.8518
vn 0.0000 -0.5304 0.8478
s off
f 1//1 2//1 4//1 3//1
f 5//2 7//2 8//2 6//2
f 4//3 8//3 7//3 3//3
f 1//4 5//4 6//4 2//4
f 2//5 6//5 8//5 4//5
f 3//6 7//6 5//6 1//6
f 98//1 18//1 19//1
f 21//1 22//1 23//1
f 25//1 26//1 27//1
f 29//1 30//1 31//1
f 33//1 34//1 35//1
f 108//1 38//1 39//1
f 41//1 42//1 43//1
f 45//1 46//1 47//1
f 49//1 50//1 51//1
f 53//1 54//1 55//1
f 100//1 58//1 59//1
f 61//1 62//1 63//1
f 65//1 66//1 67//1
f 69//1 70//1 71//1
f 73//1 74//1 75//1
f 102//1 78//1 79//1
f 81//1 82//1 83//1
f 85//1 86//1 87//1
f 89//1 90//1 91//1
f 93//1 94//1 95//1
f 123//1 96//1 124//1
f 110//1 13//1 113//1
f 105//1 107//1 9//1
f 119//1 56//1 120//1
f 117//1 36//1 118//1
f 121//1 76//1 122//1
f 116//1 17//1 115//1
f 102//6 162//6 103//6
f 100//6 157//6 101//6
f 112//1 15//1 114//1
f 105//3 139//3 137//3
f 111//3 164//3 104//3
f 113//3 189//3 110//3
f 114//3 190//3 112//3
f 104//1 11//1 111//1
f 126//7 128//7 273//7 272//7
f 131//8 127//8 263//8 264//8
f 269//9 129//9 276//9 285//9
f 125//10 129//10 269//10 266//10
f 131//2 125//2 127//2
f 128//11 137//11 139//11
f 164//4 190//4 232//4
f 132//12 238//12 243//12
f 126//13 157//13 152//13
f 130//14 133//14 126//14
f 205//5 66//5 203//5
f 230//4 88//4 207//4
f 188//6 110//6 189//6
f 232//5 17//5 233//5
f 144//6 98//6 142//6
f 174//3 43//3 175//3
f 179//3 67//3 205//3
f 217//6 33//6 216//6
f 193//6 29//6 192//6
f 152//3 59//3 154//3
f 202//6 69//6 204//6
f 192//3 31//3 215//3
f 154//5 58//5 155//5
f 170//5 22//5 171//5
f 142//3 19//3 143//3
f 194//4 24//4 168//4
f 191//6 112//6 190//6
f 198//5 47//5 46//5
f 215//5 30//5 218//5
f 149//4 109//4 151//4
f 251//5 124//5 258//5
f 253//4 92//4 229//4
f 247//4 76//4 246//4
f 199//4 44//4 173//4
f 221//6 53//6 219//6
f 156//3 63//3 180//3
f 206//4 68//4 202//4
f 228//3 95//3 252//3
f 243//4 257//4 136//4
f 247//4 251//4 136//4
f 251//4 135//4 261//4
f 172//3 47//3 200//3
f 186//4 12//4 188//4
f 226//3 75//3 225//3
f 159//3 83//3 184//3
f 225//5 74//5 245//5
f 167//4 10//4 166//4
f 140//2 133//2 259//2
f 140//1 152//1 133//1
f 245//4 72//4 227//4
f 166//6 104//6 164//6
f 138//6 107//6 106//6
f 165//5 11//5 167//5
f 208//3 91//3 231//3
f 175//5 42//5 176//5
f 239//6 37//6 234//6
f 161//5 78//5 163//5
f 222//4 48//4 201//4
f 213//4 14//4 191//4
f 244//3 121//3 257//3
f 171//4 20//4 146//4
f 243//4 56//4 240//4
f 203//4 64//4 178//4
f 248//6 96//6 97//6
f 176//4 40//4 177//4
f 235//4 32//4 217//4
f 197//6 48//6 49//6
f 210//4 84//4 182//4
f 196//3 51//3 220//3
f 218//4 28//4 193//4
f 224//5 71//5 70//5
f 153//6 61//6 156//6
f 181//4 60//4 153//4
f 169//3 27//3 195//3
f 258//4 96//4 249//4
f 227//6 73//6 226//6
f 214//5 15//5 213//5
f 246//6 77//6 244//6
f 220//5 50//5 222//5
f 139//5 9//5 141//5
f 183//3 87//3 209//3
f 231//5 90//5 230//5
f 155//4 101//4 157//4
f 211//6 116//6 212//6
f 173//6 45//6 172//6
f 168//6 25//6 169//6
f 145//3 23//3 170//3
f 160//6 81//6 159//6
f 216//3 35//3 236//3
f 229//6 93//6 228//6
f 255//5 118//5 256//5
f 151//6 108//6 150//6
f 187//5 13//5 186//5
f 143//5 18//5 147//5
f 178//6 65//6 179//6
f 182//6 85//6 183//6
f 256//4 36//4 239//4
f 177//6 41//6 174//6
f 148//5 38//5 149//5
f 158//3 79//3 161//3
f 237//3 119//3 238//3
f 147//4 99//4 144//4
f 257//5 122//5 247//5
f 250//3 123//3 251//3
f 209//5 86//5 210//5
f 242//5 54//5 241//5
f 212//3 115//3 232//3
f 234//3 117//3 255//3
f 236//5 34//5 235//5
f 185//4 80//4 160//4
f 141//4 107//4 140//4
f 146//6 21//6 145//6
f 163//4 103//4 162//4
f 238//5 120//5 243//5
f 195//5 26//5 194//5
f 150//3 39//3 148//3
f 219//3 55//3 242//3
f 233//4 16//4 211//4
f 240//6 57//6 237//6
f 166//1 139//1 141//1
f 168//1 169//1 171//1
f 184//5 82//5 185//5
f 254//5 95//5 94//5
f 180//5 62//5 181//5
f 241//4 52//4 221//4
f 139//4 164//4 135//4
f 165//4 189//4 135//4
f 187//4 190//4 135//4
f 214//4 212//4 135//4
f 135//3 212//3 260//3
f 207//6 89//6 208//6
f 204//3 71//3 223//3
f 98//1 99//1 18//1
f 21//1 20//1 22//1
f 25//1 24//1 26//1
f 29//1 28//1 30//1
f 33//1 32//1 34//1
f 108//1 109//1 38//1
f 41//1 40//1 42//1
f 45//1 44//1 46//1
f 49//1 48//1 50//1
f 53//1 52//1 54//1
f 100//1 101//1 58//1
f 61//1 60//1 62//1
f 65//1 64//1 66//1
f 69//1 68//1 70//1
f 73//1 72//1 74//1
f 102//1 103//1 78//1
f 81//1 80//1 82//1
f 85//1 84//1 86//1
f 89//1 88//1 90//1
f 93//1 92//1 94//1
f 123//1 97//1 96//1
f 110//1 12//1 13//1
f 105//1 106//1 107//1
f 119//1 57//1 56//1
f 117//1 37//1 36//1
f 121//1 77//1 76//1
f 116//1 16//1 17//1
f 102//6 158//6 162//6
f 100//6 152//6 157//6
f 112//1 14//1 15//1
f 134//3 106//3 137//3
f 106//3 105//3 137//3
f 111//3 165//3 164//3
f 113//3 187//3 189//3
f 114//3 214//3 190//3
f 104//1 10//1 11//1
f 263//15 127//15 270//15 281//15
f 267//16 126//16 272//16 283//16
f 132//17 130//17 277//17 274//17
f 131//18 264//18 278//18 275//18
f 131//2 129//2 125//2
f 135//11 132//11 139//11
f 132//11 128//11 139//11
f 128//11 134//11 137//11
f 134//4 259//4 140//4
f 140//1 141//1 260//1
f 141//1 139//1 260//1
f 164//3 165//3 189//3
f 134//1 140//1 260//1
f 164//3 189//3 187//3
f 164//4 187//4 190//4
f 260//3 139//3 164//3
f 190//3 214//3 212//3
f 135//4 260//4 164//4
f 190//4 212//4 232//4
f 232//3 135//3 164//3
f 136//12 130//12 243//12
f 130//12 132//12 243//12
f 132//12 135//12 238//12
f 134//13 128//13 152//13
f 128//13 126//13 152//13
f 126//13 133//13 157//13
f 130//14 136//14 133//14
f 205//5 67//5 66//5
f 230//4 90//4 88//4
f 188//6 12//6 110//6
f 232//5 115//5 17//5
f 144//6 99//6 98//6
f 174//3 41//3 43//3
f 179//3 65//3 67//3
f 217//6 32//6 33//6
f 193//6 28//6 29//6
f 152//3 100//3 59//3
f 202//6 68//6 69//6
f 192//3 29//3 31//3
f 154//5 59//5 58//5
f 170//5 23//5 22//5
f 142//3 98//3 19//3
f 194//4 26//4 24//4
f 191//6 14//6 112//6
f 46//5 199//5 198//5
f 198//5 200//5 47//5
f 215//5 31//5 30//5
f 149//4 38//4 109//4
f 251//5 123//5 124//5
f 253//4 94//4 92//4
f 247//4 122//4 76//4
f 199//4 46//4 44//4
f 221//6 52//6 53//6
f 156//3 61//3 63//3
f 206//4 70//4 68//4
f 228//3 93//3 95//3
f 243//2 238//2 135//2
f 257//4 247//4 136//4
f 243//4 135//4 257//4
f 247//4 257//4 135//4
f 251//2 258//2 136//2
f 247//4 135//4 251//4
f 135//2 255//2 261//2
f 261//4 136//4 251//4
f 172//3 45//3 47//3
f 186//4 13//4 12//4
f 226//3 73//3 75//3
f 159//3 81//3 83//3
f 225//5 75//5 74//5
f 167//4 11//4 10//4
f 134//2 138//2 140//2
f 133//2 162//2 259//2
f 152//4 157//4 133//4
f 140//4 134//4 152//4
f 245//4 74//4 72//4
f 166//6 10//6 104//6
f 106//6 134//6 138//6
f 138//6 140//6 107//6
f 165//5 111//5 11//5
f 208//3 89//3 91//3
f 175//5 43//5 42//5
f 239//6 36//6 37//6
f 161//5 79//5 78//5
f 222//4 50//4 48//4
f 213//4 15//4 14//4
f 244//3 77//3 121//3
f 171//4 22//4 20//4
f 243//4 120//4 56//4
f 203//4 66//4 64//4
f 97//6 250//6 248//6
f 248//6 249//6 96//6
f 176//4 42//4 40//4
f 235//4 34//4 32//4
f 49//6 196//6 197//6
f 197//6 201//6 48//6
f 210//4 86//4 84//4
f 196//3 49//3 51//3
f 218//4 30//4 28//4
f 70//5 206//5 224//5
f 224//5 223//5 71//5
f 153//6 60//6 61//6
f 181//4 62//4 60//4
f 169//3 25//3 27//3
f 258//4 124//4 96//4
f 227//6 72//6 73//6
f 214//5 114//5 15//5
f 246//6 76//6 77//6
f 220//5 51//5 50//5
f 139//5 105//5 9//5
f 183//3 85//3 87//3
f 231//5 91//5 90//5
f 155//4 58//4 101//4
f 211//6 16//6 116//6
f 173//6 44//6 45//6
f 168//6 24//6 25//6
f 145//3 21//3 23//3
f 160//6 80//6 81//6
f 216//3 33//3 35//3
f 229//6 92//6 93//6
f 255//5 117//5 118//5
f 151//6 109//6 108//6
f 187//5 113//5 13//5
f 143//5 19//5 18//5
f 178//6 64//6 65//6
f 182//6 84//6 85//6
f 256//4 118//4 36//4
f 177//6 40//6 41//6
f 148//5 39//5 38//5
f 158//3 102//3 79//3
f 237//3 57//3 119//3
f 147//4 18//4 99//4
f 257//5 121//5 122//5
f 250//3 97//3 123//3
f 209//5 87//5 86//5
f 242//5 55//5 54//5
f 212//3 116//3 115//3
f 234//3 37//3 117//3
f 236//5 35//5 34//5
f 185//4 82//4 80//4
f 141//4 9//4 107//4
f 146//6 20//6 21//6
f 163//4 78//4 103//4
f 238//5 119//5 120//5
f 195//5 27//5 26//5
f 150//3 108//3 39//3
f 219//3 53//3 55//3
f 233//4 17//4 16//4
f 240//6 56//6 57//6
f 135//1 232//1 233//1
f 211//1 212//1 214//1
f 255//1 135//1 233//1
f 211//1 214//1 213//1
f 255//1 233//1 234//1
f 233//1 211//1 234//1
f 216//1 236//1 213//1
f 236//1 234//1 211//1
f 211//1 213//1 236//1
f 213//1 191//1 216//1
f 216//1 191//1 215//1
f 195//1 192//1 188//1
f 192//1 215//1 186//1
f 186//1 215//1 191//1
f 191//1 190//1 187//1
f 170//1 169//1 166//1
f 169//1 195//1 167//1
f 167//1 195//1 188//1
f 191//1 187//1 186//1
f 188//1 189//1 165//1
f 192//1 186//1 188//1
f 188//1 165//1 167//1
f 143//1 145//1 140//1
f 145//1 170//1 141//1
f 166//1 169//1 167//1
f 145//1 141//1 140//1
f 142//2 143//2 144//2
f 170//1 166//1 141//1
f 166//1 164//1 139//1
f 140//4 259//4 144//4
f 140//1 144//1 143//1
f 261//4 255//4 256//4
f 239//1 234//1 236//1
f 136//1 261//1 256//1
f 239//1 236//1 235//1
f 136//1 256//1 239//1
f 162//1 133//1 136//1
f 147//1 144//1 259//1
f 259//1 162//1 136//1
f 136//1 239//1 235//1
f 217//1 216//1 215//1
f 136//1 235//1 217//1
f 147//1 259//1 146//1
f 259//1 136//1 193//1
f 146//1 259//1 171//1
f 145//1 143//1 147//1
f 146//1 145//1 147//1
f 217//1 215//1 218//1
f 193//1 192//1 195//1
f 136//1 217//1 218//1
f 193//1 195//1 194//1
f 136//1 218//1 193//1
f 171//1 259//1 168//1
f 169//1 170//1 171//1
f 168//1 259//1 194//1
f 193//1 194//1 259//1
f 184//5 83//5 82//5
f 94//5 253//5 254//5
f 254//5 252//5 95//5
f 180//5 63//5 62//5
f 241//4 54//4 52//4
f 139//4 137//4 134//4
f 164//3 165//3 135//3
f 139//4 134//4 164//4
f 165//4 164//4 134//4
f 189//3 187//3 135//3
f 165//4 134//4 189//4
f 187//4 189//4 134//4
f 190//4 214//4 135//4
f 187//4 134//4 190//4
f 214//4 190//4 134//4
f 212//3 232//3 135//3
f 214//4 134//4 212//4
f 212//3 134//3 260//3
f 207//6 88//6 89//6
f 204//3 69//3 71//3
f 262//3 264//3 263//3
f 262//3 265//3 264//3
f 128//19 132//19 265//19 262//19
f 265//20 132//20 274//20 282//20
f 268//4 266//4 269//4
f 268//4 267//4 266//4
f 130//21 126//21 267//21 268//21
f 127//22 125//22 271//22 270//22
f 272//6 270//6 271//6
f 274//5 276//5 275//5
f 272//6 273//6 270//6
f 274//5 275//5 278//5 282//5
f 274//5 277//5 276//5
f 272//6 271//6 279//6 283//6
f 270//6 273//6 280//6 281//6
f 276//5 277//5 284//5 285//5
f 125//23 266//23 279//23 271//23
f 128//24 262//24 280//24 273//24
f 262//3 263//3 281//3 280//3
f 130//25 268//25 284//25 277//25
f 266//4 267//4 283//4 279//4
f 268//4 269//4 285//4 284//4
f 264//3 265//3 282//3 278//3
f 129//26 131//26 275//26 276//26
f 303//6 287//6 289//6 304//6
f 304//27 289//27 293//27 306//27
f 306//5 293//5 291//5 308//5
f 308//28 291//28 287//28 303//28
f 288//2 292//2 290//2 286//2
f 293//1 289//1 287//1 291//1
f 290//29 301//29 294//29 286//29
f 319//6 318//6 314//6 315//6
f 292//5 299//5 301//5 290//5
f 299//5 298//5 300//5 301//5
f 288//30 297//30 299//30 292//30
f 297//31 296//31 298//31 299//31
f 286//6 294//6 297//6 288//6
f 294//6 295//6 296//6 297//6
f 300//4 309//4 302//4 295//4
f 323//32 322//32 313//32 310//32
f 298//5 307//5 309//5 300//5
f 307//5 306//5 308//5 309//5
f 296//3 305//3 307//3 298//3
f 305//3 304//3 306//3 307//3
f 295//6 302//6 305//6 296//6
f 302//6 303//6 304//6 305//6
f 313//33 312//33 311//33 310//33
f 317//34 316//34 315//34 314//34
f 318//35 320//35 317//35 314//35
f 325//36 324//36 311//36 312//36
f 322//5 325//5 312//5 313//5
f 321//37 319//37 315//37 316//37
f 320//5 321//5 316//5 317//5
f 324//6 323//6 310//6 311//6
f 309//5 308//5 321//5 320//5
f 308//38 303//38 319//38 321//38
f 302//39 309//39 320//39 318//39
f 303//6 302//6 318//6 319//6
f 295//6 294//6 323//6 324//6
f 301//5 300//5 325//5 322//5
f 300//40 295//40 324//40 325//40
f 294//41 301//41 322//41 323//41
l 151 133
l 150 134
l 144 133
l 142 134
l 157 158
l 154 156
l 151 259
l 148 174
l 180 179
l 160 163
l 184 183
l 175 172
l 205 204
l 209 208
l 198 197
l 224 226
l 231 228
l 220 219
l 225 244
l 254 248
l 242 237
l 137 134
l 232 135
