# Blender v2.79 (sub 0) OBJ File: 'PillarsNWalls.blend'
# www.blender.org
mtllib Wall_1.mtl
o Cube.129_Cube.149
v -21.524876 -0.000001 -73.513550
v -21.524876 12.499999 -73.513550
v -21.524876 -0.000001 -75.013550
v -21.524876 12.499999 -75.013550
v -11.489590 -0.000001 -73.513550
v -11.489590 -0.000001 -75.013550
v -21.524876 2.972221 -73.513550
v -21.524876 2.972221 -75.013550
v -11.489590 2.972221 -75.013550
v -11.489590 2.972221 -73.513550
v -21.524876 2.972221 -75.313553
v -21.524876 -0.000001 -75.313553
v -11.489590 -0.000001 -75.313553
v -11.489590 2.972221 -75.313553
v -11.489590 2.972221 -73.213547
v -11.489590 -0.000001 -73.213547
v -21.524876 -0.000001 -73.213547
v -21.524876 2.972221 -73.213547
v -21.524876 11.456225 -73.513550
v -21.524876 11.456225 -75.013550
v -21.524876 11.456225 -73.363548
v -21.524876 12.499999 -73.363548
v -21.524876 12.499999 -75.163551
v -21.524876 11.456225 -75.163551
v -11.489590 8.052065 -75.013550
v -11.489590 8.052065 -73.513550
v -13.498674 7.052066 -73.513550
v -13.498674 7.052066 -75.013550
v -17.498674 7.052066 -75.013550
v -17.498674 7.052066 -73.513550
v -17.498674 9.552066 -75.013550
v -17.498674 9.552066 -73.513550
v -13.498674 8.052065 -73.513550
v -13.498674 8.052065 -75.013550
v -18.498674 10.052066 -73.513550
v -18.498674 10.052066 -75.013550
v -18.498674 11.456225 -75.163551
v -18.498674 11.456225 -75.013550
v -18.498674 11.456225 -73.363548
v -18.498674 11.456225 -73.513550
v -18.498674 11.456690 -73.363548
v -18.498674 11.456690 -75.163551
v -19.507233 11.456690 -73.363548
v -19.507233 11.456690 -75.163551
v -19.507233 12.499999 -75.013550
v -19.507233 12.499999 -75.163551
v -19.507233 12.499999 -73.513550
v -19.507233 12.499999 -73.363548
v -17.292473 10.052066 -73.513550
v -17.292473 9.552066 -73.513550
v -17.292473 9.552066 -75.013550
v -17.292473 9.682443 -75.013550
v -17.292473 10.052066 -75.013550
vn -1.0000 0.0000 0.0000
vn 0.0000 -1.0000 0.0000
vn 1.0000 0.0000 0.0000
vn 0.0000 0.0000 1.0000
vn 0.0000 0.0000 -1.0000
vn 0.0000 1.0000 0.0000
usemtl Material
s off
f 19//1 2//1 4//1 20//1
f 3//2 6//2 5//2 1//2
f 6//2 3//2 12//2 13//2
f 6//3 9//3 10//3 5//3
f 9//3 6//3 13//3 14//3
f 1//1 7//1 8//1 3//1
f 16//4 15//4 18//4 17//4
f 12//5 11//5 14//5 13//5
f 5//3 10//3 15//3 16//3
f 8//6 9//6 14//6 11//6
f 10//6 7//6 18//6 15//6
f 3//1 8//1 11//1 12//1
f 7//1 1//1 17//1 18//1
f 1//2 5//2 16//2 17//2
f 30//4 32//4 35//4
f 9//3 25//3 26//3 10//3
f 36//5 31//5 29//5
f 7//1 19//1 20//1 8//1
f 24//5 23//5 46//5 44//5 42//5 37//5
f 19//2 40//2 39//2 21//2
f 4//6 45//6 46//6 23//6
f 2//1 19//1 21//1 22//1
f 20//1 4//1 23//1 24//1
f 28//1 27//1 33//1 34//1
f 34//6 33//6 26//6 25//6
f 30//3 29//3 31//3 32//3
f 29//6 30//6 27//6 28//6
f 32//2 31//2 51//2 50//2
f 37//2 38//2 20//2 24//2
f 39//4 41//4 43//4 48//4 22//4 21//4
f 35//3 36//3 38//3 37//3 42//3 41//3 39//3 40//3
f 36//6 35//6 49//6 53//6
f 48//6 47//6 2//6 22//6
f 43//3 44//3 46//3 45//3 47//3 48//3
f 47//6 45//6 4//6 2//6
f 44//6 43//6 41//6 42//6
f 49//3 50//3 51//3 52//3 53//3
f 7//4 10//4 30//4
f 10//4 26//4 27//4
f 26//4 33//4 27//4
f 10//4 27//4 30//4
f 40//4 19//4 35//4
f 19//4 7//4 30//4
f 35//4 19//4 30//4
f 50//4 49//4 32//4
f 49//4 35//4 32//4
f 8//5 20//5 29//5
f 20//5 38//5 36//5
f 36//5 53//5 31//5
f 53//5 52//5 31//5
f 20//5 36//5 29//5
f 25//5 9//5 28//5
f 9//5 8//5 29//5
f 28//5 9//5 29//5
f 28//5 34//5 25//5
f 52//5 51//5 31//5
