# Blender v2.79 (sub 0) OBJ File: 'PillarsNWalls.blend'
# www.blender.org
mtllib Island.mtl
o Circle
v -16.754583 -0.139059 -51.312408
v -16.754583 -0.139059 -206.123306
v -107.750145 -0.139059 -176.557053
v -163.988495 -0.139059 -99.151604
v -147.233902 0.000000 47.839203
v -90.995552 0.000000 125.244659
v 0.000014 0.000000 154.810898
v 90.995583 0.000000 125.244637
v 147.233902 0.000000 47.839214
v 147.233902 0.000000 -47.839218
v 74.240929 -0.139059 -176.557098
v -47.293377 -188.782776 -93.345459
v -16.754585 -188.782776 -103.268105
v -0.000003 -188.643723 -0.000002
v -66.167397 -188.782776 -67.367599
v -49.412804 -188.643723 16.055193
v -30.538795 -188.643723 42.033043
v 0.000002 -188.643723 51.955692
v 30.538795 -188.643723 42.033035
v 49.412804 -188.643723 16.055197
v 49.412804 -188.643723 -16.055202
v 13.784189 -188.782776 -93.345459
vt 0.500000 0.500000
vt 0.500000 1.000000
vt 0.206107 0.904508
vt 0.024472 0.654508
vt 0.024472 0.345491
vt 0.206107 0.095491
vt 0.500000 0.000000
vt 0.793893 0.095492
vt 0.975528 0.345491
vt 0.975528 0.654509
vt 0.793893 0.904509
vt 0.500000 0.500000
vt 0.206107 0.904508
vt 0.500000 1.000000
vt 0.024472 0.654508
vt 0.024472 0.345491
vt 0.206107 0.095491
vt 0.500000 0.000000
vt 0.793893 0.095492
vt 0.975528 0.345491
vt 0.975528 0.654509
vt 0.793893 0.904509
vn 0.0000 1.0000 0.0000
vn 0.0003 1.0000 -0.0010
vn 0.0007 1.0000 -0.0005
vn 0.0002 1.0000 -0.0007
vn -0.0002 1.0000 -0.0007
vn -0.0006 1.0000 -0.0004
vn -0.0008 1.0000 0.0000
vn -0.0008 1.0000 -0.0006
vn 0.0004 -1.0000 0.0013
vn 0.0012 -1.0000 0.0009
vn 0.0005 -1.0000 0.0016
vn 0.0000 -1.0000 -0.0000
vn -0.0005 -1.0000 0.0014
vn 0.2743 -0.4603 0.8443
vn 0.8877 -0.4603 0.0000
vn -0.8804 -0.4565 0.1286
vn 0.2743 -0.4603 -0.8443
vn -0.2743 -0.4603 0.8443
vn 0.7182 -0.4603 0.5218
vn -0.7182 -0.4603 -0.5218
vn 0.7872 -0.4566 -0.4145
vn -0.2743 -0.4603 -0.8443
vn -0.7182 -0.4603 0.5218
usemtl None
s off
f 1/1/1 2/2/1 3/3/1
f 1/1/1 3/3/1 4/4/1
f 1/1/2 4/4/2 5/5/2
f 1/1/3 5/5/3 6/6/3
f 1/1/4 6/6/4 7/7/4
f 1/1/5 7/7/5 8/8/5
f 1/1/6 8/8/6 9/9/6
f 1/1/7 9/9/7 10/10/7
f 1/1/8 10/10/8 11/11/8
f 1/1/1 11/11/1 2/2/1
f 14/12/9 12/13/9 13/14/9
f 14/12/10 15/15/10 12/13/10
f 14/12/11 16/16/11 15/15/11
f 14/12/12 17/17/12 16/16/12
f 14/12/12 18/18/12 17/17/12
f 14/12/12 19/19/12 18/18/12
f 14/12/12 20/20/12 19/19/12
f 14/12/12 21/21/12 20/20/12
f 14/12/11 22/22/11 21/21/11
f 14/12/13 13/14/13 22/22/13
f 7/7/14 18/18/14 19/19/14 8/8/14
f 9/9/15 20/20/15 21/21/15 10/10/15
f 4/4/16 15/15/16 16/16/16 5/5/16
f 11/11/17 22/22/17 13/14/17 2/2/17
f 6/6/18 17/17/18 18/18/18 7/7/18
f 8/8/19 19/19/19 20/20/19 9/9/19
f 3/3/20 12/13/20 15/15/20 4/4/20
f 10/10/21 21/21/21 22/22/21 11/11/21
f 2/2/22 13/14/22 12/13/22 3/3/22
f 5/5/23 16/16/23 17/17/23 6/6/23
