# Blender v2.79 (sub 0) OBJ File: 'Platforms.blend'
# www.blender.org
o Cube_Cube.005
v -17.297125 -5.262781 -1.044641
v -17.297125 -3.201104 -1.330345
v -17.297125 -5.262781 -1.758901
v -17.297125 -3.201104 -1.473197
v -16.582865 -5.262781 -1.044641
v -16.582865 -3.201104 -1.330345
v -16.582865 -5.262781 -1.758901
v -16.582865 -3.201104 -1.473197
v -17.297125 -10.263920 -1.473197
v -17.297125 -10.263920 -1.330345
v -16.582865 -10.263920 -1.473197
v -16.582865 -10.263920 -1.330345
v -16.582865 -6.002781 -1.044641
v -16.582865 -6.002781 -1.758901
v -17.297125 -6.002781 -1.044641
v -17.297125 -6.002781 -1.758901
v -17.297125 -7.862782 0.955359
v -16.582865 -7.862782 0.955359
v -16.582865 -8.602781 0.955359
v -17.297125 -8.602781 0.955359
v -17.297125 -7.862782 1.655359
v -16.582865 -7.862782 1.655359
v -16.582865 -8.602781 1.655359
v -17.297125 -8.602781 1.655359
v -17.297125 -10.327921 1.200359
v -16.582865 -10.327921 1.200359
v -17.297125 -10.327921 1.410360
v -16.582865 -10.327921 1.410360
v -17.297125 -3.383921 1.200359
v -16.582865 -3.383921 1.200359
v -17.297125 -3.383921 1.410360
v -16.582865 -3.383921 1.410360
vn -1.0000 0.0000 0.0000
vn 0.0000 0.1373 -0.9905
vn 1.0000 0.0000 0.0000
vn 0.0000 0.1373 0.9905
vn 0.0000 1.0000 0.0000
vn 0.0000 -1.0000 0.0000
vn 0.0000 -0.0669 0.9978
vn 0.0000 -0.0669 -0.9978
vn 0.0000 0.0000 -1.0000
vn 0.0000 0.6097 0.7926
vn 0.0000 -0.6097 -0.7926
vn 0.0000 0.0000 1.0000
vn 0.0000 -0.1406 0.9901
vn 0.0000 -0.1406 -0.9901
vn 0.0000 0.0546 0.9985
vn 0.0000 0.0546 -0.9985
s off
f 1//1 2//1 4//1 3//1
f 3//2 4//2 8//2 7//2
f 7//3 8//3 6//3 5//3
f 5//4 6//4 2//4 1//4
f 14//3 13//3 12//3 11//3
f 8//5 4//5 2//5 6//5
f 9//6 11//6 12//6 10//6
f 13//7 15//7 10//7 12//7
f 16//8 14//8 11//8 9//8
f 15//1 16//1 9//1 10//1
f 1//1 3//1 16//1 15//1
f 3//9 7//9 14//9 16//9
f 5//10 1//10 17//10 18//10
f 7//3 5//3 13//3 14//3
f 19//3 18//3 22//3 23//3
f 15//11 13//11 19//11 20//11
f 1//1 15//1 20//1 17//1
f 13//3 5//3 18//3 19//3
f 22//12 21//12 24//12 23//12
f 17//1 20//1 24//1 21//1
f 22//3 18//3 30//3 32//3
f 19//3 23//3 28//3 26//3
f 25//6 26//6 28//6 27//6
f 23//13 24//13 27//13 28//13
f 20//14 19//14 26//14 25//14
f 24//1 20//1 25//1 27//1
f 30//5 29//5 31//5 32//5
f 21//15 22//15 32//15 31//15
f 17//1 21//1 31//1 29//1
f 18//16 17//16 29//16 30//16
