# Blender v2.79 (sub 0) OBJ File: 'Skull_Lowpoly.blend'
# www.blender.org
o Skull_Plane
v -0.676407 1.864189 0.659600
v -0.758537 1.672166 0.806349
v -0.307521 1.748819 0.831712
v -0.209074 1.537784 0.975409
v -0.758479 1.584377 0.829164
v -0.266576 1.428704 1.009560
v -0.133778 1.456766 0.843159
v -0.112822 1.374184 0.868275
v -0.139183 1.094251 1.054762
v -0.941388 1.853256 0.362103
v -1.002290 1.725760 0.486787
v -0.916523 1.521938 0.553511
v -0.375313 0.891000 1.016508
v -0.149639 0.877135 1.092982
v -0.559841 0.595226 0.999941
v -0.210068 0.519753 1.166058
v -0.193842 0.916149 1.187175
v -0.176767 0.600772 1.145241
v -0.280389 0.286071 1.117877
v -0.780900 0.992827 0.958548
v -0.885196 0.705102 0.895821
v -0.991285 1.110391 0.583243
v -1.084632 0.781922 0.423649
v -0.960985 1.146221 0.419546
v -0.635768 2.091134 0.289456
v -0.310067 2.219372 0.343341
v -0.829982 1.867302 0.115387
v -0.654238 1.471285 0.659224
v -0.365538 1.409959 0.788056
v -0.184228 1.312035 0.685505
v -0.191413 1.079408 0.760509
v -0.777960 1.426866 0.443792
v -0.342828 0.934861 0.802573
v -0.671774 1.018285 0.755984
v -0.840805 1.114673 0.461325
v -0.854215 1.156868 0.280449
v -0.614929 1.375680 0.499017
v -0.418002 1.337235 0.580307
v -0.291254 1.278841 0.576141
v -0.273927 1.101305 0.601082
v -0.688555 1.354537 0.416781
v -0.398875 0.942229 0.598816
v -0.644974 1.005669 0.541109
v -0.737538 1.069504 0.425718
v -0.711574 1.207692 0.362699
v -0.410446 1.173943 0.497517
v -0.550636 1.201897 0.454751
v -0.469919 0.757012 1.006341
v -0.257593 0.691450 1.165032
v -0.214518 0.722757 1.123729
v -0.838992 0.831801 0.926335
v -1.083744 0.915408 0.498424
v -1.030724 1.117472 0.278284
v -0.977751 1.504103 0.185225
v -0.979673 1.640028 0.139644
v -0.854351 1.683562 -0.062553
v -0.642140 2.191887 -0.502249
v -0.291756 2.337950 -0.496918
v -0.851308 1.953843 -0.506797
v -0.877551 1.723724 -0.509180
v -0.464612 0.311003 1.019508
v -0.630417 0.547518 0.744817
v -0.534948 0.356037 0.710121
v -0.618690 0.506682 0.376056
v -0.539423 0.438360 0.340547
v -0.307007 0.141773 1.055918
v -0.425480 0.064100 1.042074
v -0.496527 0.222133 0.720613
v -0.539103 0.305785 0.351875
v -0.373189 0.131178 1.108110
v -0.261887 0.145435 1.136167
v -0.526392 0.203602 0.757235
v -0.535273 0.234329 0.665868
v -0.294007 0.188873 0.996128
v -0.361520 0.127358 0.982071
v -0.441426 0.308045 0.702589
v -0.458033 0.332190 0.397555
v -0.286479 0.270282 0.950169
v -0.395406 0.357651 0.733864
v -0.336031 0.220935 0.907881
v -0.407672 0.374318 0.508434
v -0.869573 0.768418 0.041478
v -0.861829 1.070719 0.096686
v -0.810780 1.398305 0.023959
v -0.812616 1.505760 -0.086159
v -0.915641 0.772666 -0.118487
v -0.923698 1.074915 -0.063437
v -0.872648 1.402501 -0.136164
v -0.939290 1.581963 -0.338589
v -0.928290 0.707467 -0.518959
v -1.049767 0.916499 -0.518457
v -0.996127 1.275265 -0.514596
v -0.885709 1.486175 -0.551443
v -1.021558 0.665381 0.079205
v -0.715797 0.550494 -0.248301
v -0.703328 0.500239 -0.458078
v -0.347527 1.956997 -1.456896
v -0.360237 1.373539 -1.618814
v -0.359225 0.621344 -1.474523
v -0.281257 0.109692 -0.819073
v -0.289032 0.480274 -0.163035
v -0.654315 1.297136 -1.473805
v -0.653800 0.772869 -1.354249
v -0.951532 1.309883 -0.916040
v -0.951174 0.857494 -0.804283
v -0.873308 1.565685 -0.868404
v -0.666760 1.765121 -1.324229
v -0.267557 2.223466 -1.038264
v -0.648848 2.023650 -0.989748
v -0.822083 1.797474 -0.739692
v -0.290083 0.297677 -1.193492
v -0.550594 0.440023 -1.014767
v -0.640233 0.518849 -0.719306
v 0.663206 1.868563 0.673004
v 0.743635 1.677070 0.821380
v 0.291711 1.750775 0.837708
v 0.191789 1.539093 0.979420
v 0.743694 1.589282 0.844195
v 0.249307 1.430388 1.014722
v 0.119685 1.457594 0.845695
v 0.098770 1.374875 0.870393
v 0.123220 1.095108 1.057388
v 0.934153 1.859379 0.380870
v 0.993379 1.732276 0.506756
v 0.907627 1.527894 0.571763
v 0.361392 0.893405 1.023880
v 0.134327 0.878062 1.095823
v 0.548140 0.598844 1.011027
v 0.195614 0.521077 1.170118
v 0.176381 0.917358 1.190880
v 0.162208 0.601878 1.148633
v 0.268409 0.287862 1.123368
v 0.767383 0.997882 0.974040
v 0.874790 0.710848 0.913432
v 0.984464 1.116842 0.603013
v 1.083129 0.788999 0.445340
v 0.957213 1.152484 0.438740
v 0.628501 2.095262 0.302106
v 0.300957 2.221367 0.349455
v 0.827616 1.872714 0.131973
v 0.643614 1.475522 0.672210
v 0.352801 1.412304 0.795244
v 0.174223 1.313205 0.689092
v 0.181424 1.080626 0.764240
v 0.771911 1.431926 0.459300
v 0.332907 0.937067 0.809334
v 0.662169 1.022640 0.769331
v 0.836429 1.120149 0.478108
v 0.853179 1.162443 0.297533
v 0.608144 1.379674 0.511255
v 0.409886 1.339937 0.588591
v 0.283630 1.280717 0.581893
v 0.266968 1.103071 0.606494
v 0.683538 1.359017 0.430510
v 0.392971 0.944814 0.606739
v 0.639756 1.009863 0.553965
v 0.734193 1.074309 0.440444
v 0.708592 1.212328 0.376909
v 0.405054 1.176605 0.505677
v 0.545886 1.205476 0.465723
v 0.457055 0.760039 1.015617
v 0.242028 0.693082 1.170031
v 0.199585 0.724109 1.127872
v 0.827158 0.837241 0.943007
v 1.079872 0.922472 0.520074
v 1.029950 1.124200 0.298903
v 0.976327 1.510483 0.204778
v 0.978273 1.646421 0.159235
v 0.856741 1.689148 -0.045431
v 0.650056 2.196105 -0.489319
v 0.298689 2.339878 -0.491010
v 0.860823 1.959433 -0.489665
v 0.888610 1.729490 -0.491508
v 0.454397 0.314004 1.028704
v 0.624118 0.551614 0.757370
v 0.530615 0.359516 0.720784
v 0.620039 0.510726 0.388451
v 0.541946 0.441891 0.351368
v 0.297203 0.143746 1.061964
v 0.416434 0.066849 1.050498
v 0.492866 0.225364 0.730513
v 0.542265 0.309315 0.362695
v 0.362396 0.133579 1.115471
v 0.250464 0.147107 1.141294
v 0.522112 0.207025 0.767727
v 0.532620 0.237815 0.676553
v 0.285095 0.190763 1.001923
v 0.353276 0.129691 0.989224
v 0.437577 0.310915 0.711384
v 0.460126 0.335188 0.406742
v 0.277957 0.272125 0.955817
v 0.390618 0.360218 0.741729
v 0.328666 0.223105 0.914532
v 0.407283 0.376978 0.516589
v 0.875853 0.774116 0.058943
v 0.865032 1.076357 0.113966
v 0.813310 1.403607 0.040210
v 0.816648 1.511079 -0.069857
v 0.925083 0.778675 -0.100068
v 0.930064 1.080968 -0.044888
v 0.878342 1.408218 -0.118644
v 0.947848 1.588124 -0.319706
v 0.946169 0.713587 -0.500203
v 1.066244 0.923407 -0.497284
v 1.010197 1.281815 -0.494520
v 0.899163 1.492002 -0.533583
v 1.027722 0.672072 0.099710
v 0.729332 0.555212 -0.233841
v 0.721391 0.504890 -0.443822
v 0.376144 1.959360 -1.449655
v 0.395901 1.376008 -1.611248
v 0.396913 0.623813 -1.466957
v 0.309188 0.111620 -0.813165
v 0.301413 0.482202 -0.157126
v 0.687511 1.301517 -1.460379
v 0.688026 0.777250 -1.340822
v 0.973418 1.316168 -0.896778
v 0.973777 0.863778 -0.785022
v 0.892588 1.571450 -0.850734
v 0.693905 1.769563 -1.310614
v 0.286076 2.225274 -1.032725
v 0.667616 2.027949 -0.976575
v 0.837285 1.802892 -0.723088
v 0.324277 0.299682 -1.187345
v 0.580223 0.443715 -1.003452
v 0.663416 0.523105 -0.706261
v -0.008393 1.446619 0.982374
v -0.008814 1.349918 1.055994
v -0.009480 1.152748 1.186909
v -0.007493 1.674647 0.818112
v -0.007668 0.669571 1.163492
v -0.006640 0.721684 1.043779
v -0.006984 1.052229 0.970328
v -0.006461 0.260400 1.176343
v -0.004769 2.243276 0.360287
v -0.006836 0.869419 1.015144
v 0.003350 2.372188 -0.493175
v -0.006107 0.123723 1.185607
v -0.005490 0.178756 1.105938
v -0.005039 0.263751 1.033194
v -0.005241 0.336822 1.029546
v -0.004270 0.266601 0.955349
v -0.002602 0.430378 0.735300
v -0.003785 0.293285 0.898259
v -0.000389 0.445357 0.509194
v 0.014575 2.007542 -1.496041
v 0.018852 1.422146 -1.732438
v 0.019681 0.582567 -1.541358
v 0.014480 0.091924 -0.861412
v 0.005828 0.450876 -0.113914
v 0.009334 2.265688 -1.056482
v 0.017772 0.269308 -1.248374
vn -0.1430 0.5748 0.8057
vn -0.2167 0.3292 0.9191
vn 0.7770 0.0460 0.6278
vn -0.7859 0.2268 0.5753
vn -0.7638 0.3870 0.5166
vn -0.6484 0.4467 0.6165
vn 0.4510 0.3012 0.8401
vn -0.8262 -0.0716 0.5588
vn -0.5494 0.6700 0.4992
vn -0.6453 0.5733 0.5048
vn -0.4906 0.0484 0.8700
vn 0.3513 0.2187 0.9104
vn 0.7817 -0.5166 0.3494
vn 0.8047 -0.2610 0.5332
vn -0.3572 0.7201 0.5949
vn -0.1053 -0.0433 0.9935
vn -0.1851 -0.0452 0.9817
vn -0.8351 0.1826 0.5189
vn -0.8583 0.4984 0.1226
vn -0.9650 0.1106 0.2379
vn -0.9712 -0.2227 0.0847
vn -0.9395 0.3133 -0.1386
vn -0.5802 0.7969 0.1683
vn -0.2127 0.7630 0.6104
vn -0.7969 0.4867 -0.3578
vn 0.0518 0.6723 0.7384
vn -0.6660 0.7428 0.0683
vn 0.1732 0.9587 0.2256
vn -0.3184 -0.8717 0.3724
vn 0.1605 0.9630 0.2166
vn 0.2073 0.9511 0.2288
vn -0.9595 0.1752 0.2204
vn -0.3621 -0.8848 0.2931
vn 0.5658 -0.4298 0.7037
vn -0.2212 -0.9341 0.2801
vn -0.4017 -0.8016 0.4429
vn -0.3474 -0.8480 0.4003
vn -0.1294 0.8004 0.5853
vn -0.6815 0.6614 0.3133
vn -0.2857 -0.8565 0.4298
vn -0.2471 -0.4012 0.8820
vn 0.2524 0.9672 -0.0298
vn -0.8138 0.1185 0.5689
vn 0.4727 0.8802 0.0424
vn -0.2420 0.3785 0.8934
vn -0.4251 -0.1815 0.8867
vn -0.3848 -0.3962 0.8336
vn -0.5542 -0.3085 0.7731
vn -0.4338 0.4401 0.7862
vn -0.3366 0.5102 0.7915
vn -0.8977 -0.0157 0.4402
vn -0.2569 -0.0024 0.9664
vn 0.4323 0.1931 0.8808
vn 0.4803 0.1030 0.8710
vn -0.6158 0.2033 0.7612
vn -0.7681 0.6326 0.0988
vn -0.1003 0.9847 0.1423
vn -0.3823 0.9162 0.1203
vn -0.9937 0.0984 0.0531
vn -0.4534 -0.0709 0.8885
vn -0.9015 -0.3686 0.2268
vn -0.3848 -0.8822 0.2714
vn -0.8340 -0.5504 -0.0391
vn -0.4983 -0.8638 0.0743
vn -0.1917 0.0841 0.9778
vn -0.9999 -0.0015 0.0118
vn -0.9641 -0.0705 0.2560
vn 0.6051 -0.4057 0.6850
vn -0.5801 0.1032 0.8080
vn -0.8696 -0.0505 0.4912
vn -0.6845 -0.2501 -0.6847
vn -0.8206 -0.1933 0.5377
vn 0.7959 -0.4188 0.4372
vn 0.4054 -0.7332 -0.5459
vn 0.6828 -0.6388 -0.3547
vn 0.0688 -0.9067 -0.4162
vn -0.3809 -0.6843 -0.6219
vn 0.6346 -0.5258 -0.5663
vn 0.7015 -0.7074 0.0864
vn 0.5423 -0.8275 -0.1457
vn 0.7538 -0.6508 -0.0911
vn 0.6666 -0.4989 -0.5539
vn 0.2482 -0.5704 -0.7830
vn 0.7073 -0.4860 -0.5134
vn 0.1440 -0.7557 -0.6389
vn 0.1107 -0.9794 0.1687
vn 0.2390 -0.9705 -0.0332
vn 0.1766 -0.9816 -0.0727
vn -0.8639 -0.0595 -0.5002
vn -0.7252 -0.0537 -0.6865
vn -0.8062 -0.3276 -0.4926
vn -0.9464 -0.0584 0.3176
vn -0.9078 0.2206 0.3566
vn -0.8513 0.2801 0.4436
vn -0.9737 -0.2212 -0.0554
vn -0.9395 -0.2620 0.2208
vn -0.9586 0.1692 0.2290
vn -0.9871 0.1480 0.0609
vn -0.9429 0.3254 -0.0709
vn -0.7270 0.5369 -0.4281
vn -0.8822 0.0035 -0.4708
vn -0.6936 -0.7077 0.1341
vn -0.1682 0.8475 -0.5034
vn -0.2318 0.3153 -0.9202
vn -0.2244 -0.2012 -0.9535
vn -0.1372 -0.8934 -0.4277
vn -0.0760 -0.8851 0.4592
vn -0.4831 -0.8524 0.1999
vn -0.4273 -0.9041 0.0030
vn -0.4233 -0.1839 -0.8871
vn -0.8797 -0.1103 -0.4625
vn -0.9780 0.0370 -0.2051
vn -0.9269 0.3750 -0.0140
vn -0.8924 0.1923 -0.4081
vn -0.4875 0.2481 -0.8371
vn -0.1348 0.9709 -0.1979
vn -0.5222 0.7300 -0.4410
vn -0.4260 0.8705 -0.2464
vn -0.8929 0.3693 -0.2577
vn -0.8083 0.5269 -0.2627
vn -0.9850 0.1535 -0.0791
vn -0.9736 0.1131 -0.1981
vn -0.1927 -0.6681 -0.7187
vn -0.5997 -0.6272 -0.4970
vn -0.7575 -0.6116 -0.2285
vn -0.7356 -0.6221 -0.2681
vn -0.6323 -0.7469 -0.2059
vn -0.6998 -0.6869 -0.1963
vn -0.5185 -0.8110 0.2711
vn -0.1534 -0.9871 -0.0450
vn 0.0646 -0.9947 -0.0794
vn 0.5074 -0.0721 -0.8587
vn -0.2224 -0.9562 -0.1902
vn 0.7976 0.3463 -0.4938
vn 0.1231 0.5757 0.8084
vn 0.1961 0.3305 0.9232
vn -0.7897 0.0409 0.6122
vn 0.7727 0.2319 0.5909
vn 0.7507 0.3919 0.5318
vn 0.6330 0.4509 0.6293
vn -0.4697 0.2982 0.8309
vn 0.8153 -0.0662 0.5752
vn 0.5349 0.6736 0.5101
vn 0.6314 0.5775 0.5176
vn 0.4728 0.0515 0.8797
vn -0.3708 0.2163 0.9032
vn -0.7851 -0.5217 0.3337
vn -0.8135 -0.2662 0.5170
vn 0.3405 0.7224 0.6019
vn 0.0857 -0.0427 0.9954
vn 0.1658 -0.0440 0.9852
vn 0.8233 0.1880 0.5355
vn 0.8524 0.5039 0.1397
vn 0.9593 0.1168 0.2572
vn 0.9708 -0.2163 0.1041
vn 0.9400 0.3194 -0.1198
vn 0.5715 0.8006 0.1798
vn 0.1955 0.7643 0.6145
vn 0.8007 0.4919 -0.3418
vn -0.0709 0.6719 0.7372
vn 0.6596 0.7472 0.0816
vn -0.1840 0.9575 0.2220
vn 0.3166 -0.8697 0.3787
vn -0.1711 0.9619 0.2133
vn -0.2181 0.9498 0.2245
vn 0.9538 0.1815 0.2396
vn 0.3619 -0.8825 0.3004
vn -0.5769 -0.4335 0.6923
vn 0.2216 -0.9327 0.2845
vn 0.3980 -0.7990 0.4509
vn 0.3449 -0.8457 0.4073
vn 0.1125 0.8012 0.5877
vn 0.6708 0.6658 0.3268
vn 0.2827 -0.8547 0.4355
vn 0.2321 -0.3996 0.8868
vn -0.2581 0.9655 -0.0349
vn 0.8015 0.1238 0.5851
vn -0.4792 0.8771 0.0329
vn 0.2216 0.3800 0.8981
vn 0.4085 -0.1788 0.8951
vn 0.3706 -0.3938 0.8412
vn 0.5407 -0.3049 0.7840
vn 0.4151 0.4428 0.7947
vn 0.3174 0.5123 0.7980
vn 0.8888 -0.0098 0.4581
vn 0.2375 -0.0008 0.9714
vn -0.4511 0.1903 0.8719
vn -0.4983 0.0998 0.8612
vn 0.5991 0.2073 0.7734
vn 0.7618 0.6376 0.1142
vn 0.0910 0.9854 0.1442
vn 0.3738 0.9187 0.1279
vn 0.9918 0.1049 0.0729
vn 0.4360 -0.0680 0.8974
vn 0.8992 -0.3627 0.2448
vn 0.3850 -0.8797 0.2791
vn 0.8382 -0.5449 -0.0224
vn 0.5023 -0.8606 0.0843
vn 0.1715 0.0853 0.9815
vn 0.9995 0.0050 0.0318
vn 0.9592 -0.0642 0.2752
vn -0.6161 -0.4097 0.6728
vn 0.5631 0.1069 0.8195
vn 0.8599 -0.0449 0.5085
vn 0.6997 -0.2455 -0.6709
vn 0.8110 -0.1880 0.5541
vn -0.8018 -0.4240 0.4212
vn -0.3896 -0.7358 -0.5539
vn -0.6713 -0.6432 -0.3683
vn -0.0545 -0.9071 -0.4175
vn 0.3977 -0.6817 -0.6141
vn -0.6197 -0.5299 -0.5789
vn -0.6985 -0.7120 0.0724
vn -0.5338 -0.8310 -0.1565
vn -0.7475 -0.6557 -0.1061
vn -0.6521 -0.5032 -0.5671
vn -0.2288 -0.5720 -0.7877
vn -0.6937 -0.4905 -0.5274
vn -0.1262 -0.7566 -0.6416
vn -0.1076 -0.9801 0.1665
vn -0.2319 -0.9720 -0.0379
vn -0.1687 -0.9827 -0.0762
vn 0.8741 -0.0538 -0.4828
vn 0.7391 -0.0489 -0.6718
vn 0.8181 -0.3223 -0.4763
vn 0.9402 -0.0523 0.3365
vn 0.8991 0.2265 0.3746
vn 0.8404 0.2856 0.4606
vn 0.9760 -0.2148 -0.0359
vn 0.9365 -0.2559 0.2396
vn 0.9527 0.1754 0.2482
vn 0.9847 0.1544 0.0806
vn 0.9420 0.3315 -0.0520
vn 0.7319 0.5417 -0.4135
vn 0.8914 0.0093 -0.4530
vn 0.6954 -0.7032 0.1480
vn 0.1727 0.8486 -0.5000
vn 0.2482 0.3168 -0.9154
vn 0.2447 -0.1996 -0.9488
vn 0.1515 -0.8925 -0.4248
vn 0.0725 -0.8846 0.4607
vn 0.4846 -0.8493 0.2096
vn 0.4331 -0.9013 0.0116
vn 0.4421 -0.1811 -0.8785
vn 0.8895 -0.1046 -0.4448
vn 0.9817 0.0434 -0.1855
vn 0.9246 0.3810 0.0046
vn 0.8992 0.1982 -0.3902
vn 0.5026 0.2514 -0.8272
vn 0.1324 0.9718 -0.1952
vn 0.5261 0.7334 -0.4305
vn 0.4252 0.8733 -0.2379
vn 0.8954 0.3752 -0.2398
vn 0.8099 0.5322 -0.2465
vn 0.9853 0.1599 -0.0594
vn 0.9766 0.1195 -0.1786
vn 0.2114 -0.6667 -0.7147
vn 0.6136 -0.6232 -0.4848
vn 0.7658 -0.6066 -0.2133
vn 0.7448 -0.6173 -0.2533
vn 0.6411 -0.7427 -0.1932
vn 0.7080 -0.6823 -0.1823
vn 0.5183 -0.8076 0.2815
vn 0.1607 -0.9861 -0.0419
vn -0.0565 -0.9951 -0.0806
vn -0.4896 -0.0754 -0.8687
vn 0.2324 -0.9547 -0.1856
vn -0.7898 0.3411 -0.5097
s off
f 1//1 2//1 4//1 3//1
f 4//2 2//2 5//2 6//2
f 4//3 6//3 8//3 7//3
f 7//4 8//4 228//4 227//4
f 228//5 8//5 9//5 229//5
f 7//6 227//6 230//6
f 4//7 7//7 230//7 3//7
f 5//8 2//8 11//8 12//8
f 2//9 1//9 10//9 11//9
f 229//10 9//10 13//10 17//10
f 49//11 48//11 15//11 16//11
f 236//12 50//12 18//12 232//12
f 14//13 233//13 229//13 17//13
f 50//14 14//14 17//14 49//14
f 232//15 18//15 16//15 231//15
f 231//16 16//16 19//16 234//16
f 48//17 13//17 20//17 51//17
f 51//18 20//18 22//18 52//18
f 52//19 22//19 24//19 53//19
f 53//20 24//20 12//20 54//20
f 55//21 54//21 12//21 11//21
f 55//22 11//22 10//22
f 10//23 1//23 25//23 27//23
f 1//24 3//24 26//24 25//24
f 55//25 10//25 27//25 56//25
f 3//26 230//26 235//26 26//26
f 13//27 9//27 31//27 33//27
f 24//28 22//28 35//28 36//28
f 5//29 12//29 32//29 28//29
f 22//30 20//30 34//30 35//30
f 20//31 13//31 33//31 34//31
f 9//32 8//32 30//32 31//32
f 6//33 5//33 28//33 29//33
f 12//34 24//34 36//34 32//34
f 8//35 6//35 29//35 30//35
f 28//36 32//36 41//36 37//36
f 29//37 28//37 37//37 38//37
f 36//38 35//38 44//38 45//38
f 33//39 31//39 40//39 42//39
f 30//40 29//40 38//40 39//40
f 32//41 36//41 45//41 41//41
f 34//42 33//42 42//42 43//42
f 31//43 30//43 39//43 40//43
f 35//44 34//44 43//44 44//44
f 46//45 43//45 42//45 40//45
f 38//46 46//46 40//46 39//46
f 47//47 46//47 38//47 37//47
f 37//48 41//48 45//48 47//48
f 45//49 44//49 47//49
f 44//50 43//50 46//50 47//50
f 21//51 51//51 52//51 23//51
f 15//52 48//52 51//52 21//52
f 18//53 50//53 49//53 16//53
f 233//54 14//54 50//54 236//54
f 17//55 13//55 48//55 49//55
f 27//56 25//56 57//56 59//56
f 26//57 235//57 237//57 58//57
f 25//58 26//58 58//58 57//58
f 56//59 27//59 59//59 60//59
f 61//60 19//60 16//60 15//60
f 61//61 15//61 62//61 63//61
f 15//62 21//62 62//62
f 63//63 62//63 64//63 65//63
f 23//64 64//64 62//64 21//64
f 234//65 19//65 71//65 238//65
f 63//66 65//66 69//66 73//66
f 61//67 63//67 72//67 67//67
f 19//68 70//68 66//68
f 70//69 19//69 61//69 67//69
f 71//70 19//70 66//70
f 72//71 63//71 68//71
f 73//72 68//72 63//72
f 72//73 68//73 76//73
f 67//74 72//74 76//74 75//74
f 71//75 66//75 74//75
f 238//76 71//76 74//76 239//76
f 66//77 70//77 74//77
f 68//78 73//78 76//78
f 70//79 67//79 75//79 74//79
f 73//80 69//80 77//80 76//80
f 76//81 77//81 81//81 79//81
f 75//82 76//82 79//82 80//82
f 239//83 74//83 78//83 240//83
f 74//84 75//84 80//84 78//84
f 80//85 79//85 243//85 244//85
f 78//86 80//86 244//86 242//86
f 240//87 78//87 242//87 241//87
f 79//88 81//88 245//88 243//88
f 52//89 53//89 83//89 82//89
f 53//90 54//90 84//90 83//90
f 54//91 55//91 85//91 84//91
f 82//92 83//92 87//92 86//92
f 83//93 84//93 88//93 87//93
f 84//94 85//94 89//94 88//94
f 56//95 89//95 85//95 55//95
f 86//96 87//96 91//96 90//96
f 87//97 88//97 92//97 91//97
f 88//98 89//98 93//98 92//98
f 60//99 93//99 89//99 56//99
f 23//100 52//100 82//100 94//100
f 95//101 94//101 82//101 86//101
f 96//102 95//102 86//102 90//102
f 108//103 251//103 246//103 97//103
f 97//104 246//104 247//104 98//104
f 98//105 247//105 248//105 99//105
f 111//106 252//106 249//106 100//106
f 100//107 249//107 250//107 101//107
f 64//108 23//108 94//108
f 65//109 64//109 94//109 95//109
f 98//110 99//110 103//110 102//110
f 102//111 103//111 105//111 104//111
f 92//112 104//112 105//112 91//112
f 93//113 106//113 104//113 92//113
f 102//114 104//114 106//114 107//114
f 97//115 98//115 102//115 107//115
f 58//116 237//116 251//116 108//116
f 107//117 109//117 108//117 97//117
f 57//118 58//118 108//118 109//118
f 110//119 109//119 107//119 106//119
f 59//120 57//120 109//120 110//120
f 60//121 110//121 106//121 93//121
f 60//122 59//122 110//122
f 99//123 248//123 252//123 111//123
f 112//124 103//124 99//124 111//124
f 105//125 103//125 112//125 113//125
f 90//126 91//126 105//126 113//126
f 96//127 90//127 113//127
f 100//128 113//128 112//128 111//128
f 100//129 101//129 96//129 113//129
f 96//130 101//130 65//130 95//130
f 245//131 81//131 101//131 250//131
f 69//132 65//132 77//132
f 101//133 81//133 65//133
f 77//134 65//134 81//134
f 114//135 116//135 117//135 115//135
f 117//136 119//136 118//136 115//136
f 117//137 120//137 121//137 119//137
f 120//138 227//138 228//138 121//138
f 228//139 229//139 122//139 121//139
f 120//140 230//140 227//140
f 117//141 116//141 230//141 120//141
f 118//142 125//142 124//142 115//142
f 115//143 124//143 123//143 114//143
f 229//144 130//144 126//144 122//144
f 162//145 129//145 128//145 161//145
f 236//146 232//146 131//146 163//146
f 127//147 130//147 229//147 233//147
f 163//148 162//148 130//148 127//148
f 232//149 231//149 129//149 131//149
f 231//150 234//150 132//150 129//150
f 161//151 164//151 133//151 126//151
f 164//152 165//152 135//152 133//152
f 165//153 166//153 137//153 135//153
f 166//154 167//154 125//154 137//154
f 168//155 124//155 125//155 167//155
f 168//156 123//156 124//156
f 123//157 140//157 138//157 114//157
f 114//158 138//158 139//158 116//158
f 168//159 169//159 140//159 123//159
f 116//160 139//160 235//160 230//160
f 126//161 146//161 144//161 122//161
f 137//162 149//162 148//162 135//162
f 118//163 141//163 145//163 125//163
f 135//164 148//164 147//164 133//164
f 133//165 147//165 146//165 126//165
f 122//166 144//166 143//166 121//166
f 119//167 142//167 141//167 118//167
f 125//168 145//168 149//168 137//168
f 121//169 143//169 142//169 119//169
f 141//170 150//170 154//170 145//170
f 142//171 151//171 150//171 141//171
f 149//172 158//172 157//172 148//172
f 146//173 155//173 153//173 144//173
f 143//174 152//174 151//174 142//174
f 145//175 154//175 158//175 149//175
f 147//176 156//176 155//176 146//176
f 144//177 153//177 152//177 143//177
f 148//178 157//178 156//178 147//178
f 159//179 153//179 155//179 156//179
f 151//180 152//180 153//180 159//180
f 160//181 150//181 151//181 159//181
f 150//182 160//182 158//182 154//182
f 158//183 160//183 157//183
f 157//184 160//184 159//184 156//184
f 134//185 136//185 165//185 164//185
f 128//186 134//186 164//186 161//186
f 131//187 129//187 162//187 163//187
f 233//188 236//188 163//188 127//188
f 130//189 162//189 161//189 126//189
f 140//190 172//190 170//190 138//190
f 139//191 171//191 237//191 235//191
f 138//192 170//192 171//192 139//192
f 169//193 173//193 172//193 140//193
f 174//194 128//194 129//194 132//194
f 174//195 176//195 175//195 128//195
f 128//196 175//196 134//196
f 176//197 178//197 177//197 175//197
f 136//198 134//198 175//198 177//198
f 234//199 238//199 184//199 132//199
f 176//200 186//200 182//200 178//200
f 174//201 180//201 185//201 176//201
f 132//202 179//202 183//202
f 183//203 180//203 174//203 132//203
f 184//204 179//204 132//204
f 185//205 181//205 176//205
f 186//206 176//206 181//206
f 185//207 189//207 181//207
f 180//208 188//208 189//208 185//208
f 184//209 187//209 179//209
f 238//210 239//210 187//210 184//210
f 179//211 187//211 183//211
f 181//212 189//212 186//212
f 183//213 187//213 188//213 180//213
f 186//214 189//214 190//214 182//214
f 189//215 192//215 194//215 190//215
f 188//216 193//216 192//216 189//216
f 239//217 240//217 191//217 187//217
f 187//218 191//218 193//218 188//218
f 193//219 244//219 243//219 192//219
f 191//220 242//220 244//220 193//220
f 240//221 241//221 242//221 191//221
f 192//222 243//222 245//222 194//222
f 165//223 195//223 196//223 166//223
f 166//224 196//224 197//224 167//224
f 167//225 197//225 198//225 168//225
f 195//226 199//226 200//226 196//226
f 196//227 200//227 201//227 197//227
f 197//228 201//228 202//228 198//228
f 169//229 168//229 198//229 202//229
f 199//230 203//230 204//230 200//230
f 200//231 204//231 205//231 201//231
f 201//232 205//232 206//232 202//232
f 173//233 169//233 202//233 206//233
f 136//234 207//234 195//234 165//234
f 208//235 199//235 195//235 207//235
f 209//236 203//236 199//236 208//236
f 221//237 210//237 246//237 251//237
f 210//238 211//238 247//238 246//238
f 211//239 212//239 248//239 247//239
f 224//240 213//240 249//240 252//240
f 213//241 214//241 250//241 249//241
f 177//242 207//242 136//242
f 178//243 208//243 207//243 177//243
f 211//244 215//244 216//244 212//244
f 215//245 217//245 218//245 216//245
f 205//246 204//246 218//246 217//246
f 206//247 205//247 217//247 219//247
f 215//248 220//248 219//248 217//248
f 210//249 220//249 215//249 211//249
f 171//250 221//250 251//250 237//250
f 220//251 210//251 221//251 222//251
f 170//252 222//252 221//252 171//252
f 223//253 219//253 220//253 222//253
f 172//254 223//254 222//254 170//254
f 173//255 206//255 219//255 223//255
f 173//256 223//256 172//256
f 212//257 224//257 252//257 248//257
f 225//258 224//258 212//258 216//258
f 218//259 226//259 225//259 216//259
f 203//260 226//260 218//260 204//260
f 209//261 226//261 203//261
f 213//262 224//262 225//262 226//262
f 213//263 226//263 209//263 214//263
f 209//264 208//264 178//264 214//264
f 245//265 250//265 214//265 194//265
f 182//266 190//266 178//266
f 214//267 178//267 194//267
f 190//268 194//268 178//268
