# Blender v2.79 (sub 0) OBJ File: 'PathTiles.blend'
# www.blender.org
o Cube.014_Cube.015
v 8.200195 0.008106 12.603015
v 8.200195 0.282073 12.603015
v 8.200195 0.008106 10.603015
v 8.200195 0.282073 10.603015
v 12.200195 0.008106 12.603015
v 12.200195 0.282073 12.603015
v 12.200195 0.008106 10.603015
v 12.200195 0.282073 10.603015
v -2.799804 0.008106 35.603016
v -2.799804 0.282073 35.603016
v -2.799804 0.008106 31.603016
v -2.799804 0.282073 31.603016
v -0.799804 0.008106 35.603016
v -0.799804 0.282073 35.603016
v -0.799804 0.008106 31.603016
v -0.799804 0.282073 31.603016
v 0.200196 0.008106 33.603016
v 0.200196 0.282073 33.603016
v 0.200196 0.008106 31.603016
v 0.200196 0.282073 31.603016
v 4.200196 0.008106 33.603016
v 4.200196 0.282073 33.603016
v 4.200196 0.008106 31.603016
v 4.200196 0.282073 31.603016
v -2.799804 0.008106 30.603016
v -2.799804 0.282073 30.603016
v -2.799804 0.008106 28.603016
v -2.799804 0.282073 28.603016
v 1.200196 0.008106 30.603016
v 1.200196 0.282073 30.603016
v 1.200196 0.008106 28.603016
v 1.200196 0.282073 28.603016
v 6.200196 0.008106 23.603016
v 6.200196 0.282073 23.603016
v 6.200196 0.008106 21.603016
v 6.200196 0.282073 21.603016
v 10.200195 0.008106 23.603016
v 10.200195 0.282073 23.603016
v 10.200195 0.008106 21.603016
v 10.200195 0.282073 21.603016
v 1.200196 0.008106 25.603016
v 1.200196 0.282073 25.603016
v 1.200196 0.008106 23.603016
v 1.200196 0.282073 23.603016
v 5.200196 0.008106 25.603016
v 5.200196 0.282073 25.603016
v 5.200196 0.008106 23.603016
v 5.200196 0.282073 23.603016
v 2.200196 0.008106 11.603015
v 2.200196 0.282073 11.603015
v 2.200196 0.008106 7.603015
v 2.200196 0.282073 7.603015
v 4.200196 0.008106 11.603015
v 4.200196 0.282073 11.603015
v 4.200196 0.008106 7.603015
v 4.200196 0.282073 7.603015
v 5.200196 0.008106 14.603015
v 5.200196 0.282073 14.603015
v 5.200196 0.008106 10.603015
v 5.200196 0.282073 10.603015
v 7.200195 0.008106 14.603015
v 7.200195 0.282073 14.603015
v 7.200195 0.008106 10.603015
v 7.200195 0.282073 10.603015
v 0.200196 0.008106 14.603015
v 0.200196 0.282073 14.603015
v 0.200196 0.008106 12.603015
v 0.200196 0.282073 12.603015
v 4.200196 0.008106 14.603015
v 4.200196 0.282073 14.603015
v 4.200196 0.008106 12.603015
v 4.200196 0.282073 12.603015
v 3.200196 0.008106 17.603016
v 3.200196 0.282073 17.603016
v 3.200196 0.008106 15.603016
v 3.200196 0.282073 15.603016
v 7.200196 0.008106 17.603016
v 7.200196 0.282073 17.603016
v 7.200196 0.008106 15.603016
v 7.200196 0.282073 15.603016
v 6.200196 0.008106 20.603016
v 6.200196 0.282073 20.603016
v 6.200196 0.008106 18.603016
v 6.200196 0.282073 18.603016
v 10.200195 0.008106 20.603016
v 10.200195 0.282073 20.603016
v 10.200195 0.008106 18.603016
v 10.200195 0.282073 18.603016
v 0.200196 0.008106 19.603016
v 0.200196 0.282073 19.603016
v 0.200196 0.008106 15.603016
v 0.200196 0.282073 15.603016
v 2.200196 0.008106 19.603016
v 2.200196 0.282073 19.603016
v 2.200196 0.008106 15.603016
v 2.200196 0.282073 15.603016
v 3.200196 0.008106 22.603016
v 3.200196 0.282073 22.603016
v 3.200196 0.008106 18.603016
v 3.200196 0.282073 18.603016
v 5.200196 0.008106 22.603016
v 5.200196 0.282073 22.603016
v 5.200196 0.008106 18.603016
v 5.200196 0.282073 18.603016
v -0.799804 0.008106 8.603015
v -0.799804 0.282073 8.603015
v -0.799804 0.008106 4.603015
v -0.799804 0.282073 4.603015
v 1.200196 0.008106 8.603015
v 1.200196 0.282073 8.603015
v 1.200196 0.008106 4.603015
v 1.200196 0.282073 4.603015
v -3.799804 0.008106 5.603015
v -3.799804 0.282073 5.603015
v -3.799804 0.008106 1.603015
v -3.799804 0.282073 1.603015
v -1.799804 0.008106 5.603015
v -1.799804 0.282073 5.603015
v -1.799804 0.008106 1.603015
v -1.799804 0.282073 1.603015
v 2.200196 0.008106 6.603015
v 2.200196 0.282073 6.603015
v 2.200196 0.008106 4.603015
v 2.200196 0.282073 4.603015
v 6.200196 0.008106 6.603015
v 6.200196 0.282073 6.603015
v 6.200196 0.008106 4.603015
v 6.200196 0.282073 4.603015
v -0.799804 0.008106 3.603015
v -0.799804 0.282073 3.603015
v -0.799804 0.008106 1.603015
v -0.799804 0.282073 1.603015
v 3.200196 0.008106 3.603015
v 3.200196 0.282073 3.603015
v 3.200196 0.008106 1.603015
v 3.200196 0.282073 1.603015
v -3.799804 0.008106 0.603015
v -3.799804 0.282073 0.603015
v -3.799804 0.008106 -1.396985
v -3.799804 0.282073 -1.396985
v 0.200196 0.008106 0.603015
v 0.200196 0.282073 0.603015
v 0.200196 0.008106 -1.396985
v 0.200196 0.282073 -1.396985
v 4.200196 0.008106 -1.396985
v 4.200196 0.282073 -1.396985
v 4.200196 0.008106 -3.396985
v 4.200196 0.282073 -3.396985
v 8.200195 0.008106 -1.396985
v 8.200195 0.282073 -1.396985
v 8.200195 0.008106 -3.396985
v 8.200195 0.282073 -3.396985
v 1.200196 0.008106 0.603015
v 1.200196 0.282073 0.603015
v 1.200196 0.008106 -3.396985
v 1.200196 0.282073 -3.396985
v 3.200196 0.008106 0.603015
v 3.200196 0.282073 0.603015
v 3.200196 0.008106 -3.396985
v 3.200196 0.282073 -3.396985
v 1.200196 0.008106 -4.396985
v 1.200196 0.282073 -4.396985
v 1.200196 0.008106 -6.396985
v 1.200196 0.282073 -6.396985
v 5.200196 0.008106 -4.396985
v 5.200196 0.282073 -4.396985
v 5.200196 0.008106 -6.396985
v 5.200196 0.282073 -6.396985
v -1.799804 0.008106 -2.396985
v -1.799804 0.282073 -2.396985
v -1.799804 0.008106 -6.396985
v -1.799804 0.282073 -6.396985
v 0.200196 0.008106 -2.396985
v 0.200196 0.282073 -2.396985
v 0.200196 0.008106 -6.396985
v 0.200196 0.282073 -6.396985
vn -1.0000 0.0000 0.0000
vn 0.0000 0.0000 -1.0000
vn 1.0000 0.0000 0.0000
vn 0.0000 0.0000 1.0000
vn 0.0000 -1.0000 0.0000
vn 0.0000 1.0000 0.0000
s off
f 1//1 2//1 4//1 3//1
f 3//2 4//2 8//2 7//2
f 7//3 8//3 6//3 5//3
f 5//4 6//4 2//4 1//4
f 3//5 7//5 5//5 1//5
f 8//6 4//6 2//6 6//6
f 9//1 10//1 12//1 11//1
f 11//2 12//2 16//2 15//2
f 15//3 16//3 14//3 13//3
f 13//4 14//4 10//4 9//4
f 11//5 15//5 13//5 9//5
f 16//6 12//6 10//6 14//6
f 17//1 18//1 20//1 19//1
f 19//2 20//2 24//2 23//2
f 23//3 24//3 22//3 21//3
f 21//4 22//4 18//4 17//4
f 19//5 23//5 21//5 17//5
f 24//6 20//6 18//6 22//6
f 25//1 26//1 28//1 27//1
f 27//2 28//2 32//2 31//2
f 31//3 32//3 30//3 29//3
f 29//4 30//4 26//4 25//4
f 27//5 31//5 29//5 25//5
f 32//6 28//6 26//6 30//6
f 33//1 34//1 36//1 35//1
f 35//2 36//2 40//2 39//2
f 39//3 40//3 38//3 37//3
f 37//4 38//4 34//4 33//4
f 35//5 39//5 37//5 33//5
f 40//6 36//6 34//6 38//6
f 41//1 42//1 44//1 43//1
f 43//2 44//2 48//2 47//2
f 47//3 48//3 46//3 45//3
f 45//4 46//4 42//4 41//4
f 43//5 47//5 45//5 41//5
f 48//6 44//6 42//6 46//6
f 49//1 50//1 52//1 51//1
f 51//2 52//2 56//2 55//2
f 55//3 56//3 54//3 53//3
f 53//4 54//4 50//4 49//4
f 51//5 55//5 53//5 49//5
f 56//6 52//6 50//6 54//6
f 57//1 58//1 60//1 59//1
f 59//2 60//2 64//2 63//2
f 63//3 64//3 62//3 61//3
f 61//4 62//4 58//4 57//4
f 59//5 63//5 61//5 57//5
f 64//6 60//6 58//6 62//6
f 65//1 66//1 68//1 67//1
f 67//2 68//2 72//2 71//2
f 71//3 72//3 70//3 69//3
f 69//4 70//4 66//4 65//4
f 67//5 71//5 69//5 65//5
f 72//6 68//6 66//6 70//6
f 73//1 74//1 76//1 75//1
f 75//2 76//2 80//2 79//2
f 79//3 80//3 78//3 77//3
f 77//4 78//4 74//4 73//4
f 75//5 79//5 77//5 73//5
f 80//6 76//6 74//6 78//6
f 81//1 82//1 84//1 83//1
f 83//2 84//2 88//2 87//2
f 87//3 88//3 86//3 85//3
f 85//4 86//4 82//4 81//4
f 83//5 87//5 85//5 81//5
f 88//6 84//6 82//6 86//6
f 89//1 90//1 92//1 91//1
f 91//2 92//2 96//2 95//2
f 95//3 96//3 94//3 93//3
f 93//4 94//4 90//4 89//4
f 91//5 95//5 93//5 89//5
f 96//6 92//6 90//6 94//6
f 97//1 98//1 100//1 99//1
f 99//2 100//2 104//2 103//2
f 103//3 104//3 102//3 101//3
f 101//4 102//4 98//4 97//4
f 99//5 103//5 101//5 97//5
f 104//6 100//6 98//6 102//6
f 105//1 106//1 108//1 107//1
f 107//2 108//2 112//2 111//2
f 111//3 112//3 110//3 109//3
f 109//4 110//4 106//4 105//4
f 107//5 111//5 109//5 105//5
f 112//6 108//6 106//6 110//6
f 113//1 114//1 116//1 115//1
f 115//2 116//2 120//2 119//2
f 119//3 120//3 118//3 117//3
f 117//4 118//4 114//4 113//4
f 115//5 119//5 117//5 113//5
f 120//6 116//6 114//6 118//6
f 121//1 122//1 124//1 123//1
f 123//2 124//2 128//2 127//2
f 127//3 128//3 126//3 125//3
f 125//4 126//4 122//4 121//4
f 123//5 127//5 125//5 121//5
f 128//6 124//6 122//6 126//6
f 129//1 130//1 132//1 131//1
f 131//2 132//2 136//2 135//2
f 135//3 136//3 134//3 133//3
f 133//4 134//4 130//4 129//4
f 131//5 135//5 133//5 129//5
f 136//6 132//6 130//6 134//6
f 137//1 138//1 140//1 139//1
f 139//2 140//2 144//2 143//2
f 143//3 144//3 142//3 141//3
f 141//4 142//4 138//4 137//4
f 139//5 143//5 141//5 137//5
f 144//6 140//6 138//6 142//6
f 145//1 146//1 148//1 147//1
f 147//2 148//2 152//2 151//2
f 151//3 152//3 150//3 149//3
f 149//4 150//4 146//4 145//4
f 147//5 151//5 149//5 145//5
f 152//6 148//6 146//6 150//6
f 153//1 154//1 156//1 155//1
f 155//2 156//2 160//2 159//2
f 159//3 160//3 158//3 157//3
f 157//4 158//4 154//4 153//4
f 155//5 159//5 157//5 153//5
f 160//6 156//6 154//6 158//6
f 161//1 162//1 164//1 163//1
f 163//2 164//2 168//2 167//2
f 167//3 168//3 166//3 165//3
f 165//4 166//4 162//4 161//4
f 163//5 167//5 165//5 161//5
f 168//6 164//6 162//6 166//6
f 169//1 170//1 172//1 171//1
f 171//2 172//2 176//2 175//2
f 175//3 176//3 174//3 173//3
f 173//4 174//4 170//4 169//4
f 171//5 175//5 173//5 169//5
f 176//6 172//6 170//6 174//6
